<?xml version="1.0" encoding="UTF-8"?>
<!DOCTYPE svg PUBLIC "-//W3C//DTD SVG 1.1//EN" "http://www.w3.org/Graphics/SVG/1.1/DTD/svg11.dtd">
<svg xmlns="http://www.w3.org/2000/svg" version="1.1" width="112px" height="92px" style="shape-rendering:geometricPrecision; text-rendering:geometricPrecision; image-rendering:optimizeQuality; fill-rule:evenodd; clip-rule:evenodd" xmlns:xlink="http://www.w3.org/1999/xlink">
<g><path style="opacity:1" fill="#eb930d" d="M 102.5,7.5 C 101.555,10.7455 99.8885,13.4121 97.5,15.5C 95.6214,15.6068 95.2881,15.1068 96.5,14C 95.4281,12.7163 94.0948,12.3829 92.5,13C 92.8333,12.6667 93.1667,12.3333 93.5,12C 88.4731,12.436 83.4731,12.6027 78.5,12.5C 75.6067,12.0311 73.6067,13.0311 72.5,15.5C 71.1667,15.8333 71.1667,16.1667 72.5,16.5C 68.7688,17.1831 65.1021,18.8497 61.5,21.5C 58.9401,23.2733 56.6068,25.2733 54.5,27.5C 48.2951,32.5382 42.9617,38.3715 38.5,45C 39.4506,45.7175 39.6172,46.5509 39,47.5C 38.3333,46.1667 37.6667,46.1667 37,47.5C 35.7063,48.8544 35.5396,50.1877 36.5,51.5C 35.91,52.7989 34.91,53.6322 33.5,54C 33.8333,54.3333 34.1667,54.6667 34.5,55C 32.4613,56.3243 31.4613,57.8243 31.5,59.5C 28.6203,63.5479 27.9536,67.8813 29.5,72.5C 29.5,73.1667 29.5,73.8333 29.5,74.5C 29.5,75.5 29.5,76.5 29.5,77.5C 30.5,77.5 31.5,77.5 32.5,77.5C 32.5,77.8333 32.5,78.1667 32.5,78.5C 30.8222,81.1727 28.8222,83.506 26.5,85.5C 25.6726,86.4387 25.0059,86.1054 24.5,84.5C 24.6716,83.5084 24.3382,82.8417 23.5,82.5C 21.3932,81.1203 20.0598,79.6203 19.5,78C 19.1881,72.5841 19.5215,67.0841 20.5,61.5C 22.3999,58.4822 23.7333,55.1488 24.5,51.5C 26.3335,48.9114 27.1669,46.2448 27,43.5C 29.1907,41.6781 31.024,39.6781 32.5,37.5C 33.3382,37.1583 33.6716,36.4916 33.5,35.5C 34.8333,34.8333 35.8333,33.8333 36.5,32.5C 37.9063,32.0269 38.573,31.0269 38.5,29.5C 41.5,27.1667 44.1667,24.5 46.5,21.5C 49.4549,19.8777 52.1215,17.8777 54.5,15.5C 55.1667,15.5 55.5,15.1667 55.5,14.5C 57.2327,13.9924 57.566,13.159 56.5,12C 58.7924,13.1009 60.2924,12.2676 61,9.5C 62.313,10.2871 63.4797,9.95378 64.5,8.5C 65.4916,8.67158 66.1583,8.33825 66.5,7.5C 67.2216,7.08247 67.7216,6.4158 68,5.5C 69.164,5.16539 70.4974,5.16539 72,5.5C 73.0633,4.56218 74.2299,3.56218 75.5,2.5C 77.1563,4.02238 78.323,3.68905 79,1.5C 84.6925,1.5559 90.3592,1.5559 96,1.5C 96.3333,2.16667 96.6667,2.83333 97,3.5C 97.7175,2.54943 98.5509,2.38277 99.5,3C 100.386,4.61467 101.386,6.11467 102.5,7.5 Z"/></g>
<g><path style="opacity:1" fill="#e1a4ba" d="M 51.5,13.5 C 51.8417,14.3382 52.5084,14.6716 53.5,14.5C 53.5,15.1667 53.8333,15.5 54.5,15.5C 52.1215,17.8777 49.4549,19.8777 46.5,21.5C 45.5416,21.0472 44.7083,20.3805 44,19.5C 43.2825,20.4506 42.4491,20.6172 41.5,20C 40.7894,18.7453 39.956,17.5786 39,16.5C 37.4931,17.5348 35.9931,17.3681 34.5,16C 35.3402,14.3335 34.8402,14.1669 33,15.5C 31.0307,15.1981 29.6973,14.1981 29,12.5C 28.1268,12.7355 27.2935,13.0688 26.5,13.5C 25.3044,13.1543 25.3044,12.6543 26.5,12C 22.8333,11.3333 19.1667,11.3333 15.5,12C 15.8333,12.3333 16.1667,12.6667 16.5,13C 15.0161,13.6622 13.6828,14.4955 12.5,15.5C 12.5,15.1667 12.5,14.8333 12.5,14.5C 8.62648,13.287 6.62648,10.6204 6.5,6.5C 8.23267,5.99236 8.566,5.15902 7.5,4C 8.76035,2.88695 9.92702,2.72028 11,3.5C 11.3333,2.83333 11.6667,2.16667 12,1.5C 18.3707,0.970805 24.7041,1.63747 31,3.5C 32.3946,2.18543 33.3946,2.51877 34,4.5C 34.414,4.04265 34.914,3.70931 35.5,3.5C 35.8333,4.16667 36.1667,4.83333 36.5,5.5C 37.8425,4.09773 38.6758,4.43107 39,6.5C 40.5069,5.46522 42.0069,5.63188 43.5,7C 44.2106,8.25471 45.044,9.42138 46,10.5C 46.7175,9.54943 47.5509,9.38277 48.5,10C 49.1634,11.5185 50.1634,12.6851 51.5,13.5 Z"/></g>
<g><path style="opacity:1" fill="#000000" d="M 66.5,7.5 C 66.1583,8.33825 65.4916,8.67158 64.5,8.5C 64.0618,8.56544 63.7284,8.39877 63.5,8C 64.4162,7.62576 65.2496,7.12576 66,6.5C 66.3988,6.72845 66.5654,7.06178 66.5,7.5 Z"/></g>
<g><path style="opacity:1" fill="#000000" d="M 105.5,9.5 C 106.833,10.1667 106.833,10.1667 105.5,9.5 Z"/></g>
<g><path style="opacity:1" fill="#148c39" d="M 6.5,6.5 C 6.62648,10.6204 8.62648,13.287 12.5,14.5C 11.1667,14.8333 11.1667,15.1667 12.5,15.5C 12.6068,17.3786 12.1068,17.7119 11,16.5C 10.8333,18.1667 10.6667,19.8333 10.5,21.5C 10.288,24.0114 10.9546,26.1781 12.5,28C 11.1669,29.8402 11.3335,30.3402 13,29.5C 13.4922,30.549 13.3256,31.549 12.5,32.5C 12.8457,33.6956 13.3457,33.6956 14,32.5C 15.3681,33.9931 15.5348,35.4931 14.5,37C 16.4257,37.4224 17.4257,38.5891 17.5,40.5C 16.1667,40.8333 16.1667,41.1667 17.5,41.5C 17.3284,42.4916 17.6618,43.1583 18.5,43.5C 18.8333,44.8333 19.1667,44.8333 19.5,43.5C 20.7736,44.1894 20.7736,45.0228 19.5,46C 20.0442,46.7172 20.7109,47.2172 21.5,47.5C 21.3284,48.4916 21.6618,49.1583 22.5,49.5C 22.8333,50.5 23.5,51.1667 24.5,51.5C 23.7333,55.1488 22.3999,58.4822 20.5,61.5C 19.0502,62.6576 18.0502,62.1576 17.5,60C 17.8333,59.6667 18.1667,59.3333 18.5,59C 17.3333,57.8333 16.1667,56.6667 15,55.5C 13.3335,56.3402 13.1669,55.8402 14.5,54C 13.9558,53.2828 13.2891,52.7828 12.5,52.5C 12.6716,51.5084 12.3382,50.8417 11.5,50.5C 11.5,49.8333 11.1667,49.5 10.5,49.5C 10.6716,48.5084 10.3382,47.8417 9.5,47.5C 9.16667,46.1667 8.83333,46.1667 8.5,47.5C 6.78011,46.2493 6.44678,44.7493 7.5,43C 5.88579,41.9298 4.55245,40.4298 3.5,38.5C 4.90227,37.1575 4.56893,36.3242 2.5,36C 2.63977,34.4029 2.63977,32.9029 2.5,31.5C 1.97473,30.8076 1.30806,30.3076 0.5,30C 0.301165,24.5637 0.634498,19.0637 1.5,13.5C 2.26739,12.828 2.93406,11.9947 3.5,11C 2.16686,9.15975 2.33353,8.65975 4,9.5C 5.48701,8.74714 5.65367,7.9138 4.5,7C 5.2555,5.61968 5.92217,5.45301 6.5,6.5 Z"/></g>
<g><path style="opacity:1" fill="#e9540b" d="M 102.5,7.5 C 103.397,8.59809 104.23,8.59809 105,7.5C 105.464,8.09442 105.631,8.76109 105.5,9.5C 104.167,9.83333 104.167,10.1667 105.5,10.5C 106.091,11.1515 106.757,11.8182 107.5,12.5C 106.098,13.8425 106.431,14.6758 108.5,15C 107.167,18.6667 107.167,22.3333 108.5,26C 108.119,29.6506 107.119,32.8173 105.5,35.5C 104.167,35.8333 104.167,36.1667 105.5,36.5C 105.3,39.0752 103.967,41.4086 101.5,43.5C 100.662,43.8417 100.328,44.5084 100.5,45.5C 98.1792,48.7959 95.8458,52.1292 93.5,55.5C 92.5,55.8333 91.8333,56.5 91.5,57.5C 91.5,57.8333 91.5,58.1667 91.5,58.5C 90.8333,58.5 90.5,58.8333 90.5,59.5C 89.8333,59.5 89.5,59.8333 89.5,60.5C 88.8333,60.5 88.5,60.8333 88.5,61.5C 88.1667,61.5 87.8333,61.5 87.5,61.5C 86.1009,58.3012 85.1009,54.9679 84.5,51.5C 85.1667,51.5 85.5,51.1667 85.5,50.5C 86.1667,50.5 86.5,50.1667 86.5,49.5C 86.8333,48.8333 87.1667,48.1667 87.5,47.5C 88.3382,47.1583 88.6716,46.4916 88.5,45.5C 90.5084,44.6993 91.0084,43.366 90,41.5C 90.7504,40.8742 91.5838,40.3742 92.5,40C 91.3659,38.984 91.6992,38.3173 93.5,38C 92.3659,36.984 92.6992,36.3173 94.5,36C 93.3659,34.984 93.6992,34.3173 95.5,34C 94.5494,33.2825 94.3828,32.4491 95,31.5C 95.6543,32.6956 96.1543,32.6956 96.5,31.5C 96.1667,30.8333 95.8333,30.1667 95.5,29.5C 95.8457,28.3044 96.3457,28.3044 97,29.5C 97.5643,26.8453 98.0643,24.1786 98.5,21.5C 98.6102,19.626 97.9436,18.126 96.5,17C 97.056,16.6174 97.3893,16.1174 97.5,15.5C 99.8885,13.4121 101.555,10.7455 102.5,7.5 Z"/></g>
<g><path style="opacity:1" fill="#000000" d="M 1.5,13.5 C 0.833333,12.1667 0.833333,12.1667 1.5,13.5 Z"/></g>
<g><path style="opacity:1" fill="#785c22" d="M 78.5,12.5 C 79.5524,14.6551 78.8857,14.9884 76.5,13.5C 75.3044,13.8457 75.3044,14.3457 76.5,15C 75.255,15.7914 73.9217,16.2914 72.5,16.5C 72.5,16.1667 72.5,15.8333 72.5,15.5C 73.6067,13.0311 75.6067,12.0311 78.5,12.5 Z"/></g>
<g><path style="opacity:1" fill="#1a100f" d="M 55.5,14.5 C 55.5,15.1667 55.1667,15.5 54.5,15.5C 53.8333,15.5 53.5,15.1667 53.5,14.5C 52.5084,14.6716 51.8417,14.3382 51.5,13.5C 51.4346,13.0618 51.6012,12.7284 52,12.5C 53.3024,13.0848 54.469,13.7515 55.5,14.5 Z"/></g>
<g><path style="opacity:1" fill="#e4a4bc" d="M 61.5,21.5 C 63.8555,22.7698 66.1888,24.6032 68.5,27C 68.1667,27.3333 67.8333,27.6667 67.5,28C 69.8494,30.7404 72.1828,32.7404 74.5,34C 73.7417,35.3639 74.2417,36.5305 76,37.5C 77.6665,36.6598 77.8331,37.1598 76.5,39C 77.2529,40.487 78.0862,40.6537 79,39.5C 78.3829,41.0948 78.7163,42.4281 80,43.5C 80.3333,43.1667 80.6667,42.8333 81,42.5C 82.3681,43.9931 82.5348,45.4931 81.5,47C 83.0302,48.1203 84.6968,48.9536 86.5,49.5C 86.5,50.1667 86.1667,50.5 85.5,50.5C 84.8333,50.5 84.5,50.8333 84.5,51.5C 85.1009,54.9679 86.1009,58.3012 87.5,61.5C 87.5,62.1667 87.8333,62.5 88.5,62.5C 88.3593,68.1512 88.3593,73.6512 88.5,79C 87.5842,79.2784 86.9175,79.7784 86.5,80.5C 85.1667,80.8333 85.1667,81.1667 86.5,81.5C 86.6716,82.4916 86.3382,83.1583 85.5,83.5C 85.1667,82.1667 84.8333,82.1667 84.5,83.5C 83.8333,83.5 83.5,83.8333 83.5,84.5C 83.1667,84.5 82.8333,84.5 82.5,84.5C 79.5,83.5 77.5,81.5 76.5,78.5C 76.6107,77.8826 76.944,77.3826 77.5,77C 76.4293,76.1482 75.4293,75.3149 74.5,74.5C 75.1667,74.1667 75.8333,73.8333 76.5,73.5C 77.1667,73.5 77.5,73.1667 77.5,72.5C 78.8333,72.5 79.5,71.8333 79.5,70.5C 79.8836,66.5115 79.217,62.8448 77.5,59.5C 77.1667,58.8333 76.8333,58.1667 76.5,57.5C 76.1667,56.1667 75.8333,56.1667 75.5,57.5C 73.9409,55.3924 72.6076,53.0591 71.5,50.5C 71.7093,49.914 72.0426,49.414 72.5,49C 70.1667,48 68.5,46.3333 67.5,44C 68.566,42.841 68.2327,42.0076 66.5,41.5C 66.6716,40.5084 66.3382,39.8417 65.5,39.5C 64.1667,37.5 62.5,35.8333 60.5,34.5C 59.1667,32.5 57.5,30.8333 55.5,29.5C 55.1667,28.8333 54.8333,28.1667 54.5,27.5C 56.6068,25.2733 58.9401,23.2733 61.5,21.5 Z"/></g>
<g><path style="opacity:1" fill="#1d1915" d="M 38.5,29.5 C 38.573,31.0269 37.9063,32.0269 36.5,32.5C 36.0618,32.5654 35.7284,32.3988 35.5,32C 36.1258,31.2496 36.6258,30.4162 37,29.5C 37.69,28.2617 38.19,28.2617 38.5,29.5 Z"/></g>
<g><path style="opacity:1" fill="#000000" d="M 55.5,29.5 C 57.5,30.8333 59.1667,32.5 60.5,34.5C 60.5654,34.9382 60.3988,35.2716 60,35.5C 58.1667,33.6667 56.3333,31.8333 54.5,30C 54.7284,29.6012 55.0618,29.4346 55.5,29.5 Z"/></g>
<g><path style="opacity:1" fill="#000000" d="M 33.5,35.5 C 33.6716,36.4916 33.3382,37.1583 32.5,37.5C 32.0618,37.5654 31.7284,37.3988 31.5,37C 32.1258,36.2496 32.6258,35.4162 33,34.5C 33.3988,34.7284 33.5654,35.0618 33.5,35.5 Z"/></g>
<g><path style="opacity:1" fill="#000000" d="M 105.5,35.5 C 106.833,36.1667 106.833,36.1667 105.5,35.5 Z"/></g>
<g><path style="opacity:1" fill="#111111" d="M 17.5,40.5 C 18.4013,41.2905 19.0679,42.2905 19.5,43.5C 19.1667,43.5 18.8333,43.5 18.5,43.5C 17.6618,43.1583 17.3284,42.4916 17.5,41.5C 17.5,41.1667 17.5,40.8333 17.5,40.5 Z"/></g>
<g><path style="opacity:1" fill="#191319" d="M 65.5,39.5 C 66.3382,39.8417 66.6716,40.5084 66.5,41.5C 66.5654,41.9382 66.3988,42.2716 66,42.5C 65.6258,41.5838 65.1258,40.7504 64.5,40C 64.7284,39.6012 65.0618,39.4346 65.5,39.5 Z"/></g>
<g><path style="opacity:1" fill="#000000" d="M 101.5,43.5 C 102.833,44.1667 102.833,44.1667 101.5,43.5 Z"/></g>
<g><path style="opacity:1" fill="#000000" d="M 88.5,45.5 C 88.6716,46.4916 88.3382,47.1583 87.5,47.5C 87.0618,47.5654 86.7284,47.3988 86.5,47C 87.1258,46.2496 87.6258,45.4162 88,44.5C 88.3988,44.7284 88.5654,45.0618 88.5,45.5 Z"/></g>
<g><path style="opacity:1" fill="#000000" d="M 100.5,45.5 C 101.833,46.1667 101.833,46.1667 100.5,45.5 Z"/></g>
<g><path style="opacity:1" fill="#0b1510" d="M 22.5,49.5 C 21.6618,49.1583 21.3284,48.4916 21.5,47.5C 21.4346,47.0618 21.6012,46.7284 22,46.5C 22.3742,47.4162 22.8742,48.2496 23.5,49C 23.2716,49.3988 22.9382,49.5654 22.5,49.5 Z"/></g>
<g><path style="opacity:1" fill="#1a1a1a" d="M 8.5,47.5 C 8.83333,47.5 9.16667,47.5 9.5,47.5C 10.3382,47.8417 10.6716,48.5084 10.5,49.5C 10.5,49.8333 10.5,50.1667 10.5,50.5C 9.59872,49.7095 8.93205,48.7095 8.5,47.5 Z"/></g>
<g><path style="opacity:1" fill="#091107" d="M 10.5,50.5 C 10.8333,50.5 11.1667,50.5 11.5,50.5C 12.3382,50.8417 12.6716,51.5084 12.5,52.5C 12.5654,52.9382 12.3988,53.2716 12,53.5C 11.4867,52.4734 10.9867,51.4734 10.5,50.5 Z"/></g>
<g><path style="opacity:1" fill="#221915" d="M 93.5,55.5 C 94.7152,56.779 94.3818,57.779 92.5,58.5C 92.5,57.8333 92.1667,57.5 91.5,57.5C 91.8333,56.5 92.5,55.8333 93.5,55.5 Z"/></g>
<g><path style="opacity:1" fill="#000000" d="M 75.5,57.5 C 75.8333,57.5 76.1667,57.5 76.5,57.5C 76.8333,58.1667 77.1667,58.8333 77.5,59.5C 76.1667,60.5 74.8333,61.5 73.5,62.5C 73.0618,62.5654 72.7284,62.3988 72.5,62C 74.1412,60.871 75.1412,59.371 75.5,57.5 Z"/></g>
<g><path style="opacity:1" fill="#000000" d="M 91.5,58.5 C 91.8333,58.5 92.1667,58.5 92.5,58.5C 92.3147,59.1701 91.9813,59.1701 91.5,58.5 Z"/></g>
<g><path style="opacity:1" fill="#000000" d="M 90.5,59.5 C 90.8333,59.5 91.1667,59.5 91.5,59.5C 91.3147,60.1701 90.9813,60.1701 90.5,59.5 Z"/></g>
<g><path style="opacity:1" fill="#000000" d="M 89.5,60.5 C 89.8333,60.5 90.1667,60.5 90.5,60.5C 90.3147,61.1701 89.9813,61.1701 89.5,60.5 Z"/></g>
<g><path style="opacity:1" fill="#000000" d="M 88.5,61.5 C 88.8333,61.5 89.1667,61.5 89.5,61.5C 89.3147,62.1701 88.9813,62.1701 88.5,61.5 Z"/></g>
<g><path style="opacity:1" fill="#1f8e3a" d="M 31.5,59.5 C 32.5421,61.7914 34.0421,62.7914 36,62.5C 36.7504,63.1258 37.5838,63.6258 38.5,64C 37.7417,65.3639 38.2417,66.5305 40,67.5C 41.073,66.7203 42.2396,66.887 43.5,68C 42.3463,68.9138 42.513,69.7471 44,70.5C 45.8402,69.1669 46.3402,69.3335 45.5,71C 46.3247,72.6883 47.3247,72.8549 48.5,71.5C 50.7411,72.0318 52.2411,73.3651 53,75.5C 53.6708,74.7476 54.5041,74.4142 55.5,74.5C 55.5,74.8333 55.5,75.1667 55.5,75.5C 51.5652,78.1459 47.2318,79.8126 42.5,80.5C 42.1583,79.6618 41.4916,79.3284 40.5,79.5C 40.5,78.8333 40.1667,78.5 39.5,78.5C 39.1667,78.5 38.8333,78.5 38.5,78.5C 37.4891,75.7698 35.8225,75.1032 33.5,76.5C 34.1236,74.4947 33.2903,72.8281 31,71.5C 30.6174,72.056 30.1174,72.3893 29.5,72.5C 27.9536,67.8813 28.6203,63.5479 31.5,59.5 Z"/></g>
<g><path style="opacity:1" fill="#f05508" d="M 77.5,59.5 C 79.217,62.8448 79.8836,66.5115 79.5,70.5C 78.5,70.8333 77.8333,71.5 77.5,72.5C 76.8333,72.5 76.5,72.8333 76.5,73.5C 75.8333,73.8333 75.1667,74.1667 74.5,74.5C 73.5,75.1667 72.5,75.8333 71.5,76.5C 70.8333,76.5 70.5,76.8333 70.5,77.5C 69.8333,77.5 69.5,77.8333 69.5,78.5C 69.1667,78.5 68.8333,78.5 68.5,78.5C 67.8333,78.8333 67.1667,79.1667 66.5,79.5C 62.4645,81.8483 58.4645,84.1816 54.5,86.5C 53.3226,88.7843 51.6559,89.1177 49.5,87.5C 48.5084,87.3284 47.8417,87.6618 47.5,88.5C 46.8333,88.5 46.1667,88.5 45.5,88.5C 40.4725,88.4971 35.4725,88.1637 30.5,87.5C 29.8333,87.5 29.5,87.8333 29.5,88.5C 27.6214,88.6068 27.2881,88.1068 28.5,87C 27.9558,86.2828 27.2891,85.7828 26.5,85.5C 28.8222,83.506 30.8222,81.1727 32.5,78.5C 33.7079,79.2341 35.0413,79.5674 36.5,79.5C 38.2646,80.4614 40.2646,80.7947 42.5,80.5C 47.2318,79.8126 51.5652,78.1459 55.5,75.5C 56.8333,75.1667 56.8333,74.8333 55.5,74.5C 56.7507,72.7801 58.2507,72.4468 60,73.5C 61.487,72.7471 61.6537,71.9138 60.5,71C 61.4491,70.3828 62.2825,70.5494 63,71.5C 64.1146,69.215 65.6146,67.8816 67.5,67.5C 68.4916,67.6716 69.1583,67.3382 69.5,66.5C 71.1667,65.5 72.5,64.1667 73.5,62.5C 74.8333,61.5 76.1667,60.5 77.5,59.5 Z"/></g>
<g><path style="opacity:1" fill="#3d2611" d="M 69.5,66.5 C 69.1583,67.3382 68.4916,67.6716 67.5,67.5C 67.0618,67.5654 66.7284,67.3988 66.5,67C 67.4162,66.6258 68.2496,66.1258 69,65.5C 69.3988,65.7284 69.5654,66.0618 69.5,66.5 Z"/></g>
<g><path style="opacity:1" fill="#75551c" d="M 29.5,74.5 C 31.0618,74.7329 32.3951,75.3995 33.5,76.5C 33.5,77.1667 33.1667,77.5 32.5,77.5C 31.5,77.5 30.5,77.5 29.5,77.5C 29.5,76.5 29.5,75.5 29.5,74.5 Z"/></g>
<g><path style="opacity:1" fill="#4d2a18" d="M 38.5,78.5 C 38.8333,78.5 39.1667,78.5 39.5,78.5C 40.1667,78.5 40.5,78.8333 40.5,79.5C 41.4916,79.3284 42.1583,79.6618 42.5,80.5C 40.2646,80.7947 38.2646,80.4614 36.5,79.5C 37.1667,79.1667 37.8333,78.8333 38.5,78.5 Z"/></g>
<g><path style="opacity:1" fill="#20311e" d="M 71.5,76.5 C 72.8333,77.5 72.8333,78.5 71.5,79.5C 69.8333,80.8333 68.1667,80.8333 66.5,79.5C 67.1667,79.1667 67.8333,78.8333 68.5,78.5C 68.8333,79.8333 69.1667,79.8333 69.5,78.5C 70.1667,78.5 70.5,78.1667 70.5,77.5C 70.5,76.8333 70.8333,76.5 71.5,76.5 Z"/></g>
<g><path style="opacity:1" fill="#178f3b" d="M 76.5,78.5 C 77.5,81.5 79.5,83.5 82.5,84.5C 82.5,84.8333 82.5,85.1667 82.5,85.5C 81.1667,85.8333 81.1667,86.1667 82.5,86.5C 81.063,87.7255 79.3964,88.7255 77.5,89.5C 76.3132,88.3473 75.3132,88.3473 74.5,89.5C 71.5525,89.2229 68.7191,89.5562 66,90.5C 64.0281,88.5575 61.8615,88.2242 59.5,89.5C 58.3044,89.1543 58.3044,88.6543 59.5,88C 58.552,87.5172 57.552,87.3505 56.5,87.5C 56.1583,86.6618 55.4916,86.3284 54.5,86.5C 58.4645,84.1816 62.4645,81.8483 66.5,79.5C 68.1667,80.8333 69.8333,80.8333 71.5,79.5C 72.552,79.6495 73.552,79.4828 74.5,79C 73.3044,78.3457 73.3044,77.8457 74.5,77.5C 75.1835,77.8627 75.8501,78.1961 76.5,78.5 Z"/></g>
<g><path style="opacity:1" fill="#000000" d="M 86.5,80.5 C 87.8333,81.1667 87.8333,81.1667 86.5,80.5 Z"/></g>
<g><path style="opacity:1" fill="#000000" d="M 23.5,82.5 C 24.3382,82.8417 24.6716,83.5084 24.5,84.5C 22.8946,83.9941 22.5613,83.3274 23.5,82.5 Z"/></g>
<g><path style="opacity:1" fill="#000000" d="M 84.5,83.5 C 84.8333,83.5 85.1667,83.5 85.5,83.5C 85.3147,84.1701 84.9813,84.1701 84.5,83.5 Z"/></g>
<g><path style="opacity:1" fill="#000000" d="M 83.5,84.5 C 83.8333,84.5 84.1667,84.5 84.5,84.5C 84.3147,85.1701 83.9813,85.1701 83.5,84.5 Z"/></g>
<g><path style="opacity:1" fill="#000000" d="M 82.5,85.5 C 82.8333,85.5 83.1667,85.5 83.5,85.5C 83.3147,86.1701 82.9813,86.1701 82.5,85.5 Z"/></g>
<g><path style="opacity:1" fill="#000000" d="M 56.5,87.5 C 55.8333,88.1667 55.8333,88.1667 56.5,87.5 Z"/></g>
<g><path style="opacity:1" fill="#a65427" d="M 30.5,87.5 C 35.4725,88.1637 40.4725,88.4971 45.5,88.5C 40.0402,89.5076 34.7068,89.5076 29.5,88.5C 30.1667,88.5 30.5,88.1667 30.5,87.5 Z"/></g>
<g><path style="opacity:1" fill="#32231c" d="M 47.5,88.5 C 47.8417,87.6618 48.5084,87.3284 49.5,87.5C 50.5042,89.6773 49.8375,90.0107 47.5,88.5 Z"/></g>
<g><path style="opacity:1" fill="#000000" d="M 74.5,89.5 C 75.8333,90.1667 75.8333,90.1667 74.5,89.5 Z"/></g>
</svg>
