<?xml version="1.0" encoding="UTF-8"?>
<!DOCTYPE svg PUBLIC "-//W3C//DTD SVG 1.1//EN" "http://www.w3.org/Graphics/SVG/1.1/DTD/svg11.dtd">
<svg xmlns="http://www.w3.org/2000/svg" version="1.1" width="92px" height="104px" style="shape-rendering:geometricPrecision; text-rendering:geometricPrecision; image-rendering:optimizeQuality; fill-rule:evenodd; clip-rule:evenodd" xmlns:xlink="http://www.w3.org/1999/xlink">
<g><path style="opacity:1" fill="#000000" d="M 18.5,4.5 C 18.5,5.16667 18.1667,5.5 17.5,5.5C 16.453,4.92217 16.6197,4.2555 18,3.5C 18.3988,3.72845 18.5654,4.06178 18.5,4.5 Z"/></g>
<g><path style="opacity:1" fill="#002a80" d="M 76.5,12.5 C 76.8925,14.2838 77.5592,15.9505 78.5,17.5C 79.1667,21.5 79.8333,25.5 80.5,29.5C 79.8333,29.5 79.1667,29.5 78.5,29.5C 76.8113,28.0693 74.8113,27.2359 72.5,27C 60.5,26.3333 48.5,26.3333 36.5,27C 33.8082,37.3091 31.8082,47.8091 30.5,58.5C 28.7265,68.8079 27.0598,79.1413 25.5,89.5C 18.4562,89.4252 11.6228,89.4252 5,89.5C 4.5,89 4,88.5 3.5,88C 7.68091,60.4145 12.3476,32.9145 17.5,5.5C 18.1667,5.5 18.5,5.16667 18.5,4.5C 34.302,3.29656 49.9686,3.29656 65.5,4.5C 66.7701,5.56218 67.9367,6.56218 69,7.5C 70.016,6.36589 70.6827,6.69923 71,8.5C 71.3333,8.16667 71.6667,7.83333 72,7.5C 73.3987,10.0388 74.8987,11.7055 76.5,12.5 Z"/></g>
<g><path style="opacity:1" fill="#000505" d="M 76.5,12.5 C 78.6824,13.8233 79.3491,15.4899 78.5,17.5C 77.5592,15.9505 76.8925,14.2838 76.5,12.5 Z"/></g>
<g><path style="opacity:1" fill="#001e64" d="M 78.5,29.5 C 76.048,44.4519 67.3813,53.2852 52.5,56C 46.1667,56.3333 39.8333,56.6667 33.5,57C 32.4734,57.5133 31.4734,58.0133 30.5,58.5C 31.8082,47.8091 33.8082,37.3091 36.5,27C 48.5,26.3333 60.5,26.3333 72.5,27C 74.8113,27.2359 76.8113,28.0693 78.5,29.5 Z"/></g>
<g><path style="opacity:1" fill="#0293d5" d="M 78.5,29.5 C 79.1667,29.5 79.8333,29.5 80.5,29.5C 81.254,31.5053 82.4207,32.172 84,31.5C 87.381,38.3867 87.881,45.72 85.5,53.5C 85.1667,54.1667 84.8333,54.8333 84.5,55.5C 84.6107,56.1174 84.944,56.6174 85.5,57C 83.184,58.7068 81.8507,60.5401 81.5,62.5C 80.8333,62.5 80.5,62.8333 80.5,63.5C 79.6618,63.8417 79.3284,64.5084 79.5,65.5C 79.5,66.1667 79.1667,66.5 78.5,66.5C 77.5084,66.3284 76.8417,66.6618 76.5,67.5C 75.1667,67.8333 75.1667,68.1667 76.5,68.5C 74.8132,70.1662 72.8132,71.4995 70.5,72.5C 69.1575,71.0977 68.3242,71.4311 68,73.5C 62.9846,73.3485 57.8179,73.3485 52.5,73.5C 51.2921,74.2341 49.9587,74.5674 48.5,74.5C 48.5,76.5 48.5,78.5 48.5,80.5C 48.2686,85.2225 47.602,89.8891 46.5,94.5C 46.6082,95.4419 46.9415,96.2753 47.5,97C 46.5842,97.2784 45.9175,97.7784 45.5,98.5C 44.8333,98.5 44.5,98.8333 44.5,99.5C 37.8333,100.833 31.1667,100.833 24.5,99.5C 23.9325,96.1927 24.2658,92.8594 25.5,89.5C 27.0598,79.1413 28.7265,68.8079 30.5,58.5C 31.4734,58.0133 32.4734,57.5133 33.5,57C 39.8333,56.6667 46.1667,56.3333 52.5,56C 67.3813,53.2852 76.048,44.4519 78.5,29.5 Z"/></g>
<g><path style="opacity:1" fill="#060f14" d="M 85.5,53.5 C 86.7574,54.6226 86.4241,55.2893 84.5,55.5C 84.8333,54.8333 85.1667,54.1667 85.5,53.5 Z"/></g>
<g><path style="opacity:1" fill="#000000" d="M 81.5,62.5 C 82.8333,63.1667 82.8333,63.1667 81.5,62.5 Z"/></g>
<g><path style="opacity:1" fill="#081117" d="M 80.5,63.5 C 80.8333,63.5 81.1667,63.5 81.5,63.5C 81.1667,64.5 80.5,65.1667 79.5,65.5C 79.3284,64.5084 79.6618,63.8417 80.5,63.5 Z"/></g>
<g><path style="opacity:1" fill="#081414" d="M 78.5,66.5 C 78.1667,67.5 77.5,68.1667 76.5,68.5C 76.5,68.1667 76.5,67.8333 76.5,67.5C 76.8417,66.6618 77.5084,66.3284 78.5,66.5 Z"/></g>
<g><path style="opacity:1" fill="#1b5075" d="M 52.5,73.5 C 50.4375,75.4156 49.1042,77.749 48.5,80.5C 48.5,78.5 48.5,76.5 48.5,74.5C 49.9587,74.5674 51.2921,74.2341 52.5,73.5 Z"/></g>
<g><path style="opacity:1" fill="#000000" d="M 45.5,98.5 C 46.547,99.0778 46.3803,99.7445 45,100.5C 44.6012,100.272 44.4346,99.9382 44.5,99.5C 44.5,98.8333 44.8333,98.5 45.5,98.5 Z"/></g>
<g><path style="opacity:1" fill="#000000" d="M 24.5,99.5 C 23.8333,100.167 23.8333,100.167 24.5,99.5 Z"/></g>
</svg>
