<?xml version="1.0" encoding="UTF-8"?>
<!DOCTYPE svg PUBLIC "-//W3C//DTD SVG 1.1//EN" "http://www.w3.org/Graphics/SVG/1.1/DTD/svg11.dtd">
<svg xmlns="http://www.w3.org/2000/svg" version="1.1" width="800px" height="782px" style="shape-rendering:geometricPrecision; text-rendering:geometricPrecision; image-rendering:optimizeQuality; fill-rule:evenodd; clip-rule:evenodd" xmlns:xlink="http://www.w3.org/1999/xlink">
<g><path style="opacity:1" fill="#00c0f3" d="M 37.5,-0.5 C 264.833,-0.5 492.167,-0.5 719.5,-0.5C 739.601,5.77608 750.768,19.4427 753,40.5C 753.938,68.1978 753.605,95.8645 752,123.5C 747.565,141.601 736.398,153.101 718.5,158C 491.833,158.667 265.167,158.667 38.5,158C 20.8241,152.99 9.99076,141.49 6,123.5C 5.33333,93.8333 5.33333,64.1667 6,34.5C 10.0742,16.9314 20.5742,5.26473 37.5,-0.5 Z"/></g>
<g><path style="opacity:1" fill="#00c1f3" d="M 38.5,207.5 C 279.167,207.333 519.834,207.5 760.5,208C 776.226,212.059 786.392,221.892 791,237.5C 791.667,269.5 791.667,301.5 791,333.5C 786.027,353.142 773.527,364.308 753.5,367C 514.805,367.994 276.138,367.661 37.5,366C 20.3809,360.547 9.88091,349.047 6,331.5C 5.33333,301.833 5.33333,272.167 6,242.5C 10.2176,224.456 21.0509,212.79 38.5,207.5 Z"/></g>
<g><path style="opacity:1" fill="#00c0f3" d="M 41.5,415.5 C 266.5,415.333 491.5,415.5 716.5,416C 738.972,420.803 751.138,434.637 753,457.5C 753.167,470.167 753.333,482.833 753.5,495.5C 753.605,510.534 753.105,525.534 752,540.5C 747.688,559.813 735.854,571.313 716.5,575C 491.167,575.667 265.833,575.667 40.5,575C 21.2416,570.741 9.74157,558.908 6,539.5C 5.33333,509.5 5.33333,479.5 6,449.5C 8.26674,434.569 16.4334,424.402 30.5,419C 34.2541,417.691 37.9207,416.525 41.5,415.5 Z"/></g>
<g><path style="opacity:1" fill="#00c1f3" d="M 433.5,781.5 C 299.833,781.5 166.167,781.5 32.5,781.5C 17.9919,775.149 9.15853,764.149 6,748.5C 5.33333,718.833 5.33333,689.167 6,659.5C 10.251,638.245 23.0843,626.412 44.5,624C 170.5,623.333 296.5,623.333 422.5,624C 444.282,625.45 456.782,636.95 460,658.5C 460.667,686.167 460.667,713.833 460,741.5C 459.229,760.395 450.396,773.728 433.5,781.5 Z"/></g>
</svg>
