<?xml version="1.0" encoding="UTF-8"?>
<!DOCTYPE svg PUBLIC "-//W3C//DTD SVG 1.1//EN" "http://www.w3.org/Graphics/SVG/1.1/DTD/svg11.dtd">
<svg xmlns="http://www.w3.org/2000/svg" version="1.1" width="120px" height="120px" style="shape-rendering:geometricPrecision; text-rendering:geometricPrecision; image-rendering:optimizeQuality; fill-rule:evenodd; clip-rule:evenodd" xmlns:xlink="http://www.w3.org/1999/xlink">
<g><path style="opacity:1" fill="#f7f5f8" d="M -0.5,-0.5 C 39.5,-0.5 79.5,-0.5 119.5,-0.5C 119.5,39.5 119.5,79.5 119.5,119.5C 79.5,119.5 39.5,119.5 -0.5,119.5C -0.5,79.5 -0.5,39.5 -0.5,-0.5 Z"/></g>
<g><path style="opacity:1" fill="#5c1f9b" d="M 45.5,1.5 C 69.9852,-1.73353 90.1518,5.93314 106,24.5C 120.527,46.3468 121.194,68.6801 108,91.5C 85.0987,119.765 57.5987,125.265 25.5,108C 3.25374,90.1877 -4.24626,67.3543 3,39.5C 11.4159,20.2432 25.5826,7.5765 45.5,1.5 Z"/></g>
<g><path style="opacity:1" fill="#f3f0f6" d="M 48.5,16.5 C 51.2257,16.2639 53.559,17.0972 55.5,19C 60.9294,25.8525 66.5961,32.5191 72.5,39C 75.8333,39.3333 79.1667,39.6667 82.5,40C 85.5236,42.4746 86.1903,45.4746 84.5,49C 81.854,49.4974 79.1873,49.6641 76.5,49.5C 76.6666,65.1702 76.4999,80.8369 76,96.5C 71.8198,98.2354 68.1532,97.5688 65,94.5C 64.8265,90.4592 64.3265,86.4592 63.5,82.5C 51.8859,86.2732 43.7192,82.6065 39,71.5C 38.5003,63.8406 38.3336,56.1739 38.5,48.5C 31.0201,49.8595 28.3534,47.0262 30.5,40C 40.5,39.6667 50.5,39.3333 60.5,39C 54.0311,33.5323 47.8644,27.699 42,21.5C 41.3828,20.5509 41.5494,19.7175 42.5,19C 44.7226,18.4338 46.7226,17.6005 48.5,16.5 Z"/></g>
<g><path style="opacity:1" fill="#5b1e9b" d="M 50.5,49.5 C 55.1667,49.5 59.8333,49.5 64.5,49.5C 64.5,57.1667 64.5,64.8333 64.5,72.5C 60.1302,74.1568 55.9635,73.8235 52,71.5C 50.5714,64.2806 50.0714,56.9472 50.5,49.5 Z"/></g>
</svg>
