<?xml version="1.0" encoding="UTF-8"?>
<!DOCTYPE svg PUBLIC "-//W3C//DTD SVG 1.1//EN" "http://www.w3.org/Graphics/SVG/1.1/DTD/svg11.dtd">
<svg xmlns="http://www.w3.org/2000/svg" version="1.1" width="100px" height="120px" style="shape-rendering:geometricPrecision; text-rendering:geometricPrecision; image-rendering:optimizeQuality; fill-rule:evenodd; clip-rule:evenodd" xmlns:xlink="http://www.w3.org/1999/xlink">
<g><path style="opacity:1" fill="#2e89ee" d="M 92.5,17.5 C 91.5655,18.5676 91.2322,19.901 91.5,21.5C 88.6271,29.0521 86.6271,36.3855 85.5,43.5C 83.9557,45.8424 83.6223,48.3424 84.5,51C 83.0267,51.7096 82.3601,52.8762 82.5,54.5C 81.5655,55.5676 81.2322,56.901 81.5,58.5C 79.0346,65.2972 77.0346,72.6305 75.5,80.5C 72.7835,87.9419 70.4502,96.6086 68.5,106.5C 67.5418,108.302 66.8751,110.302 66.5,112.5C 59.9141,113.626 53.2474,113.792 46.5,113C 52.1352,95.0319 57.1352,76.8652 61.5,58.5C 62.7911,57.4583 62.7911,56.2917 61.5,55C 63.5922,54.0475 63.9255,52.7141 62.5,51C 63.756,50.5831 64.4226,49.7498 64.5,48.5C 64.5,48.1667 64.5,47.8333 64.5,47.5C 64.1667,46.1667 63.8333,46.1667 63.5,47.5C 62.8333,47.8333 62.1667,48.1667 61.5,48.5C 60.1667,48.8333 60.1667,49.1667 61.5,49.5C 61.1583,50.3382 60.4916,50.6716 59.5,50.5C 59.1667,49.1667 58.8333,49.1667 58.5,50.5C 57.1667,50.8333 57.1667,51.1667 58.5,51.5C 57.8106,52.7736 56.9772,52.7736 56,51.5C 54.2716,52.3523 54.105,53.3523 55.5,54.5C 52.6675,53.0184 51.6675,53.685 52.5,56.5C 51.8333,56.5 51.1667,56.5 50.5,56.5C 50.1667,55.1667 49.8333,55.1667 49.5,56.5C 48.8333,56.8333 48.1667,57.1667 47.5,57.5C 46.1667,57.8333 46.1667,58.1667 47.5,58.5C 46.8106,59.7736 45.9772,59.7736 45,58.5C 43.7964,59.4706 43.2964,60.4706 43.5,61.5C 42.914,61.2907 42.414,60.9574 42,60.5C 40.7964,61.4706 40.2964,62.4706 40.5,63.5C 39.3652,62.8973 38.3652,62.5639 37.5,62.5C 38.8333,61.1667 38.8333,59.8333 37.5,58.5C 39.3348,57.5723 39.6682,56.4056 38.5,55C 40.4812,54.3946 40.8146,53.3946 39.5,52C 41.3937,50.9207 41.727,49.5874 40.5,48C 42.0526,46.9032 43.386,45.5699 44.5,44C 43.6598,42.3335 44.1598,42.1669 46,43.5C 47.487,42.7471 47.6537,41.9138 46.5,41C 48.0948,41.6171 49.4281,41.2837 50.5,40C 49.6598,38.3335 50.1598,38.1669 52,39.5C 53.487,38.7471 53.6537,37.9138 52.5,37C 54.6641,36.0857 56.6641,34.919 58.5,33.5C 59.6753,34.8549 60.6753,34.6883 61.5,33C 60.6598,31.3335 61.1598,31.1669 63,32.5C 64.487,31.7471 64.6537,30.9138 63.5,30C 64.4491,29.3828 65.2825,29.5494 66,30.5C 67.1667,28 69,26.1667 71.5,25C 73.0948,25.6171 74.4281,25.2837 75.5,24C 74.6598,22.3335 75.1598,22.1669 77,23.5C 78.487,22.7471 78.6537,21.9138 77.5,21C 79.0948,21.6171 80.4281,21.2837 81.5,20C 81.1667,19.6667 80.8333,19.3333 80.5,19C 83.4326,17.7291 86.0993,16.0624 88.5,14C 89.4491,13.3828 90.2825,13.5494 91,14.5C 91.6667,13.8333 92.3333,13.1667 93,12.5C 92.9813,14.1075 92.8146,15.7741 92.5,17.5 Z"/></g>
<g><path style="opacity:1" fill="#000000" d="M 92.5,17.5 C 93.8333,18.1667 93.8333,18.1667 92.5,17.5 Z"/></g>
<g><path style="opacity:1" fill="#000000" d="M 91.5,21.5 C 92.8333,22.1667 92.8333,22.1667 91.5,21.5 Z"/></g>
<g><path style="opacity:1" fill="#000000" d="M 85.5,43.5 C 86.8333,44.1667 86.8333,44.1667 85.5,43.5 Z"/></g>
<g><path style="opacity:1" fill="#000000" d="M 63.5,47.5 C 63.8333,47.5 64.1667,47.5 64.5,47.5C 64.5,47.8333 64.5,48.1667 64.5,48.5C 63.609,49.1098 62.609,49.4431 61.5,49.5C 61.5,49.1667 61.5,48.8333 61.5,48.5C 62.1667,48.1667 62.8333,47.8333 63.5,47.5 Z"/></g>
<g><path style="opacity:1" fill="#000000" d="M 58.5,50.5 C 58.8333,50.5 59.1667,50.5 59.5,50.5C 59.3147,51.1701 58.9813,51.1701 58.5,50.5 Z"/></g>
<g><path style="opacity:1" fill="#000000" d="M 58.5,53.5 C 59.8333,54.1667 59.8333,54.1667 58.5,53.5 Z"/></g>
<g><path style="opacity:1" fill="#000000" d="M 82.5,54.5 C 83.8333,55.1667 83.8333,55.1667 82.5,54.5 Z"/></g>
<g><path style="opacity:1" fill="#000000" d="M 61.5,58.5 C 60.8333,57.1667 60.8333,57.1667 61.5,58.5 Z"/></g>
<g><path style="opacity:1" fill="#011d4d" d="M 55.5,54.5 C 56.5,55.8333 57.5,55.8333 58.5,54.5C 57.8333,57.8333 57.1667,61.1667 56.5,64.5C 54.2112,70.4986 52.5445,76.832 51.5,83.5C 50.2089,84.5417 50.2089,85.7083 51.5,87C 49.4078,87.9525 49.0745,89.2859 50.5,91C 49.0267,91.7096 48.3601,92.8762 48.5,94.5C 47.9348,99.35 46.6014,104.35 44.5,109.5C 43.596,110.209 43.2627,111.209 43.5,112.5C 30.5625,113.813 17.5625,113.813 4.5,112.5C 5.71109,111.28 5.71109,110.113 4.5,109C 6.59217,108.047 6.9255,106.714 5.5,105C 7.48123,104.395 7.81457,103.395 6.5,102C 8.36672,97.4081 10.0334,92.9081 11.5,88.5C 9.97762,86.8437 10.311,85.677 12.5,85C 12.0426,84.586 11.7093,84.086 11.5,83.5C 12.2739,82.2888 13.1072,82.2888 14,83.5C 15.2036,82.5294 15.7036,81.5294 15.5,80.5C 16.086,80.7093 16.586,81.0426 17,81.5C 18.1667,79 20,77.1667 22.5,76C 24.0948,76.6171 25.4281,76.2837 26.5,75C 25.6598,73.3335 26.1598,73.1669 28,74.5C 29.487,73.7471 29.6537,72.9138 28.5,72C 30.0948,72.6171 31.4281,72.2837 32.5,71C 31.6598,69.3335 32.1598,69.1669 34,70.5C 35.1667,68 37,66.1667 39.5,65C 41.0948,65.6171 42.4281,65.2837 43.5,64C 42.6598,62.3335 43.1598,62.1669 45,63.5C 46.487,62.7471 46.6537,61.9138 45.5,61C 47.0948,61.6171 48.4281,61.2837 49.5,60C 48.9558,59.2828 48.2891,58.7828 47.5,58.5C 47.5,58.1667 47.5,57.8333 47.5,57.5C 48.1667,57.1667 48.8333,56.8333 49.5,56.5C 49.8333,56.5 50.1667,56.5 50.5,56.5C 51.1667,57.8333 51.8333,57.8333 52.5,56.5C 53.7095,56.0679 54.7095,55.4013 55.5,54.5 Z"/></g>
<g><path style="opacity:1" fill="#000000" d="M 81.5,58.5 C 82.8333,59.1667 82.8333,59.1667 81.5,58.5 Z"/></g>
<g><path style="opacity:1" fill="#000000" d="M 56.5,64.5 C 57.8333,65.1667 57.8333,65.1667 56.5,64.5 Z"/></g>
<g><path style="opacity:1" fill="#000000" d="M 75.5,80.5 C 76.8333,81.1667 76.8333,81.1667 75.5,80.5 Z"/></g>
<g><path style="opacity:1" fill="#000000" d="M 51.5,83.5 C 52.8333,84.1667 52.8333,84.1667 51.5,83.5 Z"/></g>
<g><path style="opacity:1" fill="#000000" d="M 48.5,94.5 C 49.8333,95.1667 49.8333,95.1667 48.5,94.5 Z"/></g>
<g><path style="opacity:1" fill="#000000" d="M 68.5,106.5 C 69.8333,107.167 69.8333,107.167 68.5,106.5 Z"/></g>
<g><path style="opacity:1" fill="#000000" d="M 44.5,109.5 C 45.8333,110.167 45.8333,110.167 44.5,109.5 Z"/></g>
<g><path style="opacity:1" fill="#000000" d="M 43.5,112.5 C 44.8333,113.167 44.8333,113.167 43.5,112.5 Z"/></g>
<g><path style="opacity:1" fill="#000000" d="M 66.5,112.5 C 67.8333,113.167 67.8333,113.167 66.5,112.5 Z"/></g>
</svg>
