<?xml version="1.0" encoding="UTF-8"?>
<!DOCTYPE svg PUBLIC "-//W3C//DTD SVG 1.1//EN" "http://www.w3.org/Graphics/SVG/1.1/DTD/svg11.dtd">
<svg xmlns="http://www.w3.org/2000/svg" version="1.1" width="120px" height="120px" style="shape-rendering:geometricPrecision; text-rendering:geometricPrecision; image-rendering:optimizeQuality; fill-rule:evenodd; clip-rule:evenodd" xmlns:xlink="http://www.w3.org/1999/xlink">
<g><path style="opacity:1" fill="#5d56fa" d="M 48.5,-0.5 C 55.8333,-0.5 63.1667,-0.5 70.5,-0.5C 96.5,6.16667 112.833,22.5 119.5,48.5C 119.5,55.8333 119.5,63.1667 119.5,70.5C 112.833,96.5 96.5,112.833 70.5,119.5C 63.1667,119.5 55.8333,119.5 48.5,119.5C 22.5,112.833 6.16667,96.5 -0.5,70.5C -0.5,63.1667 -0.5,55.8333 -0.5,48.5C 6.16667,22.5 22.5,6.16667 48.5,-0.5 Z"/></g>
<g><path style="opacity:1" fill="#f7f7fa" d="M 53.5,26.5 C 61.7381,25.8463 69.7381,26.8463 77.5,29.5C 78.6632,35.1375 78.8299,40.8041 78,46.5C 71.2246,43.0156 64.0579,41.8489 56.5,43C 53.8076,45.6324 54.141,47.9658 57.5,50C 64.6547,52.0459 71.3214,55.0459 77.5,59C 86.9475,75.3144 82.6142,86.3144 64.5,92C 55.3014,93.3003 46.4681,92.1337 38,88.5C 37.1701,82.8041 37.3368,77.1375 38.5,71.5C 45.5815,76.0065 53.2482,77.5065 61.5,76C 64.1951,73.049 63.8618,70.3823 60.5,68C 54.1322,66.102 48.1322,63.4354 42.5,60C 35.8966,53.0855 34.7299,45.2521 39,36.5C 43.0118,31.7621 47.8452,28.4288 53.5,26.5 Z"/></g>
</svg>
