<svg width="20" height="21" viewBox="0 0 20 21" fill="none" xmlns="http://www.w3.org/2000/svg">
<path d="M18.9861 10.5007C19.0936 8.57116 18.5772 6.65831 17.5132 5.04506C16.4493 3.43182 14.8944 2.20387 13.0784 1.54286C11.2625 0.881858 9.28207 0.822906 7.43005 1.37473C5.57803 1.92655 3.9528 3.05983 2.7948 4.60694C1.6368 6.15404 1.00753 8.03279 1.00007 9.96526C0.992607 11.8977 1.60736 13.7813 2.75338 15.3373C3.8994 16.8933 5.51583 18.0391 7.36354 18.6052C9.21124 19.1713 11.1921 19.1276 13.0131 18.4807M10 4.99902V9.99902L13 12.999M17 13.999V16.999M17 19.999V20.009" stroke="#FF2222" stroke-width="2" stroke-linecap="round" stroke-linejoin="round"/>
</svg>
