<svg width="20" height="20" viewBox="0 0 20 20" fill="none" xmlns="http://www.w3.org/2000/svg">
<path d="M12.8 7.00016C12.6188 6.68592 12.3557 6.42686 12.0386 6.25071C11.7215 6.07456 11.3625 5.98795 11 6.00016H9C8.46957 6.00016 7.96086 6.21087 7.58579 6.58594C7.21071 6.96102 7 7.46972 7 8.00016C7 8.53059 7.21071 9.0393 7.58579 9.41437C7.96086 9.78944 8.46957 10.0002 9 10.0002H11C11.5304 10.0002 12.0391 10.2109 12.4142 10.5859C12.7893 10.961 13 11.4697 13 12.0002C13 12.5306 12.7893 13.0393 12.4142 13.4144C12.0391 13.7894 11.5304 14.0002 11 14.0002H9C8.63749 14.0124 8.27849 13.9258 7.96142 13.7496C7.64435 13.5735 7.38115 13.3144 7.2 13.0002M10 5V15M1 10C1 11.1819 1.23279 12.3522 1.68508 13.4442C2.13738 14.5361 2.80031 15.5282 3.63604 16.364C4.47177 17.1997 5.46392 17.8626 6.55585 18.3149C7.64778 18.7672 8.8181 19 10 19C11.1819 19 12.3522 18.7672 13.4442 18.3149C14.5361 17.8626 15.5282 17.1997 16.364 16.364C17.1997 15.5282 17.8626 14.5361 18.3149 13.4442C18.7672 12.3522 19 11.1819 19 10C19 8.8181 18.7672 7.64778 18.3149 6.55585C17.8626 5.46392 17.1997 4.47177 16.364 3.63604C15.5282 2.80031 14.5361 2.13738 13.4442 1.68508C12.3522 1.23279 11.1819 1 10 1C8.8181 1 7.64778 1.23279 6.55585 1.68508C5.46392 2.13738 4.47177 2.80031 3.63604 3.63604C2.80031 4.47177 2.13738 5.46392 1.68508 6.55585C1.23279 7.64778 1 8.8181 1 10Z" stroke="#4D4D4D" stroke-width="1.5" stroke-linecap="round" stroke-linejoin="round"/>
</svg>
