<svg
    width="20"
    height="20"
    viewBox="0 0 1024 1024"
    fill="none"
    xmlns="http://www.w3.org/2000/svg"
>
    <path
        d="M512 277.333
       c-58.974 0-106.667 47.693-106.667 106.667
       0 11.782-9.551 21.333-21.333 21.333
       s-21.333-9.551-21.333-21.333
       c0-82.538 66.795-149.333 149.333-149.333
       S661.333 301.463 661.333 384
       c0 75.294-55.586 137.489-128 147.823
       V640
       c0 11.78-9.553 21.333-21.333 21.333
       S490.667 651.78 490.667 640
       V512
       c0-11.78 9.553-21.333 21.333-21.333
       58.974 0 106.667-47.693 106.667-106.667
       S570.974 277.333 512 277.333
       z
       M512 783.787
       c23.565 0 42.667-19.102 42.667-42.667
       S535.565 698.453 512 698.453
       s-42.667 19.102-42.667 42.667
       19.102 42.667 42.667 42.667
       z"
        stroke="#4D4D4D"
        stroke-width="48"
        stroke-linecap="round"
        stroke-linejoin="round"
    />

    <path
        d="M512 85.333
       C276.358 85.333 85.333 276.358 85.333 512
       c0 235.639 191.025 426.667 426.667 426.667
       235.639 0 426.667-191.027 426.667-426.667
       C938.667 276.358 747.64 85.333 512 85.333
       z"
        stroke="#4D4D4D"
        stroke-width="48"
        stroke-linecap="round"
        stroke-linejoin="round"
    />
</svg>
