<svg width="19" height="19" viewBox="0 0 19 19" fill="none" xmlns="http://www.w3.org/2000/svg">
<path d="M9.5 2.75C9.5 3.34674 9.73705 3.91903 10.159 4.34099C10.581 4.76295 11.1533 5 11.75 5C12.3467 5 12.919 4.76295 13.341 4.34099C13.7629 3.91903 14 3.34674 14 2.75M9.5 2.75C9.5 2.15326 9.73705 1.58097 10.159 1.15901C10.581 0.737053 11.1533 0.5 11.75 0.5C12.3467 0.5 12.919 0.737053 13.341 1.15901C13.7629 1.58097 14 2.15326 14 2.75M9.5 2.75H0.5M14 2.75H18.5M2.75 9.5C2.75 10.0967 2.98705 10.669 3.40901 11.091C3.83097 11.5129 4.40326 11.75 5 11.75C5.59674 11.75 6.16903 11.5129 6.59099 11.091C7.01295 10.669 7.25 10.0967 7.25 9.5M2.75 9.5C2.75 8.90326 2.98705 8.33097 3.40901 7.90901C3.83097 7.48705 4.40326 7.25 5 7.25C5.59674 7.25 6.16903 7.48705 6.59099 7.90901C7.01295 8.33097 7.25 8.90326 7.25 9.5M2.75 9.5H0.5M7.25 9.5H18.5M12.875 16.25C12.875 16.8467 13.1121 17.419 13.534 17.841C13.956 18.2629 14.5283 18.5 15.125 18.5C15.7217 18.5 16.294 18.2629 16.716 17.841C17.1379 17.419 17.375 16.8467 17.375 16.25M12.875 16.25C12.875 15.6533 13.1121 15.081 13.534 14.659C13.956 14.2371 14.5283 14 15.125 14C15.7217 14 16.294 14.2371 16.716 14.659C17.1379 15.081 17.375 15.6533 17.375 16.25M12.875 16.25H0.5M17.375 16.25H18.5" stroke="black" stroke-linecap="round" stroke-linejoin="round"/>
</svg>
