<svg width="20" height="20" viewBox="0 0 20 20" fill="none" xmlns="http://www.w3.org/2000/svg">
<path d="M9.69922 5.83789V9.83789L11.6992 11.8379M0.75 8.83796C0.974091 6.63802 2.00026 4.59757 3.63273 3.10593C5.2652 1.61428 7.38969 0.775843 9.60088 0.750588C11.8121 0.725332 13.9552 1.51502 15.6213 2.96899C17.2874 4.42296 18.3599 6.43944 18.6342 8.63369C18.9085 10.8279 18.3653 13.0464 17.1084 14.8657C15.8514 16.6851 13.9686 17.978 11.8193 18.4978C9.66992 19.0176 7.40441 18.7279 5.455 17.684C3.50558 16.6401 2.00872 14.9151 1.25 12.838M0.75 17.838V12.838H5.75" stroke="#706767" stroke-width="1.5" stroke-linecap="round" stroke-linejoin="round"/>
</svg>
