<svg width="22" height="20" viewBox="0 0 22 20" fill="none" xmlns="http://www.w3.org/2000/svg">
<path d="M10.1683 1.75253C10.3116 1.60942 10.5058 1.52904 10.7083 1.52904C10.9108 1.52904 11.1051 1.60942 11.2483 1.75253L20.1026 10.6068C20.1731 10.6797 20.2575 10.7379 20.3507 10.7779C20.444 10.8179 20.5442 10.8389 20.6457 10.8398C20.7472 10.8406 20.8478 10.8212 20.9417 10.7827C21.0356 10.7443 21.1209 10.6875 21.1926 10.6157C21.2643 10.5439 21.321 10.4586 21.3594 10.3646C21.3978 10.2707 21.4171 10.1701 21.4161 10.0686C21.4152 9.96715 21.3941 9.86688 21.354 9.77367C21.3139 9.68046 21.2556 9.59616 21.1826 9.5257L12.3294 0.671474C12.1165 0.458591 11.8638 0.289722 11.5856 0.174511C11.3075 0.0592988 11.0094 0 10.7083 0C10.4073 0 10.1092 0.0592988 9.83101 0.174511C9.55287 0.289722 9.30014 0.458591 9.08726 0.671474L0.233031 9.5257C0.160078 9.59623 0.101902 9.68058 0.0618973 9.77383C0.0218923 9.86708 0.000859336 9.96737 2.57867e-05 10.0688C-0.000807763 10.1703 0.0185747 10.2709 0.0570423 10.3648C0.0955099 10.4587 0.152292 10.544 0.224076 10.6157C0.29586 10.6874 0.381208 10.7441 0.47514 10.7825C0.569072 10.8209 0.669706 10.8402 0.771172 10.8393C0.872638 10.8383 0.972902 10.8172 1.06612 10.7771C1.15933 10.737 1.24362 10.6788 1.31408 10.6057L10.1683 1.75253Z" fill="black"/>
<path d="M10.7067 3.37402L19.0199 11.6872C19.0505 11.7178 19.081 11.7463 19.1126 11.7748V18.09C19.1126 19.1445 18.2567 20.0004 17.2022 20.0004H13.7634C13.5607 20.0004 13.3664 19.9199 13.223 19.7766C13.0797 19.6333 12.9992 19.4389 12.9992 19.2362V14.6512C12.9992 14.4485 12.9187 14.2542 12.7754 14.1108C12.6321 13.9675 12.4377 13.887 12.235 13.887H9.17835C8.97568 13.887 8.78131 13.9675 8.638 14.1108C8.49469 14.2542 8.41417 14.4485 8.41417 14.6512V19.2362C8.41417 19.4389 8.33366 19.6333 8.19035 19.7766C8.04704 19.9199 7.85267 20.0004 7.65 20.0004H4.21122C3.70454 20.0004 3.21861 19.7991 2.86033 19.4409C2.50206 19.0826 2.30078 18.5967 2.30078 18.09V11.7748C2.33248 11.7465 2.3634 11.7173 2.3935 11.6872L10.7067 3.37402Z" fill="black"/>
</svg>
