<svg width="18" height="18" viewBox="2 2 12 12" fill="none" xmlns="http://www.w3.org/2000/svg"> <path fill-rule="evenodd" clip-rule="evenodd" d="M5.25 2.0625H6.75V3.5625H9.75V4.6875H9.03949C8.80858 5.90403 8.24422 7.01068 7.43909 7.92376C7.99415 8.21612 8.60152 8.41896 9.24737 8.43608L9.91822 6.1875H11.6879L14.0738 13.5H12.4557L12.0073 12.1875H9.49888L9.05045 13.5H7.43222L8.61461 9.69686C7.58289 9.61068 6.61265 9.30555 5.7475 8.82873C4.77612 9.38839 3.66191 9.6875 2.53125 9.6875H2.25V8.4375H2.53125C3.27921 8.4375 3.99056 8.27253 4.62838 7.97626C4.17447 7.53936 3.78344 7.03659 3.47625 6.4875H5.03839C5.25332 6.79696 5.50575 7.07657 5.7875 7.31693C6.41752 6.72309 6.88401 5.96185 7.11949 5.125H2.25V3.875H5.25V2.0625ZM11.4588 10.875L10.7031 8.21549L9.94739 10.875H11.4588Z" fill="#4D4D4D" /> </svg>