<svg width="18" height="20" viewBox="0 0 18 20" fill="none" xmlns="http://www.w3.org/2000/svg">
<path d="M5.75 8.74951C5.75 9.54516 6.06607 10.3082 6.62868 10.8708C7.19129 11.4334 7.95435 11.7495 8.75 11.7495C9.54565 11.7495 10.3087 11.4334 10.8713 10.8708C11.4339 10.3082 11.75 9.54516 11.75 8.74951C11.75 7.95386 11.4339 7.1908 10.8713 6.62819C10.3087 6.06558 9.54565 5.74951 8.75 5.74951C7.95435 5.74951 7.19129 6.06558 6.62868 6.62819C6.06607 7.1908 5.75 7.95386 5.75 8.74951Z" stroke="#606060" stroke-width="1.5" stroke-linecap="round" stroke-linejoin="round"/>
<path d="M14.407 14.4067L10.164 18.6497C9.78899 19.0243 9.28059 19.2348 8.7505 19.2348C8.22042 19.2348 7.71202 19.0243 7.337 18.6497L3.093 14.4067C1.97422 13.2879 1.21234 11.8624 0.903691 10.3106C0.595043 8.75873 0.753494 7.15022 1.35901 5.68844C1.96452 4.22665 2.9899 2.97725 4.30548 2.09821C5.62107 1.21918 7.16777 0.75 8.75 0.75C10.3322 0.75 11.8789 1.21918 13.1945 2.09821C14.5101 2.97725 15.5355 4.22665 16.141 5.68844C16.7465 7.15022 16.905 8.75873 16.5963 10.3106C16.2877 11.8624 15.5258 13.2879 14.407 14.4067Z" stroke="#606060" stroke-width="1.5" stroke-linecap="round" stroke-linejoin="round"/>
</svg>
