<svg width="314" height="263" viewBox="0 0 314 263" fill="none" xmlns="http://www.w3.org/2000/svg">
<path d="M18.6148 136.436C18.7554 136.857 18.8959 137.279 19.0408 137.714C18.4301 138.677 18.4301 138.677 17.5764 139.71C17.2958 140.055 17.0152 140.399 16.7261 140.754C16.5059 141.016 16.2857 141.278 16.0588 141.548C15.9182 141.266 15.7777 140.985 15.6328 140.696C17.1089 138.587 17.1089 138.587 18.6148 136.436Z" fill="#1D68DE"/>
<path d="M107.621 0.0099843C108.12 0.00668948 108.62 0.00339466 109.134 0C120.65 0.0254345 131.861 3.58048 140.875 10.7664C141.228 11.0415 141.581 11.3166 141.945 11.6001C147.388 16.1123 152.7 23.6662 153.655 30.7883C154.113 35.9044 153.787 41.0134 150.833 45.4053C150.499 45.7831 150.165 46.1609 149.821 46.5501C149.54 46.5501 149.259 46.5501 148.969 46.5501C149.167 47.1696 149.167 47.1696 149.368 47.8015C153.208 61.3778 149.537 79.3613 144.368 92.1268C143.509 94.2839 143.368 95.2284 144.043 97.4834C145.287 102.211 145.066 106.988 142.712 111.358C141.766 112.868 140.859 114.299 139.597 115.562C139.69 116.487 139.69 116.487 139.97 117.585C141.86 127.952 139.661 138.754 137.041 148.789C137.331 148.7 137.62 148.61 137.919 148.517C138.3 148.401 138.682 148.284 139.075 148.164C139.452 148.048 139.83 147.931 140.218 147.812C141.301 147.511 141.301 147.511 142.845 147.298C145.229 146.239 146.285 144.103 147.691 141.973C153.684 133.083 153.684 133.083 158.341 131.323C158.96 131.284 158.96 131.284 159.591 131.244C160.995 131.013 160.995 131.013 161.799 129.738C162.046 129.268 162.293 128.799 162.548 128.315C162.801 127.844 163.055 127.374 163.316 126.889C163.502 126.525 163.688 126.161 163.879 125.786C163.724 125.599 163.569 125.412 163.41 125.22C159.072 119.747 157.244 114.09 157.303 107.175C157.307 106.381 157.307 106.381 157.312 105.572C157.382 101.678 157.773 98.3423 159.193 94.6878C159.379 94.1842 159.564 93.6806 159.755 93.1618C161.882 87.7987 165.026 83.4978 168.991 79.3519C169.235 79.0806 169.48 78.8093 169.731 78.5298C171.752 76.3601 174.105 74.8692 176.659 73.3879C176.997 73.1897 177.334 72.9915 177.682 72.7872C183.932 69.3869 190.515 68.748 197.383 70.3926C202.858 72.0772 207.197 75.7792 210.113 80.6682C213.959 88.2896 213.586 96.9877 211.056 104.97C207.478 115.438 200.442 124.093 190.485 129.041C184.829 131.685 178.897 131.721 172.825 130.897C171.864 132.271 170.974 133.635 170.269 135.157C170.477 136.526 170.477 136.526 171.121 137.713C171.809 143.56 167.419 148.904 164.305 153.475C164.064 153.772 163.823 154.068 163.575 154.373C163.394 154.639 163.213 154.905 163.027 155.179C163.432 156.76 164.3 158.061 165.157 159.439C165.823 160.772 165.702 161.794 165.583 163.273C165.024 164.783 164.401 166.213 163.19 167.299C162.4 168.185 162.473 168.73 162.468 169.903C162.265 172.846 160.781 175.088 158.92 177.316C158.219 178.366 158.116 179.145 157.968 180.393C157.48 183.391 156.389 185.914 154.081 187.954C152.264 189.204 151.184 189.685 148.969 189.685C149.05 190.047 149.132 190.408 149.216 190.781C157.249 226.605 157.249 226.605 150.264 239.447C147.081 244.422 142.362 248.473 136.555 249.989C134.885 250.246 133.244 250.255 131.556 250.256C131.225 250.262 130.894 250.267 130.553 250.272C128.433 250.278 126.697 250.003 124.687 249.325C124.692 249.722 124.697 250.119 124.702 250.528C124.757 258.246 124.757 258.246 124.261 261.253C123.197 262.317 122.874 262.211 121.405 262.213C120.98 262.215 120.555 262.218 120.116 262.22C119.646 262.219 119.175 262.217 118.69 262.216C118.193 262.217 117.695 262.219 117.183 262.22C115.798 262.224 114.414 262.224 113.029 262.222C111.537 262.221 110.045 262.225 108.554 262.228C105.629 262.234 102.705 262.234 99.7812 262.233C97.4053 262.233 95.0294 262.233 92.6536 262.235C92.3159 262.235 91.9782 262.236 91.6304 262.236C90.9445 262.236 90.2587 262.237 89.5728 262.237C83.1352 262.242 76.6976 262.241 70.26 262.239C64.3658 262.236 58.4716 262.241 52.5774 262.249C46.5307 262.257 40.4841 262.261 34.4374 262.259C31.0405 262.259 27.6435 262.26 24.2466 262.266C21.3548 262.271 18.4629 262.271 15.5711 262.266C14.0947 262.264 12.6184 262.263 11.1421 262.268C9.54379 262.273 7.94572 262.269 6.34744 262.264C5.87769 262.267 5.40794 262.27 4.92396 262.273C4.49754 262.27 4.07112 262.267 3.63178 262.264C3.07804 262.264 3.07804 262.264 2.51311 262.264C1.36365 262.069 0.984878 261.754 0.296168 260.827C-0.190046 257.092 0.466642 253.17 0.935163 249.458C1.0573 248.48 1.17715 247.502 1.2946 246.524C1.34814 246.1 1.40168 245.675 1.45684 245.238C1.54957 244.091 1.57113 243.014 1.5518 241.867C1.53415 239.027 1.88361 236.237 2.21149 233.42C2.27755 232.836 2.34339 232.253 2.409 231.669C2.58118 230.143 2.75606 228.617 2.93166 227.091C3.21177 224.653 3.48774 222.215 3.76372 219.776C3.85938 218.934 3.95628 218.092 4.05322 217.251C4.65677 211.959 5.04016 206.799 4.9788 201.47C4.97474 200.887 4.97108 200.304 4.96779 199.721C4.95375 197.281 4.93642 194.841 4.90912 192.401C4.67668 170.881 7.08696 149.547 21.596 132.601C21.898 132.247 22.2001 131.893 22.5112 131.528C32.2007 120.462 46.8604 112.518 61.6768 111.432C62.9422 111.363 64.2066 111.321 65.4737 111.302C65.6143 110.599 65.7548 109.896 65.8997 109.172C65.417 109.155 65.417 109.155 64.9245 109.138C54.1989 108.586 41.65 106.399 33.7952 98.5084C29.3048 93.4526 28.3829 88.158 28.7421 81.642C29.4446 74.2269 34.4965 67.8902 39.4879 62.738C39.998 62.1649 40.5043 61.5883 41.0055 61.0074C41.7749 60.1175 42.5516 59.2426 43.3551 58.3832C49.504 51.7721 53.4789 44.2704 56.9804 36.0067C63.1613 21.4602 74.0963 9.65694 88.7775 3.48951C94.9553 1.01943 100.964 -0.0337829 107.621 0.0099843Z" fill="#020203"/>
<path d="M131.263 111.009C134.845 113.766 136.78 116.521 137.467 121.099C138.242 129.5 137.72 143.14 133.207 150.493C132.18 151.067 131.187 151.559 130.118 152.037C120.254 156.736 114.283 164.258 108.161 173.078C102.396 181.358 102.396 181.358 98.7128 182.212C98.419 182.262 98.1252 182.312 97.8225 182.363C95.3826 182.879 93.269 183.919 91.0332 184.999C90.0561 185.46 89.0781 185.92 88.0995 186.378C87.8343 186.503 87.5691 186.627 87.2959 186.755C83.4852 188.532 79.6291 190.209 75.7772 191.895C75.399 192.06 75.0207 192.226 74.631 192.397C69.176 194.786 63.7146 197.159 58.2315 199.483C57.5923 198.844 57.661 198.227 57.5563 197.336C57.5119 196.967 57.4676 196.598 57.4219 196.218C57.375 195.812 57.328 195.406 57.2796 194.988C57.2292 194.566 57.1788 194.145 57.1268 193.71C57.0179 192.799 56.9098 191.888 56.8023 190.977C56.521 188.595 56.2336 186.215 55.9451 183.834C55.8582 183.117 55.8582 183.117 55.7695 182.386C55.2326 177.988 54.6431 173.598 54.0248 169.21C53.9783 168.881 53.9318 168.551 53.884 168.211C53.6316 166.423 53.3768 164.635 53.1195 162.847C52.4166 162.707 51.7137 162.566 50.9895 162.421C50.8701 165.923 51.3345 169.312 51.8132 172.771C51.8984 173.402 51.9834 174.033 52.068 174.664C52.2906 176.317 52.5158 177.971 52.742 179.624C53.1028 182.263 53.4608 184.902 53.8162 187.542C53.9396 188.454 54.0651 189.365 54.1907 190.277C54.6656 193.766 55.025 197.247 55.2495 200.761C54.9967 200.862 54.7439 200.964 54.4835 201.069C53.4657 201.481 52.4542 201.906 51.4421 202.332C51.08 202.476 50.7178 202.621 50.3447 202.77C49.3697 203.186 48.4677 203.587 47.5816 204.169C47.0641 205.286 47.0641 205.286 47.1556 206.299C49.6339 206.536 51.3468 205.718 53.5405 204.705C53.915 204.536 54.2896 204.368 54.6754 204.195C55.9071 203.64 57.1358 203.079 58.3646 202.518C59.2242 202.13 60.0841 201.742 60.9442 201.355C62.2705 200.758 63.5966 200.161 64.922 199.562C69.6877 197.409 74.4794 195.316 79.273 193.226C82.7294 191.718 86.1815 190.208 89.5888 188.592C90.0623 188.368 90.5358 188.145 91.0236 187.914C91.8608 187.516 92.6954 187.112 93.5265 186.7C95.8083 185.611 97.4449 185.072 99.9792 185.425C105.993 188.544 109.502 197.258 111.721 203.343C111.828 203.632 111.935 203.921 112.045 204.218C112.745 206.261 113.016 207.974 112.759 210.133C111.899 211.263 111.899 211.263 110.709 212.236C110.495 212.416 110.281 212.595 110.06 212.78C109.405 213.326 108.739 213.859 108.073 214.393C107.725 214.689 107.377 214.986 107.018 215.291C88.4701 230.954 62.9774 248.355 37.5721 246.865C30.0947 246.186 25.1377 242.509 20.4509 236.897C11.3119 225.472 6.91956 209.132 5.40787 194.797C5.26729 194.797 5.12671 194.797 4.98187 194.797C4.59346 172.468 6.48399 150.251 21.5957 132.601C21.8978 132.247 22.1998 131.893 22.511 131.528C32.2276 120.431 46.8268 112.595 61.6558 111.411C62.9316 111.333 64.1951 111.277 65.4734 111.301C66.2199 112.048 66.0802 113.187 66.1923 114.204C67.0966 120.2 70.6034 125.238 75.3778 128.9C80.7222 132.546 85.7346 134.043 92.1248 133.933C92.5545 133.929 92.9842 133.925 93.427 133.921C94.4751 133.911 95.5231 133.897 96.5712 133.879C96.619 134.412 96.619 134.412 96.6677 134.956C97.104 138.69 97.9355 141.303 100.69 143.929C102.454 145.321 104.18 145.811 106.369 146.233C106.299 146.497 106.229 146.76 106.156 147.032C105.256 152.66 106.91 157.582 109.777 162.421C110.824 163.662 111.573 163.907 113.185 164.125C112.969 162.114 112.44 160.883 111.295 159.226C109.397 156.469 108.759 154.153 108.765 150.813C108.765 150.494 108.765 150.176 108.766 149.847C108.831 146.648 109.71 144.203 111.481 141.547C111.703 140.294 111.703 140.294 111.481 138.991C110.725 137.955 110.725 137.955 109.671 137.128C109.335 136.834 108.998 136.541 108.652 136.239C107.609 135.428 107.609 135.428 105.943 135.583C106.1 138.202 106.753 139.285 108.499 141.121C108.077 141.824 107.656 142.527 107.221 143.251C104.995 143.136 103.507 142.978 101.82 141.364C99.9575 139.15 99.2037 136.889 99.3368 133.991C99.6223 132.719 100.248 132.049 101.325 131.332C101.584 131.188 101.843 131.045 102.109 130.897C102.517 130.663 102.517 130.663 102.933 130.423C105.738 128.919 108.515 128.249 111.694 128.048C112.226 128.012 112.757 127.975 113.305 127.937C114.881 127.915 116.317 128.095 117.871 128.341C119.012 128.387 120.136 128.361 121.279 128.341C121.42 127.638 121.56 126.936 121.705 126.211C115.416 124.83 109.601 124.778 103.539 126.982C102.342 127.407 101.228 127.708 99.9792 127.915C99.532 126.574 99.51 125.62 99.5265 124.215C99.5304 123.791 99.5342 123.368 99.5382 122.932C99.5456 122.446 99.5456 122.446 99.5532 121.951C116.363 116.144 116.363 116.144 123.409 118.117C124.403 118.134 125.397 118.137 126.391 118.117C126.25 117.415 126.11 116.712 125.965 115.987C123.387 115.326 120.958 114.97 118.297 114.976C117.777 114.976 117.777 114.976 117.246 114.977C112.831 115.061 108.696 116.165 104.532 117.585C102.961 118.117 102.961 118.117 101.257 118.117C102.323 114.259 105.342 111.613 108.449 109.238C114.832 105.752 125.383 107.175 131.263 111.009Z" fill="#006BD5"/>
<path d="M203.114 136.571C203.896 136.572 204.677 136.572 205.458 136.57C207.57 136.569 209.682 136.584 211.794 136.602C214.005 136.618 216.215 136.62 218.426 136.623C222.608 136.631 226.79 136.652 230.972 136.677C235.735 136.706 240.497 136.72 245.26 136.733C255.054 136.759 264.847 136.804 274.641 136.861C274.635 137.322 274.629 137.782 274.623 138.256C274.619 138.87 274.614 139.484 274.609 140.098C274.603 140.551 274.603 140.551 274.597 141.013C274.565 146.762 276.619 151.4 280.51 155.575C284.219 159.03 288.981 160.677 293.977 160.975C294.507 161.008 295.036 161.041 295.582 161.075C295.982 161.098 296.381 161.12 296.793 161.143C294.496 173.596 292.03 186.016 289.519 198.427C289.387 199.081 289.255 199.735 289.122 200.389C289.021 200.888 289.021 200.888 288.918 201.397C288.377 204.073 287.841 206.75 287.306 209.426C286.541 213.248 285.77 217.068 284.993 220.887C284.567 222.982 284.144 225.077 283.727 227.173C283.332 229.156 282.93 231.138 282.523 233.118C282.373 233.852 282.226 234.586 282.082 235.321C281.882 236.334 281.674 237.345 281.463 238.355C281.407 238.648 281.352 238.94 281.295 239.241C280.766 241.699 279.649 243.786 277.581 245.288C277.305 245.407 277.029 245.527 276.744 245.65C276.467 245.777 276.19 245.903 275.904 246.033C274.436 246.576 273.122 246.822 271.557 246.825C271.198 246.826 270.838 246.828 270.468 246.83C270.075 246.829 269.682 246.829 269.278 246.828C268.859 246.83 268.44 246.831 268.008 246.832C266.601 246.836 265.193 246.837 263.786 246.837C262.778 246.839 261.771 246.841 260.763 246.844C258.023 246.849 255.283 246.852 252.543 246.854C250.832 246.855 249.122 246.857 247.411 246.859C242.673 246.864 237.935 246.868 233.198 246.87C232.895 246.87 232.592 246.87 232.279 246.87C231.824 246.87 231.824 246.87 231.359 246.87C230.743 246.871 230.127 246.871 229.512 246.871C229.206 246.871 228.901 246.871 228.586 246.871C223.636 246.873 218.687 246.88 213.737 246.89C208.654 246.9 203.572 246.906 198.489 246.906C195.636 246.907 192.783 246.909 189.929 246.917C187.246 246.924 184.563 246.925 181.88 246.921C180.894 246.921 179.909 246.922 178.923 246.927C177.579 246.932 176.235 246.93 174.891 246.925C174.5 246.929 174.11 246.932 173.707 246.936C171.157 246.916 169.443 246.454 167.352 244.905C166.13 243.171 166.734 240.389 167.034 238.4C167.269 237.24 167.538 236.093 167.821 234.944C167.924 234.506 168.027 234.069 168.133 233.618C168.477 232.16 168.829 230.705 169.18 229.249C169.43 228.199 169.679 227.148 169.927 226.096C170.394 224.119 170.863 222.142 171.334 220.165C172.283 216.184 173.216 212.2 174.142 208.214C174.216 207.899 174.289 207.584 174.364 207.259C174.664 205.972 174.963 204.685 175.262 203.398C175.794 201.109 176.327 198.819 176.86 196.53C178.339 190.186 179.815 183.84 181.284 177.493C181.515 176.495 181.746 175.496 181.977 174.497C182.857 170.696 182.857 170.696 183.736 166.895C184.512 163.536 185.293 160.178 186.079 156.821C186.407 155.408 186.728 153.995 187.047 152.58C187.241 151.723 187.437 150.867 187.635 150.011C187.88 148.951 188.12 147.891 188.354 146.829C189.307 142.756 190.5 139.719 194.122 137.397C196.937 136.223 200.114 136.532 203.114 136.571Z" fill="#FBFBFB"/>
<path d="M134.488 27.3799C141.821 33.1857 146.072 42.5497 147.164 51.7422C148.546 67.7206 146.315 87.5443 136.059 100.545C132.057 105.197 132.057 105.197 129.802 106.615C128.699 106.529 128.699 106.529 127.672 106.189C121.628 104.365 114.513 104.059 108.502 106.189C107.787 106.633 107.076 107.086 106.372 107.547C105.345 108.103 105.345 108.103 104.242 108.319C102.15 107.529 100.46 106.262 98.704 104.911C97.844 104.271 96.9832 103.632 96.1214 102.994C95.7563 102.709 95.3911 102.423 95.0148 102.129C93.9737 101.352 93.9737 101.352 92.3141 101.503C92.3615 103.115 92.7444 103.638 93.8849 104.805C95.703 106.268 97.694 107.492 99.6786 108.715C101.642 109.936 101.642 109.936 102.112 110.875C101.622 111.747 101.09 112.595 100.541 113.431C98.1667 117.171 96.3682 120.804 96.5741 125.359C96.8416 126.407 97.1691 127.361 97.5991 128.353C97.9019 129.359 97.7597 129.916 97.426 130.897C91.2342 132.408 85.0225 131.27 79.4809 128.314C74.502 125.226 71.4749 121.217 69.1505 115.934C68.5686 113.257 68.6895 110.871 69.7363 108.319C70.0174 108.319 70.2986 108.319 70.5882 108.319C70.6915 108.105 70.7947 107.891 70.9011 107.67C71.3384 106.815 71.8016 105.972 72.2723 105.134C75.7096 98.9763 77.6764 92.7057 79.2958 85.8624C79.9207 83.2249 79.9207 83.2249 80.3862 82.7595C80.4035 82.0497 80.4044 81.3392 80.3862 80.6295C80.0347 80.5153 79.6833 80.401 79.3212 80.2834C78.8292 80.1164 78.3371 79.9495 77.8302 79.7775C77.5534 79.6847 77.2767 79.5919 76.9915 79.4963C73.3489 78.2144 70.6959 76.2427 68.7711 72.8684C67.2832 69.6411 67.0159 66.2327 67.9324 62.7909C68.9228 60.1499 70.0681 58.0858 72.5585 56.6405C75.4108 55.3464 78.084 55.5969 80.9719 56.6672C82.4768 57.3344 83.6518 57.9738 84.6461 59.3296C84.6461 59.6108 84.6461 59.892 84.6461 60.1816C85.583 60.4338 85.583 60.4338 86.7761 60.1816C89.7732 58.1303 92.2829 54.11 93.4938 50.7532C93.8661 49.7816 94.201 49.0533 94.8701 48.2537C96.2883 47.6907 97.6965 47.6259 99.2099 47.5349C100.061 47.4503 100.911 47.3615 101.761 47.2686C102.182 47.2236 102.603 47.1786 103.037 47.1322C114.738 45.6137 126.316 37.6364 133.636 28.6579C133.917 28.2361 134.198 27.8144 134.488 27.3799Z" fill="#FBFBFB"/>
<path d="M234.171 158.161C234.532 158.216 234.893 158.271 235.266 158.327C236.48 158.518 237.691 158.718 238.903 158.922C239.357 158.997 239.81 159.072 240.278 159.15C241.757 159.396 243.235 159.643 244.714 159.892C245.219 159.976 245.724 160.061 246.244 160.148C249.888 160.76 253.532 161.376 257.174 161.995C257.662 162.078 258.149 162.16 258.651 162.245C261.365 162.705 264.078 163.17 266.79 163.642C267.617 163.786 268.444 163.928 269.271 164.069C270.418 164.264 271.564 164.465 272.71 164.668C273.043 164.723 273.376 164.779 273.719 164.837C276.026 165.252 278.048 165.828 279.752 167.533C280.159 171.251 279.535 175.065 279.052 178.749C278.978 179.328 278.905 179.908 278.832 180.487C278.64 182.005 278.444 183.522 278.247 185.039C278.052 186.548 277.86 188.058 277.668 189.568C277.443 191.339 277.217 193.11 276.987 194.88C276.639 197.57 276.299 200.26 275.993 202.955C275.911 203.656 275.911 203.656 275.828 204.372C275.729 205.229 275.633 206.087 275.542 206.946C275.276 209.223 274.943 211.114 273.788 213.115C272.729 213.899 272.729 213.899 271.384 214.509C271.129 214.627 270.874 214.745 270.612 214.867C269.688 215.29 268.757 215.694 267.824 216.097C267.447 216.262 267.071 216.427 266.682 216.598C263.567 217.963 260.439 219.295 257.308 220.623C255.907 221.218 254.506 221.815 253.106 222.411C252.241 222.78 251.376 223.147 250.511 223.514C250.113 223.683 249.714 223.852 249.304 224.027C248.915 224.191 248.526 224.356 248.125 224.525C247.318 224.881 246.52 225.255 245.729 225.644C241.791 227.572 239.024 227.308 234.803 226.454C234.414 226.378 234.025 226.302 233.624 226.224C232.786 226.06 231.949 225.895 231.112 225.729C228.875 225.284 226.635 224.849 224.396 224.414C223.937 224.324 223.477 224.234 223.004 224.142C217.805 223.131 212.592 222.192 207.377 221.265C195.332 219.123 195.332 219.123 193.142 217.801C191.092 214.156 192.775 208.133 193.247 204.104C193.332 203.359 193.417 202.614 193.501 201.868C193.724 199.917 193.949 197.966 194.175 196.015C194.536 192.895 194.893 189.774 195.25 186.654C195.374 185.573 195.499 184.492 195.624 183.412C195.663 183.074 195.702 182.735 195.742 182.387C195.817 181.733 195.893 181.08 195.97 180.426C196.183 178.567 196.319 176.717 196.418 174.847C196.54 173.437 196.675 172.662 197.304 171.374C198.902 170.107 200.621 169.433 202.514 168.701C202.924 168.537 203.334 168.373 203.756 168.204C205.088 167.672 206.423 167.15 207.759 166.628C208.673 166.266 209.587 165.905 210.5 165.542C212.307 164.827 214.115 164.115 215.923 163.405C218.042 162.57 220.15 161.709 222.253 160.834C222.799 160.609 223.345 160.384 223.892 160.16C224.855 159.763 225.816 159.362 226.774 158.953C227.197 158.782 227.621 158.61 228.057 158.434C228.409 158.287 228.761 158.14 229.124 157.988C230.874 157.623 232.417 157.888 234.171 158.161Z" fill="#060606"/>
<path d="M111.909 214.393C112.523 215.62 112.325 216.641 112.282 218.014C112.18 226.88 112.883 237.321 118.629 244.52C120.396 246.328 122.429 247.768 124.689 248.898C124.795 258.07 124.795 258.07 124.263 261.252C123.199 262.316 122.876 262.211 121.407 262.213C120.982 262.215 120.557 262.218 120.119 262.22C119.648 262.219 119.177 262.217 118.692 262.215C117.946 262.218 117.946 262.218 117.185 262.22C115.8 262.224 114.416 262.224 113.031 262.222C111.539 262.221 110.047 262.225 108.556 262.228C105.632 262.233 102.707 262.234 99.7833 262.233C97.4074 262.232 95.0315 262.233 92.6556 262.235C92.1492 262.235 92.1492 262.235 91.6325 262.236C90.9466 262.236 90.2607 262.237 89.5749 262.237C83.1373 262.242 76.6997 262.241 70.262 262.238C64.3679 262.236 58.4737 262.241 52.5795 262.249C46.5328 262.257 40.4862 262.261 34.4395 262.259C31.0425 262.258 27.6456 262.259 24.2487 262.265C21.3568 262.27 18.465 262.271 15.5732 262.266C14.0968 262.263 12.6205 262.263 11.1442 262.268C9.54588 262.272 7.9478 262.269 6.34953 262.264C5.6449 262.268 5.6449 262.268 4.92604 262.273C4.49963 262.27 4.0732 262.267 3.63386 262.264C3.08013 262.264 3.08012 262.264 2.5152 262.264C1.36897 262.069 0.992068 261.744 0.298256 260.826C-0.588117 255.803 0.699757 249.601 1.57625 244.638C2.38594 243.829 3.79156 243.994 4.87606 243.891C5.16793 243.863 5.45979 243.836 5.76051 243.807C6.38177 243.748 7.00312 243.691 7.62455 243.634C8.5616 243.548 9.4982 243.458 10.4348 243.368C12.1667 243.204 13.8993 243.064 15.6341 242.934C16.0528 242.901 16.4715 242.868 16.9029 242.834C19.5285 242.715 21.1639 243.36 23.382 244.718C33.399 250.438 44.3786 250.51 55.3536 247.528C76.7551 241.461 95.29 228.865 111.909 214.393Z" fill="#006BD5"/>
<path d="M307.124 125.708C310.891 129.252 313.458 134.011 313.978 139.185C314.135 145.359 312.46 150.869 308.239 155.499C307.274 156.436 306.482 156.932 305.244 157.491C302.502 158.758 302.502 158.758 300.693 161.058C300.42 162.037 300.227 163.01 300.049 164.011C299.876 164.862 299.703 165.714 299.53 166.565C299.435 167.051 299.341 167.536 299.243 168.037C298.884 169.849 298.501 171.654 298.113 173.46C297.477 176.423 296.847 179.386 296.223 182.35C295.614 185.241 295.004 188.131 294.392 191.02C292.566 199.646 290.761 208.274 289.024 216.918C288.777 218.143 288.529 219.369 288.281 220.594C288.201 220.99 288.121 221.387 288.038 221.795C287.878 222.584 287.718 223.373 287.558 224.162C287.095 226.447 286.64 228.734 286.191 231.023C285.911 232.44 285.624 233.857 285.334 235.273C285.203 235.924 285.075 236.575 284.95 237.228C284.116 241.568 283.163 245.395 279.351 248.02C276.458 249.734 273.565 249.876 270.292 249.868C269.861 249.87 269.429 249.872 268.984 249.875C267.542 249.881 266.099 249.881 264.656 249.882C263.62 249.885 262.585 249.888 261.549 249.892C258.738 249.902 255.926 249.905 253.115 249.908C251.359 249.909 249.603 249.912 247.846 249.915C242.979 249.923 238.113 249.93 233.246 249.931C232.78 249.931 232.78 249.932 232.304 249.932C231.673 249.932 231.043 249.932 230.412 249.932C230.099 249.932 229.786 249.932 229.464 249.932C229.15 249.932 228.837 249.932 228.514 249.933C223.434 249.934 218.354 249.946 213.274 249.962C208.054 249.978 202.834 249.986 197.613 249.986C194.684 249.986 191.755 249.99 188.826 250.002C186.072 250.014 183.318 250.014 180.563 250.008C179.553 250.007 178.542 250.01 177.532 250.016C176.152 250.025 174.772 250.021 173.392 250.013C172.793 250.021 172.793 250.021 172.183 250.03C169.47 249.995 167.691 249.345 165.583 247.621C163.624 245.511 163.354 243.902 163.385 241.119C163.494 239.262 163.892 237.511 164.329 235.708C164.421 235.311 164.513 234.914 164.608 234.505C164.911 233.205 165.221 231.906 165.53 230.608C165.748 229.68 165.965 228.751 166.182 227.823C166.623 225.935 167.067 224.047 167.513 222.159C168.053 219.874 168.586 217.587 169.115 215.299C170.734 208.29 172.375 201.287 174.019 194.284C174.273 193.198 174.528 192.113 174.783 191.027C175.576 187.648 176.369 184.269 177.164 180.891C178.789 173.987 180.411 167.083 181.976 160.166C182.169 159.313 182.363 158.46 182.557 157.608C183.14 155.05 183.718 152.491 184.286 149.929C184.489 149.035 184.693 148.141 184.896 147.247C185.023 146.662 185.023 146.662 185.152 146.065C186.022 142.302 187.557 137.99 190.874 135.757C193.529 134.125 195.412 133.391 198.537 133.389C198.859 133.388 199.181 133.386 199.512 133.384C200.593 133.378 201.675 133.376 202.756 133.373C203.53 133.37 204.303 133.366 205.077 133.363C206.745 133.355 208.413 133.348 210.081 133.343C212.718 133.334 215.354 133.323 217.991 133.31C223.588 133.285 229.184 133.263 234.781 133.241C240.822 133.217 246.862 133.193 252.902 133.165C255.524 133.153 258.146 133.143 260.768 133.135C262.398 133.129 264.028 133.122 265.658 133.114C266.415 133.11 267.172 133.108 267.929 133.106C268.961 133.103 269.993 133.098 271.024 133.092C271.476 133.092 271.476 133.092 271.936 133.092C273.966 133.088 273.966 133.088 275.917 132.602C276.56 131.736 276.56 131.736 277.088 130.658C279.775 125.978 283.906 122.936 289.096 121.34C295.549 120.114 302.004 121.588 307.124 125.708ZM190.899 140.204C189.114 142.598 188.613 145.574 187.965 148.429C187.833 148.987 187.701 149.545 187.569 150.103C187.212 151.61 186.864 153.12 186.517 154.63C186.144 156.243 185.765 157.855 185.386 159.468C184.605 162.799 183.832 166.133 183.062 169.467C182.654 171.235 182.244 173.003 181.834 174.77C180.829 179.1 179.825 183.429 178.833 187.762C178.568 188.917 178.304 190.072 178.039 191.226C177.972 191.52 177.904 191.814 177.835 192.116C176.707 197.033 175.557 201.945 174.402 206.856C173.639 210.096 172.88 213.338 172.121 216.579C171.584 218.874 171.045 221.168 170.501 223.462C169.987 225.63 169.478 227.798 168.973 229.968C168.785 230.772 168.595 231.576 168.403 232.38C166.786 238.239 166.786 238.239 166.861 244.213C167.859 245.607 169.076 246.229 170.695 246.769C171.278 246.808 171.862 246.824 172.445 246.825C172.982 246.828 172.982 246.828 173.53 246.83C173.923 246.83 174.316 246.829 174.721 246.829C175.347 246.831 175.347 246.831 175.986 246.833C177.392 246.836 178.798 246.837 180.204 246.838C181.209 246.84 182.215 246.842 183.22 246.844C186.242 246.85 189.264 246.853 192.287 246.855C193.71 246.856 195.134 246.858 196.558 246.859C201.292 246.864 206.026 246.869 210.759 246.87C211.214 246.87 211.214 246.87 211.678 246.871C212.133 246.871 212.133 246.871 212.598 246.871C213.214 246.871 213.829 246.871 214.445 246.871C214.75 246.871 215.055 246.872 215.37 246.872C220.313 246.873 225.257 246.881 230.2 246.891C235.277 246.901 240.354 246.906 245.432 246.907C248.281 246.907 251.131 246.91 253.981 246.917C256.663 246.924 259.345 246.925 262.027 246.921C263.01 246.921 263.994 246.923 264.977 246.927C266.322 246.933 267.666 246.93 269.011 246.926C269.398 246.929 269.785 246.932 270.185 246.936C273.601 246.91 276.831 246.28 279.325 243.787C280.328 242.305 280.835 241.032 281.188 239.283C281.286 238.812 281.383 238.342 281.483 237.857C281.584 237.347 281.685 236.837 281.789 236.312C281.899 235.777 282.008 235.241 282.121 234.69C282.418 233.234 282.711 231.778 283.002 230.321C283.311 228.784 283.624 227.247 283.937 225.711C284.441 223.229 284.943 220.748 285.444 218.265C286.031 215.354 286.626 212.444 287.227 209.536C289.421 198.902 291.537 188.253 293.64 177.601C293.788 176.853 293.936 176.105 294.083 175.358C294.505 173.223 294.926 171.087 295.347 168.952C295.477 168.293 295.607 167.634 295.737 166.975C295.915 166.07 296.094 165.164 296.272 164.259C296.372 163.748 296.473 163.236 296.577 162.71C296.804 161.693 296.804 161.693 296.79 161.144C296.419 161.133 296.048 161.122 295.666 161.11C289.356 160.81 283.861 159.101 279.404 154.461C275.793 150.211 274.577 145.604 274.62 140.142C274.622 139.826 274.623 139.51 274.624 139.185C274.628 138.41 274.633 137.636 274.639 136.862C264.374 136.802 254.109 136.757 243.844 136.729C239.078 136.716 234.312 136.698 229.545 136.669C225.391 136.644 221.236 136.627 217.081 136.621C214.881 136.618 212.682 136.61 210.483 136.592C208.411 136.574 206.339 136.569 204.268 136.573C203.509 136.572 202.75 136.567 201.991 136.557C197.53 136.502 193.988 136.58 190.899 140.204Z" fill="#020203"/>
<path d="M200.092 174.35C206.503 175.231 212.882 176.25 219.262 177.332C218.981 180.846 218.7 184.361 218.41 187.982C221.664 188.746 221.664 188.746 224.8 188.833C225.275 187.884 225.341 187.212 225.439 186.158C225.474 185.799 225.509 185.441 225.546 185.071C225.581 184.696 225.616 184.321 225.652 183.935C225.721 183.193 225.792 182.452 225.865 181.711C225.896 181.382 225.927 181.053 225.958 180.714C226.078 179.888 226.078 179.888 226.504 179.036C230.18 179.267 233.787 179.76 237.415 180.38C238.285 180.529 239.157 180.674 240.028 180.818C244.282 181.535 244.282 181.535 245.248 182.018C245.021 186.682 244.569 191.283 243.977 195.914C243.734 197.812 243.498 199.711 243.263 201.61C243.215 201.997 243.167 202.384 243.117 202.782C242.527 207.579 242.021 212.386 241.523 217.193C241.473 217.668 241.473 217.668 241.423 218.152C241.334 219 241.246 219.849 241.159 220.698C241.026 221.761 240.858 222.739 240.562 223.765C238.197 223.824 236.023 223.639 233.701 223.17C233.37 223.105 233.038 223.041 232.697 222.975C231.599 222.762 230.503 222.545 229.406 222.327C228.226 222.097 227.047 221.868 225.867 221.639C225.025 221.476 224.184 221.312 223.343 221.148C219.933 220.484 216.52 219.838 213.105 219.197C212.591 219.101 212.077 219.005 211.548 218.905C209.502 218.522 207.456 218.138 205.41 217.756C203.98 217.488 202.549 217.22 201.119 216.951C200.473 216.831 200.473 216.831 199.814 216.708C199.42 216.634 199.025 216.559 198.618 216.483C198.274 216.418 197.929 216.354 197.575 216.287C196.684 216.097 196.684 216.097 195.406 215.671C195.661 210.743 196.125 205.866 196.698 200.966C196.782 200.234 196.866 199.502 196.951 198.77C197.126 197.251 197.302 195.733 197.479 194.215C197.706 192.269 197.93 190.323 198.154 188.376C198.327 186.872 198.501 185.367 198.676 183.863C198.759 183.145 198.842 182.426 198.924 181.708C199.039 180.71 199.156 179.712 199.273 178.715C199.306 178.419 199.34 178.124 199.375 177.82C199.52 176.598 199.702 175.521 200.092 174.35Z" fill="#FBFBFB"/>
<path d="M141.301 150.493C141.301 152.993 139.732 155.691 138.319 157.735C137.132 158.819 135.933 159.601 134.485 160.291C134.696 161.135 134.696 161.135 134.911 161.995C136.787 161.729 138.321 160.995 139.996 160.158C145.981 157.3 152.39 155.431 158.9 157.655C160.249 158.195 161.29 158.69 162.175 159.865C162.359 160.769 162.359 160.769 162.361 161.755C162.369 162.08 162.378 162.405 162.386 162.739C162.075 164.15 161.666 164.578 160.471 165.403C159.113 165.697 157.755 165.758 156.37 165.829C152.076 166.135 148.026 166.91 143.857 167.959C143.716 168.662 143.576 169.365 143.431 170.089C146.076 170.313 148.372 169.977 150.912 169.237C153.33 168.538 155.394 168.133 157.915 168.385C158.336 168.666 158.758 168.947 159.193 169.237C159.061 172.39 157.546 174.292 155.359 176.479C154.332 176.638 153.329 176.757 152.297 176.852C146.352 177.342 146.352 177.342 141.301 179.887C141.437 180.785 141.437 180.785 141.727 181.591C142.272 181.468 142.816 181.345 143.378 181.218C143.728 181.141 144.079 181.064 144.441 180.985C145.166 180.826 145.891 180.662 146.614 180.493C149.136 179.933 151.501 179.788 154.081 179.887C154.534 181.287 154.543 181.919 154.028 183.322C152.209 186.17 149.93 186.695 146.839 187.555C144.125 188.394 142.573 189.958 140.512 191.886C136.514 195.548 132.437 198.256 127.243 199.909C122.978 201.346 119.072 202.942 115.315 205.447C115.227 205.218 115.138 204.99 115.047 204.755C114.578 203.561 114.096 202.374 113.611 201.187C113.506 200.929 113.401 200.671 113.293 200.405C110.692 194.079 107.481 188.123 102.535 183.295C102.737 183.134 102.938 182.973 103.146 182.807C106.475 180.036 109.065 176.768 111.428 173.151C118.836 161.827 128.318 154.373 141.301 150.493Z" fill="#FAFAFB"/>
<path d="M199.239 77.2216C203.292 80.0725 205.358 83.5198 206.481 88.2976C207.422 97.9968 204.627 107.231 198.529 114.836C193.621 120.525 187.972 125.142 180.251 125.943C175.986 126.096 172.867 125.259 169.526 122.59C165.556 118.817 164.326 113.861 164.121 108.586C164.123 98.6731 169.078 89.6529 175.756 82.6265C181.887 76.7407 191.176 72.7301 199.239 77.2216Z" fill="#FBFBFB"/>
<path d="M145.134 191.389C145.556 191.529 145.978 191.67 146.412 191.815C146.811 193.018 146.811 193.018 147.144 194.632C147.205 194.921 147.266 195.209 147.329 195.506C147.527 196.449 147.715 197.393 147.903 198.338C148.036 198.983 148.168 199.628 148.301 200.274C149.255 204.957 150.07 209.65 150.672 214.392C150.75 214.947 150.827 215.501 150.907 216.072C151.93 224.427 151.057 233.288 146.001 240.254C143.36 243.44 139.644 246.326 135.473 247.103C131.446 247.476 127.771 247.709 124.26 245.49C123.964 245.31 123.667 245.129 123.362 244.943C118.636 241.754 116.971 236.49 115.914 231.112C115.248 227.432 115.235 223.756 115.236 220.03C115.235 219.053 115.227 218.075 115.219 217.097C115.218 216.466 115.217 215.834 115.216 215.203C115.213 214.916 115.21 214.628 115.207 214.333C115.218 212.071 115.357 209.425 116.83 207.611C120.143 205.373 123.615 203.947 127.393 202.684C133.591 200.602 138.211 197.519 143.064 193.118C143.731 192.514 144.429 191.947 145.134 191.389Z" fill="#006BD5"/>
<path d="M131.266 111.009C134.847 113.766 136.783 116.521 137.469 121.099C138.244 129.5 137.722 143.14 133.209 150.493C132.183 151.067 131.189 151.559 130.121 152.037C123.417 155.231 117.22 159.918 113.187 166.255C112.555 165.412 112.555 165.412 111.909 164.551C112.331 164.411 112.753 164.27 113.187 164.125C112.971 162.114 112.442 160.883 111.297 159.226C109.399 156.469 108.761 154.153 108.768 150.813C108.768 150.335 108.768 150.335 108.768 149.847C108.834 146.648 109.713 144.203 111.483 141.547C111.705 140.294 111.705 140.294 111.483 138.991C110.727 137.955 110.727 137.955 109.673 137.128C109.337 136.834 109.001 136.541 108.654 136.239C107.612 135.428 107.612 135.428 105.945 135.583C106.103 138.202 106.755 139.285 108.501 141.121C108.08 141.824 107.658 142.527 107.223 143.251C104.997 143.136 103.51 142.978 101.822 141.364C99.9598 139.15 99.206 136.889 99.3391 133.991C99.6246 132.719 100.25 132.049 101.328 131.332C101.586 131.188 101.845 131.045 102.111 130.897C102.383 130.741 102.655 130.584 102.935 130.423C105.741 128.919 108.517 128.249 111.696 128.048C112.228 128.012 112.759 127.975 113.307 127.937C114.883 127.915 116.319 128.095 117.873 128.341C119.015 128.387 120.138 128.361 121.281 128.341C121.422 127.638 121.562 126.936 121.707 126.211C115.418 124.83 109.603 124.778 103.541 126.982C102.344 127.407 101.231 127.708 99.9814 127.915C99.5342 126.574 99.5123 125.62 99.5288 124.215C99.5327 123.791 99.5365 123.368 99.5405 122.932C99.5454 122.608 99.5504 122.285 99.5554 121.951C116.365 116.144 116.365 116.144 123.411 118.117C124.405 118.134 125.399 118.137 126.393 118.117C126.253 117.415 126.112 116.712 125.967 115.987C123.39 115.326 120.96 114.97 118.299 114.976C117.952 114.976 117.605 114.976 117.248 114.977C112.833 115.061 108.698 116.165 104.534 117.585C102.963 118.117 102.963 118.117 101.259 118.117C102.325 114.259 105.345 111.613 108.451 109.238C114.834 105.752 125.385 107.175 131.266 111.009Z" fill="#FBFBFB"/>
<path d="M276.345 170.941C276.046 176.489 275.354 181.989 274.694 187.502C274.583 188.435 274.473 189.368 274.363 190.301C274.089 192.613 273.81 194.924 273.53 197.235C273.358 198.666 273.191 200.098 273.024 201.53C272.914 202.455 272.804 203.381 272.694 204.306C272.621 204.946 272.621 204.946 272.546 205.599C272.474 206.194 272.474 206.194 272.4 206.802C272.36 207.148 272.319 207.495 272.277 207.851C272.059 208.988 271.738 209.943 271.233 210.985C270.116 211.689 270.116 211.689 268.632 212.331C268.355 212.453 268.078 212.575 267.793 212.701C266.813 213.13 265.828 213.548 264.843 213.967C264.047 214.312 263.251 214.658 262.455 215.004C260.258 215.956 258.057 216.896 255.853 217.832C254.468 218.421 253.084 219.012 251.701 219.604C250.82 219.979 249.94 220.354 249.059 220.728C248.646 220.905 248.232 221.082 247.806 221.265C247.426 221.425 247.046 221.586 246.654 221.752C246.319 221.895 245.985 222.037 245.64 222.184C244.821 222.487 244.821 222.487 243.969 222.487C244.508 215.085 245.267 207.715 246.173 200.35C246.424 198.287 246.637 196.222 246.827 194.152C246.961 192.744 247.114 191.338 247.27 189.932C247.34 189.259 247.403 188.586 247.456 187.912C247.532 186.97 247.637 186.036 247.749 185.097C247.801 184.563 247.853 184.029 247.906 183.479C249.134 181.083 251.36 180.463 253.767 179.461C254.186 179.281 254.606 179.1 255.038 178.914C256.313 178.376 257.595 177.859 258.88 177.348C259.343 177.163 259.805 176.977 260.282 176.786C261.248 176.399 262.215 176.013 263.182 175.628C264.667 175.037 266.15 174.441 267.632 173.845C268.575 173.468 269.519 173.092 270.462 172.715C270.905 172.537 271.349 172.359 271.805 172.175C272.42 171.931 272.42 171.931 273.047 171.683C273.587 171.467 273.587 171.467 274.139 171.248C275.067 170.941 275.067 170.941 276.345 170.941Z" fill="#FBFBFB"/>
<path d="M240.135 30.3622C243.299 32.5517 245.291 35.107 246.099 38.8821C246.391 42.202 245.631 45.2222 243.693 47.9729C241.168 50.9331 238.251 52.7221 234.861 54.53C234.418 54.7718 234.418 54.7718 233.967 55.0184C233.699 55.1615 233.432 55.3046 233.156 55.452C232.132 56.1508 231.68 56.9474 231.376 58.1335C231.251 58.808 231.127 59.4825 231.003 60.157C230.763 61.034 230.763 61.034 229.911 61.886C229.019 61.9991 229.019 61.9991 227.994 61.9925C227.656 61.9947 227.318 61.9969 226.969 61.9991C226.077 61.886 226.077 61.886 225.225 61.034C224.836 58.5959 225.079 56.3053 226.317 54.1598C228.208 51.7088 231.007 50.2101 233.612 48.6268C237.881 46.1338 237.881 46.1338 240.135 41.8641C240.3 39.6518 239.926 38.0796 238.511 36.3528C237.291 35.0256 236.185 34.2944 234.378 34.0531C231.657 34.0142 229.59 34.2692 227.355 35.9002C226.124 37.1979 225.284 38.6283 224.373 40.1601C224.092 40.4413 223.811 40.7225 223.521 41.0121C220.769 40.8155 220.769 40.8155 219.688 39.7341C219.688 36.7474 220.679 35.0906 222.669 32.9182C227.439 28.255 234.23 27.2568 240.135 30.3622Z" fill="#040405"/>
<path d="M258.027 165.403C258.637 165.499 259.248 165.594 259.858 165.688C261.853 166.003 263.84 166.354 265.828 166.708C266.521 166.829 267.214 166.951 267.907 167.072C269.584 167.365 271.261 167.661 272.937 167.959C272.937 168.24 272.937 168.522 272.937 168.811C272.505 168.983 272.072 169.155 271.627 169.332C271.324 169.453 271.021 169.574 270.708 169.699C269.992 169.985 269.274 170.268 268.556 170.55C266.22 171.474 263.905 172.436 261.604 173.444C260.236 174.04 258.864 174.625 257.49 175.209C256.809 175.502 256.13 175.8 255.453 176.104C250.514 178.317 246.764 179.002 241.413 178.183C240.811 178.101 240.21 178.019 239.608 177.937C237.852 177.687 236.105 177.393 234.357 177.092C233.754 176.991 233.151 176.89 232.548 176.79C231.1 176.548 229.653 176.302 228.207 176.053C228.207 175.772 228.207 175.491 228.207 175.201C228.423 175.111 228.64 175.02 228.862 174.927C231.144 173.974 233.425 173.02 235.706 172.066C236.553 171.711 237.401 171.357 238.249 171.002C239.072 170.658 239.895 170.314 240.718 169.969C241.529 169.63 242.34 169.293 243.152 168.957C244.874 168.242 246.583 167.521 248.257 166.698C251.786 165.006 254.188 164.728 258.027 165.403Z" fill="#F9F9F9"/>
<path d="M236.541 161.609C236.829 161.656 237.118 161.703 237.415 161.752C238.322 161.902 239.229 162.055 240.135 162.208C240.756 162.311 241.377 162.413 241.997 162.516C243.507 162.765 245.016 163.018 246.525 163.273C245.862 164.6 244.555 164.892 243.249 165.456C242.809 165.65 242.809 165.65 242.361 165.848C240.732 166.566 239.095 167.268 237.457 167.966C236.785 168.253 236.112 168.541 235.439 168.829C235.106 168.972 234.772 169.114 234.428 169.261C232.546 170.076 230.748 170.959 228.963 171.974C221.953 175.791 215.626 174.507 208.094 173.011C207.765 172.946 207.437 172.881 207.098 172.814C206.317 172.646 205.546 172.436 204.778 172.219C204.637 171.938 204.496 171.657 204.352 171.367C204.786 171.197 204.786 171.197 205.23 171.025C206.642 170.474 208.053 169.922 209.464 169.37C209.856 169.217 209.856 169.217 210.256 169.061C213.515 167.789 216.76 166.489 219.987 165.137C220.6 164.881 221.214 164.626 221.827 164.371C222.722 163.998 223.616 163.624 224.508 163.243C225.342 162.886 226.178 162.537 227.016 162.19C227.493 161.987 227.971 161.785 228.462 161.577C231.205 160.755 233.76 161.145 236.541 161.609Z" fill="#F9F9F9"/>
<path d="M287.418 133.88C288.132 134.002 288.843 134.143 289.548 134.306C289.689 134.728 289.83 135.149 289.974 135.584C290.22 135.707 290.466 135.83 290.72 135.957C292.016 136.605 292.845 137.495 293.808 138.566C293.808 138.847 293.808 139.128 293.808 139.418C295.479 137.985 297.113 136.57 298.601 134.945C298.987 134.593 299.374 134.242 299.772 133.88C300.698 134.026 300.698 134.026 301.476 134.306C301.847 135.203 301.847 135.203 301.902 136.436C301.198 137.475 300.297 138.281 299.373 139.125C299.004 139.476 299.004 139.476 298.628 139.835C298.021 140.412 297.406 140.981 296.79 141.548C297.124 141.861 297.457 142.175 297.8 142.498C298.236 142.918 298.671 143.338 299.107 143.758C299.437 144.066 299.437 144.066 299.773 144.381C301.065 145.639 301.829 146.527 301.902 148.364C301.691 148.786 301.691 148.786 301.476 149.216C300.566 149.362 300.566 149.362 299.346 149.216C298.431 148.455 297.668 147.74 296.87 146.873C296.656 146.649 296.442 146.426 296.222 146.196C295.697 145.645 295.178 145.088 294.66 144.53C292.681 145.347 291.522 146.849 290.109 148.407C289.122 149.216 289.122 149.216 287.936 149.332C287.469 149.275 287.469 149.275 286.992 149.216C286.621 148.319 286.621 148.319 286.566 147.086C287.271 146.047 288.172 145.24 289.096 144.397C289.342 144.162 289.587 143.928 289.84 143.687C290.447 143.11 291.062 142.541 291.678 141.974C290.399 140.45 289.14 138.993 287.658 137.661C286.566 136.436 286.566 136.436 286.593 135.238C286.992 134.306 286.992 134.306 287.418 133.88Z" fill="#F6F6F7"/>
<path d="M126.818 67.4238C127.643 67.52 127.643 67.52 128.522 67.8498C129.178 68.9407 129.724 69.9749 130.253 71.1247C130.397 71.4264 130.541 71.7282 130.69 72.0391C130.974 72.6342 131.255 73.2306 131.534 73.8284C131.892 74.5854 132.276 75.3304 132.662 76.0736C133.468 77.7691 133.56 79.2079 132.929 80.9958C131.952 82.9663 130.602 84.1342 128.522 84.8897C127.224 85.2275 126.03 85.4374 124.688 85.3157C123.597 84.4903 123.597 84.4903 122.984 83.6117C123.281 82.7863 123.281 82.7863 123.836 81.9077C124.792 81.6148 124.792 81.6148 125.913 81.4817C127.306 81.2479 128.04 81.0922 129.241 80.3102C130.034 78.9505 129.754 78.3163 129.374 76.7958C128.708 75.308 127.91 73.8895 127.12 72.4651C125.948 70.2544 125.948 70.2544 126.05 68.7301C126.392 67.8498 126.392 67.8498 126.818 67.4238Z" fill="#060606"/>
<path d="M139.173 136.861C140.898 137.565 142.144 138.777 143.486 140.03C143.715 140.239 143.944 140.448 144.18 140.663C145.217 141.621 146.054 142.497 146.841 143.677C144.821 146.858 144.821 146.858 142.9 147.671C142.373 147.759 141.846 147.847 141.303 147.937C140.531 148.096 139.758 148.255 138.987 148.416C138.339 148.542 137.691 148.667 137.043 148.789C137.113 148.408 137.113 148.408 137.184 148.019C137.864 144.303 138.519 140.582 139.173 136.861Z" fill="#006BD5"/>
<path d="M120.854 92.9838C121.733 93.8091 121.733 93.8091 122.132 94.6877C121.999 95.6462 121.999 95.6462 121.706 96.3917C120.987 96.6846 120.987 96.6846 120.002 96.8177C119.527 96.5146 119.527 96.5146 119.043 96.2054C117.498 95.3275 116.182 95.2974 114.464 95.5397C113.458 95.8426 112.489 96.1856 111.515 96.5798C110.49 96.8554 109.919 96.7295 108.926 96.3917C108.785 95.6888 108.645 94.9859 108.5 94.2617C111.879 91.1768 116.92 90.8634 120.854 92.9838Z" fill="#080808"/>
<path d="M120.003 49.1067C120.214 49.9502 120.214 49.9502 120.429 50.8107C116.843 53.975 112.917 55.2828 108.152 55.2138C107.223 55.0707 107.223 55.0707 106.371 54.2187C106.527 52.9686 106.739 52.5725 107.649 51.6627C108.639 51.5179 109.635 51.408 110.631 51.3166C113.207 51.0435 115.209 50.4338 117.425 49.0751C118.479 48.5993 118.939 48.7105 120.003 49.1067Z" fill="#060606"/>
<path d="M131.932 49.958C133.958 50.2078 135.587 50.7964 137.444 51.6354C139.429 52.5303 141.336 53.2371 143.434 53.792C143.727 54.5641 143.727 54.5641 143.86 55.496C143.331 56.1899 143.331 56.1899 142.582 56.774C138.843 56.8966 134.865 55.043 131.961 52.702C131.506 52.088 131.506 52.088 131.64 50.9431C131.736 50.618 131.833 50.2929 131.932 49.958Z" fill="#080808"/>
<path d="M226.343 68.249C227.781 68.7016 227.781 68.7016 228.606 69.4205C229.213 70.7407 229.294 71.5225 229.059 72.9616C228.18 74.213 228.18 74.213 226.929 75.0916C225.288 75.1199 224.373 75.0372 223.121 73.9467C222.515 72.6266 222.434 71.8447 222.669 70.4056C223.818 68.7685 224.316 68.284 226.343 68.249Z" fill="#070707"/>
<path d="M112.787 60.8213C113.2 60.8916 113.613 60.9619 114.039 61.0343C115.189 62.7596 115.118 64.1223 114.891 66.1462C114.385 67.4242 114.385 67.4242 113.613 68.2762C112.548 68.7022 112.548 68.7022 111.483 68.7022C110.531 68.0054 110.238 67.615 110.035 66.4424C110.082 61.2629 110.082 61.2629 112.787 60.8213Z" fill="#050405"/>
<path d="M136.618 61.46C137.683 61.5931 137.683 61.5931 138.748 61.886C139.583 63.5572 139.321 65.5977 139.174 67.4239C138.641 68.7552 138.641 68.7552 137.896 69.5539C136.964 69.9 136.964 69.9 136.192 69.9799C135.032 68.8682 134.801 67.9649 134.754 66.4122C134.813 64.5327 135.241 62.8363 136.618 61.46Z" fill="#050606"/>
<path d="M77.2164 65.2412C79.4802 65.9821 80.8258 67.5665 82.0888 69.5544C82.0888 71.072 82.0888 71.072 81.6628 72.1104C80.7043 72.2702 80.7043 72.2702 79.5328 72.1104C78.6808 70.9389 78.6808 70.9389 77.8288 69.5544C77.4422 69.2645 77.0556 68.9745 76.6573 68.6758C75.6988 67.8504 75.6988 67.8504 75.5391 66.7056C75.7622 65.3295 75.8071 65.31 77.2164 65.2412Z" fill="#080808"/>
<path d="M111.058 216.097C111.198 216.097 111.339 216.097 111.484 216.097C111.624 218.065 111.765 220.033 111.91 222.061C112.05 222.061 112.191 222.061 112.336 222.061C112.389 223.498 112.389 223.498 112.336 225.043C112.055 225.324 111.774 225.605 111.484 225.895C111.075 224.667 111.008 223.902 111.016 222.628C111.018 222.248 111.019 221.868 111.02 221.476C111.024 221.08 111.028 220.684 111.031 220.277C111.033 219.876 111.035 219.476 111.037 219.063C111.042 218.074 111.049 217.085 111.058 216.097Z" fill="#3477D5"/>
<path d="M95.7226 182.869C94.6865 183.38 93.6482 183.885 92.6075 184.387C92.3135 184.533 92.0194 184.678 91.7164 184.829C89.4775 185.899 89.4775 185.899 88.0547 185.425C88.8982 185.003 89.7416 184.582 90.6107 184.147C90.6107 183.866 90.6107 183.585 90.6107 183.295C91.222 183.14 91.8346 182.99 92.4478 182.843C92.7888 182.759 93.1298 182.675 93.4812 182.588C94.4446 182.443 94.4446 182.443 95.7226 182.869Z" fill="#3E8EEC"/>
<path d="M113.188 163.273C113.61 163.414 114.032 163.555 114.466 163.699C113.721 165.776 113.721 165.776 112.762 166.255C112.481 165.693 112.2 165.131 111.91 164.551C112.332 164.411 112.754 164.27 113.188 164.125C113.188 163.844 113.188 163.563 113.188 163.273Z" fill="#EBEDEE"/>
<path d="M68.8828 122.378C69.9478 123.363 69.9478 123.363 71.0128 124.508C71.0128 124.93 71.0128 125.351 71.0128 125.786C70.7316 125.505 70.4505 125.224 70.1608 124.934C69.7391 124.934 69.3173 124.934 68.8828 124.934C68.8828 124.09 68.8828 123.247 68.8828 122.378Z" fill="#3D8AEA"/>
<path d="M200.09 174.35C200.371 174.35 200.652 174.35 200.942 174.35C200.942 175.334 200.942 176.318 200.942 177.332C200.52 177.332 200.099 177.332 199.664 177.332C199.805 176.348 199.945 175.363 200.09 174.35Z" fill="#E6E6E6"/>
</svg>
