<svg width="324" height="266" viewBox="0 0 324 266" fill="none" xmlns="http://www.w3.org/2000/svg">
<path d="M136.023 7.28348C136.6 7.76089 137.177 8.23986 137.752 8.72004C138.059 8.97613 138.367 9.23223 138.683 9.49608C139.288 10.003 139.89 10.5131 140.489 11.027C144.158 14.122 146.835 15.4911 151.693 15.431C155.474 15.3993 157.666 15.6378 160.465 18.3725C163.307 22.1836 163.587 26.4316 163.094 31.0233C162.212 35.8801 159.994 39.7678 155.97 42.6606C155.154 43.1169 154.43 43.3375 153.515 43.518C153.653 43.7929 153.79 44.0677 153.932 44.351C153.983 45.5604 154.01 46.7593 154.016 47.9692C154.019 48.3363 154.022 48.7033 154.025 49.0815C154.032 50.2813 154.035 51.4809 154.036 52.6807C154.036 53.0887 154.036 53.4966 154.037 53.9169C154.03 60.3912 153.776 66.6937 152.682 73.0887C152.608 73.5227 152.535 73.9567 152.459 74.4038C149.713 90.0834 144.953 104.605 133.262 115.836C132.268 116.722 132.268 116.722 131.858 117.653C132.168 117.762 132.478 117.872 132.798 117.985C136.461 119.592 138.435 123.32 139.896 126.867C142.981 135.135 141.228 144.473 140.302 153.001C140.202 154.139 140.165 155.245 140.188 156.386C141.15 156.386 142.112 156.386 143.103 156.386C143.207 156.101 143.311 155.815 143.419 155.521C145.739 150.063 150.639 140.883 156.014 138.061C157.277 137.746 158.462 137.623 159.762 137.644C159.797 137.361 159.831 137.077 159.867 136.785C160.156 135.651 160.472 135.043 161.09 134.078C161.339 133.606 161.588 133.133 161.845 132.647C161.369 131.296 160.481 130.223 159.632 129.08C155.311 122.94 154.493 116.29 155.375 108.964C157.168 98.9166 162.453 89.1866 170.72 83.003C178.051 78.0871 185.411 75.5612 194.284 77.1218C199.943 78.7359 204.259 82.349 207.14 87.4543C207.914 89.0132 208.455 90.5694 208.908 92.2471C208.993 92.5172 209.079 92.7872 209.167 93.0655C211.382 101.024 208.981 110.476 205.171 117.575C200.262 126.219 192.62 132.945 183.086 135.978C182.582 136.139 182.079 136.299 181.56 136.465C179.745 136.908 178.052 136.772 176.201 136.651C172.327 136.323 172.327 136.323 168.873 137.74C168.029 139.001 167.523 139.897 167.259 141.393C167.591 142.685 167.591 142.685 168.092 143.892C168.67 147.679 166.989 150.854 165.188 154.084C164.977 154.467 164.767 154.85 164.55 155.245C164.113 156.031 163.666 156.811 163.209 157.585C162.593 158.73 162.115 159.694 161.845 160.968C162.202 162.109 162.67 162.907 163.377 163.868C164.324 165.327 164.257 166.799 163.927 168.465C163.16 170.498 161.808 172.048 160.179 173.462C159.904 173.462 159.629 173.462 159.346 173.462C159.483 173.789 159.621 174.115 159.762 174.452C160.459 176.975 160.464 179.211 159.684 181.714C158.887 183.115 158.076 184.084 156.847 185.124C156.572 185.124 156.297 185.124 156.014 185.124C156.152 185.399 156.289 185.674 156.431 185.957C156.394 186.92 156.349 187.884 156.3 188.846C156.177 193.717 157.53 198.336 158.647 203.041C161.278 214.595 162.509 230.687 156.167 241.231C152.947 246.033 148.692 249.674 142.979 251.167C139.496 251.72 136.045 251.591 132.691 250.513C132.295 250.405 131.898 250.298 131.49 250.187C129.991 249.601 129.119 248.856 127.953 247.754C127.589 247.413 127.225 247.073 126.85 246.722C126.578 246.461 126.307 246.2 126.027 245.931C126.065 246.368 126.103 246.805 126.142 247.255C126.283 248.888 126.422 250.521 126.561 252.154C126.621 252.859 126.681 253.563 126.743 254.268C126.831 255.285 126.917 256.302 127.003 257.32C127.03 257.63 127.058 257.941 127.086 258.261C127.16 259.149 127.222 260.036 127.276 260.925C127.296 261.229 127.316 261.533 127.337 261.846C127.422 264.052 127.422 264.052 126.771 264.967C125.798 265.672 125.213 265.663 124.016 265.664C123.6 265.667 123.183 265.67 122.754 265.673C122.295 265.671 121.836 265.668 121.363 265.665C120.633 265.668 120.633 265.668 119.888 265.671C118.535 265.675 117.183 265.674 115.83 265.67C114.372 265.667 112.914 265.671 111.455 265.675C108.598 265.68 105.741 265.679 102.883 265.675C100.561 265.673 98.2398 265.672 95.9182 265.674C95.4231 265.674 95.4231 265.674 94.918 265.674C94.2475 265.674 93.5771 265.675 92.9067 265.675C86.6155 265.679 80.3244 265.675 74.0332 265.668C68.6316 265.663 63.2301 265.663 57.8285 265.669C51.5603 265.676 45.2922 265.679 39.024 265.675C38.356 265.674 37.6879 265.674 37.0199 265.674C36.5269 265.673 36.5269 265.673 36.0238 265.673C33.7042 265.672 31.3845 265.674 29.0648 265.677C26.2391 265.68 23.4134 265.679 20.5876 265.673C19.145 265.669 17.7025 265.668 16.2599 265.672C14.6983 265.676 13.1368 265.671 11.5751 265.665C10.8867 265.669 10.8867 265.669 10.1843 265.673C9.76763 265.67 9.35099 265.667 8.92172 265.664C8.56102 265.663 8.20033 265.663 7.8287 265.663C6.70244 265.471 6.33101 265.171 5.66172 264.257C5.39613 261.708 5.99517 259.265 6.49633 256.771C6.66913 255.881 6.84185 254.991 7.0145 254.101C7.28819 252.707 7.56327 251.313 7.84005 249.92C8.10735 248.569 8.36936 247.217 8.63083 245.865C8.75704 245.242 8.75705 245.242 8.88581 244.606C9.47448 241.543 9.47616 239.46 7.84829 236.717C3.7995 229.508 2.10788 221.581 1.08035 213.445C1.03686 213.105 0.993376 212.765 0.948571 212.415C-2.095 187.662 1.88067 158.852 17.3234 138.555C28.1069 124.749 46.8807 117.446 63.5536 113.905C63.9659 113.905 64.3783 113.905 64.8031 113.905C65.2714 112.056 65.734 110.206 66.1927 108.355C66.3854 107.578 66.579 106.801 66.7731 106.024C68.0378 100.948 69.2146 95.9026 69.9913 90.7276C70.2174 89.3317 70.2174 89.3317 70.6339 88.0822C70.2388 88.0651 69.8436 88.0479 69.4365 88.0302C66.0061 87.5302 62.6889 84.9689 60.6382 82.2514C57.7296 77.3209 56.3602 72.3727 57.6219 66.6624C58.7802 63.005 60.5922 60.144 63.5536 57.6786C63.8285 57.6786 64.1034 57.6786 64.3866 57.6786C64.3257 57.3745 64.2648 57.0705 64.202 56.7572C63.9227 55.3555 63.647 53.9531 63.3714 52.5506C63.2756 52.0725 63.1797 51.5944 63.081 51.1018C60.8925 39.9057 61.1367 28.5528 67.4322 18.667C68.7722 16.8151 70.285 15.1614 71.8834 13.5308C72.1604 13.2387 72.4375 12.9467 72.7229 12.6458C77.8298 7.65581 85.734 4.887 92.7859 4.6544C95.0911 4.69099 97.3017 5.11622 99.5509 5.58936C101.738 6.06536 101.738 6.06536 103.953 6.03402C104.771 5.48044 104.771 5.48044 105.489 4.70646C114.576 -3.7319 127.425 0.450654 136.023 7.28348Z" fill="#030305"/>
<path d="M201.711 135.403C202.191 135.401 202.671 135.399 203.165 135.397C204.767 135.392 206.369 135.396 207.971 135.4C209.122 135.399 210.272 135.396 211.423 135.394C214.221 135.388 217.019 135.389 219.817 135.393C222.092 135.396 224.367 135.396 226.642 135.395C226.966 135.395 227.29 135.394 227.624 135.394C228.283 135.394 228.942 135.393 229.601 135.393C235.773 135.389 241.946 135.393 248.118 135.4C253.409 135.406 258.7 135.405 263.991 135.399C270.142 135.392 276.292 135.39 282.442 135.394C283.099 135.394 283.755 135.394 284.411 135.395C284.734 135.395 285.057 135.395 285.39 135.395C287.661 135.396 289.932 135.395 292.202 135.392C294.972 135.388 297.741 135.389 300.511 135.396C301.922 135.399 303.334 135.4 304.746 135.396C306.279 135.393 307.812 135.397 309.345 135.403C309.787 135.4 310.23 135.398 310.685 135.395C314.938 135.428 318.295 136.203 321.394 139.214C323.438 141.592 324.044 143.906 323.995 146.998C323.719 149.983 322.957 152.881 322.258 155.791C321.95 157.072 321.648 158.355 321.348 159.638C321.019 161.043 320.69 162.448 320.359 163.852C318.965 169.768 317.623 175.696 316.279 181.623C316.008 182.82 315.736 184.018 315.463 185.215C314.081 191.297 312.703 197.381 311.353 203.471C311.16 204.342 310.966 205.212 310.773 206.082C310.212 208.602 309.658 211.124 309.121 213.649C308.865 214.843 308.606 216.036 308.346 217.229C308.17 218.041 308.001 218.854 307.832 219.667C306.968 223.615 305.902 227.476 302.569 230.03C300.223 231.5 297.846 231.944 295.121 232.187C295.025 232.59 294.929 232.993 294.83 233.407C293.127 240.304 290.105 245.762 284.292 250.096C279.596 252.878 275.091 254.502 269.611 254.443C269.191 254.44 268.772 254.436 268.339 254.433C261.384 254.276 255.729 251.716 250.661 246.924C247.463 243.537 245.127 239.5 244.043 234.969C243.935 234.525 243.828 234.08 243.717 233.622C243.598 233.118 243.598 233.118 243.476 232.604C242.963 232.603 242.963 232.603 242.438 232.602C234.099 232.586 225.76 232.562 217.42 232.527C213.388 232.511 209.355 232.497 205.322 232.491C201.806 232.485 198.291 232.474 194.775 232.456C192.914 232.447 191.053 232.44 189.192 232.441C187.439 232.441 185.686 232.433 183.933 232.42C183.291 232.416 182.649 232.416 182.007 232.418C178.216 232.43 175.324 232.326 172.262 229.853C169.902 227.033 169.087 224.195 169.341 220.526C169.605 218.988 169.979 217.482 170.357 215.969C170.468 215.507 170.58 215.046 170.695 214.571C171.007 213.28 171.323 211.99 171.639 210.7C172.204 208.394 172.758 206.086 173.313 203.778C173.467 203.139 173.621 202.499 173.776 201.86C175.266 195.68 176.716 189.49 178.156 183.299C178.267 182.823 178.377 182.347 178.491 181.857C179.499 177.524 180.505 173.191 181.511 168.857C182.044 166.559 182.578 164.262 183.112 161.965C183.403 160.711 183.694 159.456 183.984 158.202C184.511 155.93 185.046 153.659 185.584 151.389C185.676 151.002 185.767 150.615 185.861 150.216C186.133 149.071 186.409 147.927 186.687 146.784C186.767 146.441 186.848 146.098 186.932 145.745C187.547 143.244 188.374 141.213 190.166 139.31C190.389 139.07 190.611 138.829 190.841 138.581C193.928 135.616 197.615 135.378 201.711 135.403Z" fill="#FAFAFB"/>
<path d="M64.8031 114.321C64.737 114.617 64.671 114.913 64.603 115.218C63.6586 120.394 64.9501 125.14 67.7738 129.523C72.9566 136.462 80.3954 140.278 88.8813 141.523C92.7151 141.943 96.0523 141.987 99.7881 140.976C99.8402 144.204 99.8402 144.204 99.3716 145.141C98.99 148.465 99.178 151.033 101.104 153.821C103.143 156.215 105.082 157.263 108.118 158.052C108.129 158.536 108.139 159.019 108.15 159.517C108.351 165.808 109.483 170.135 113.532 175.129C111.098 178.038 108.526 180.654 105.632 183.108C104.467 184.164 103.448 185.341 102.432 186.54C101.38 187.257 101.005 187.299 99.7754 187.381C97.6111 187.591 95.6607 188.168 93.5994 188.84C93.212 188.963 92.8245 189.087 92.4254 189.214C91.1646 189.617 89.9058 190.025 88.647 190.434C87.767 190.718 86.8869 191.002 86.0069 191.286C75.3895 194.722 64.845 198.339 54.4931 202.513C54.0497 202.692 53.6063 202.87 53.1495 203.054C52.7634 203.212 52.3773 203.369 51.9795 203.532C51.059 203.866 51.059 203.866 50.226 203.866C50.2039 203.283 50.2039 203.283 50.1814 202.688C50.0415 199 49.9007 195.312 49.7588 191.624C49.686 189.729 49.6135 187.834 49.5418 185.938C49.4724 184.104 49.4021 182.271 49.3311 180.437C49.3044 179.742 49.278 179.047 49.252 178.352C49.0967 174.216 48.8876 170.093 48.56 165.966C47.8728 165.828 47.1856 165.691 46.4776 165.549C46.4088 170.395 46.6063 175.214 46.8337 180.053C47.223 188.414 47.4327 196.746 47.3106 205.116C44.1851 206.579 41.0788 207.972 37.842 209.167C36.8239 209.607 36.8239 209.607 36.5535 210.592C36.518 210.974 36.518 210.974 36.4819 211.363C38.1057 211.808 38.9537 211.769 40.4776 211.067C41.0542 210.81 41.0542 210.81 41.6424 210.548C42.2835 210.255 42.2835 210.255 42.9374 209.957C43.9211 209.527 44.9053 209.099 45.8919 208.675C46.1626 208.559 46.4332 208.443 46.7121 208.323C57.2866 203.82 68.1893 200.034 79.0678 196.343C79.4892 196.2 79.9106 196.057 80.3447 195.91C82.7862 195.084 85.231 194.268 87.6789 193.461C88.5782 193.164 89.4768 192.864 90.3749 192.564C91.8084 192.085 93.2438 191.611 94.6796 191.139C95.1241 190.989 95.5685 190.84 96.0264 190.685C96.6465 190.484 96.6465 190.484 97.279 190.278C97.6435 190.157 98.0081 190.036 98.3837 189.912C99.4614 189.687 100.021 189.715 101.038 190.122C106.46 195.742 110.844 204.432 111.866 212.196C111.913 212.51 111.96 212.823 112.008 213.147C112.145 214.714 112.231 215.872 111.263 217.169C110.382 217.938 109.476 218.596 108.508 219.25C108.167 219.497 107.826 219.743 107.475 219.998C106.777 220.5 106.075 220.998 105.37 221.49C104.476 222.117 103.6 222.761 102.73 223.422C86.5128 235.702 67.4707 246.198 47.7271 251.346C47.2707 251.479 46.8144 251.611 46.3442 251.748C42.6383 252.681 38.9595 252.727 35.1543 252.752C34.6248 252.757 34.0954 252.763 33.5499 252.769C28.9482 252.746 24.7717 251.988 20.6553 249.888C20.3756 249.746 20.0959 249.605 19.8078 249.459C15.5283 247.173 12.1265 243.678 9.41012 239.684C9.09202 239.22 9.09202 239.22 8.76749 238.745C3.97458 231.267 2.17748 222.132 1.08035 213.445C1.03686 213.105 0.993376 212.765 0.948571 212.415C-2.095 187.662 1.88067 158.853 17.3234 138.556C27.5277 125.491 44.02 119.245 59.4929 114.92C60.0771 114.755 60.0771 114.755 60.6732 114.587C61.0332 114.49 61.3931 114.393 61.764 114.294C62.0804 114.208 62.3967 114.122 62.7227 114.034C63.5536 113.905 63.5536 113.905 64.8031 114.321Z" fill="#006BD5"/>
<path d="M108.534 33.1064C110.025 33.6453 111.176 34.2882 112.439 35.2409C123.666 43.2246 136.757 44.1543 150.183 44.3516C150.841 46.0997 151.123 47.5498 151.127 49.4146C151.129 49.9045 151.13 50.3945 151.132 50.8993C151.128 51.4187 151.124 51.9381 151.12 52.4732C151.118 53.0113 151.115 53.5495 151.113 54.1039C151.065 58.8015 150.77 63.4315 150.183 68.0915C150.143 68.4159 150.103 68.7403 150.061 69.0745C147.82 86.4376 142.715 103.212 129.359 115.155C129.113 115.386 128.867 115.617 128.614 115.856C127.328 116.621 126.384 116.519 124.896 116.468C124.338 116.456 123.78 116.444 123.221 116.433C122.352 116.407 121.484 116.379 120.615 116.347C116.003 116.193 111.226 116.271 107.597 119.502C106.29 120.565 106.29 120.565 105.206 120.582C99.3106 118.941 93.389 113.602 89.4198 109.194C88.5792 108.387 88.5792 108.387 87.3927 108.387C87.0851 108.421 86.7774 108.455 86.4605 108.491C86.0627 109.209 86.0627 109.209 86.044 110.157C86.7105 110.878 87.4104 111.568 88.1264 112.239C88.4759 112.573 88.8254 112.907 89.1855 113.251C93.508 117.248 98.2308 120.491 103.536 123.068C103.363 123.508 103.363 123.508 103.187 123.956C102.304 126.362 101.771 128.491 101.662 131.059C101.543 133.411 101.382 135.793 99.7881 137.645C97.6118 138.84 95.7909 139.11 93.3325 139.077C93.0069 139.074 92.6814 139.072 92.3459 139.069C87.7966 138.949 83.4045 137.683 79.3802 135.563C79.0532 135.398 78.7262 135.233 78.3894 135.063C73.5727 132.432 69.6361 128.249 67.6697 123.099C66.3679 118.566 67.6142 114.592 68.9697 110.256C70.1444 106.426 71.0222 102.57 71.8313 98.6513C71.8941 98.3547 71.9569 98.0581 72.0216 97.7525C72.8489 93.8281 73.3735 90.0159 73.5493 86.0005C72.9824 85.8716 72.9824 85.8716 72.404 85.7402C67.7491 84.3711 64.2843 82.1436 61.7315 77.988C60.0993 74.616 60.0764 70.4285 60.9424 66.8257C61.9693 64.0509 63.3676 61.9023 66.0005 60.4385C68.2134 59.4481 70.0767 59.5111 72.3519 60.2823C74.9384 61.3617 76.3912 63.0183 77.9924 65.2574C78.8688 66.4447 79.1868 66.8072 80.6817 67.0763C83.027 66.7358 83.9737 65.5545 85.6275 63.9266C86.3893 63.2092 87.1552 62.4963 87.9213 61.7835C88.4758 61.2675 89.0293 60.7504 89.5818 60.2323C90.9421 58.9571 92.3087 57.6973 93.723 56.4819C100.799 50.3171 106.254 42.2763 108.534 33.1064Z" fill="#FBFBFB"/>
<path d="M201.711 135.403C202.191 135.401 202.671 135.399 203.165 135.397C204.767 135.392 206.369 135.396 207.971 135.4C209.122 135.399 210.272 135.396 211.423 135.394C214.221 135.388 217.019 135.389 219.817 135.393C222.092 135.396 224.367 135.396 226.642 135.395C226.966 135.395 227.29 135.394 227.624 135.394C228.283 135.394 228.942 135.393 229.601 135.393C235.773 135.389 241.946 135.393 248.118 135.4C253.409 135.406 258.7 135.405 263.991 135.399C270.142 135.392 276.292 135.39 282.442 135.394C283.099 135.394 283.755 135.394 284.411 135.395C284.734 135.395 285.057 135.395 285.39 135.395C287.661 135.396 289.932 135.395 292.202 135.392C294.972 135.388 297.741 135.389 300.511 135.396C301.922 135.399 303.334 135.4 304.746 135.396C306.279 135.393 307.812 135.397 309.345 135.403C309.787 135.4 310.23 135.398 310.685 135.395C314.938 135.428 318.295 136.203 321.394 139.214C323.438 141.592 324.044 143.906 323.995 146.998C323.719 149.983 322.957 152.881 322.258 155.791C321.95 157.072 321.648 158.355 321.348 159.638C321.019 161.043 320.69 162.448 320.359 163.852C318.965 169.768 317.623 175.696 316.279 181.623C316.008 182.82 315.736 184.018 315.463 185.215C314.081 191.297 312.703 197.381 311.353 203.471C311.16 204.342 310.966 205.212 310.773 206.082C310.212 208.602 309.658 211.124 309.121 213.649C308.865 214.843 308.606 216.036 308.346 217.229C308.17 218.041 308.001 218.854 307.832 219.667C306.968 223.615 305.902 227.476 302.569 230.03C300.223 231.5 297.846 231.944 295.121 232.187C295.025 232.59 294.929 232.993 294.83 233.407C293.127 240.304 290.105 245.762 284.292 250.096C279.596 252.878 275.091 254.502 269.611 254.443C269.191 254.44 268.772 254.436 268.339 254.433C261.384 254.276 255.729 251.716 250.661 246.924C247.463 243.537 245.127 239.5 244.043 234.969C243.935 234.525 243.828 234.08 243.717 233.622C243.598 233.118 243.598 233.118 243.476 232.604C242.963 232.603 242.963 232.603 242.438 232.602C234.099 232.586 225.76 232.562 217.42 232.527C213.388 232.511 209.355 232.497 205.322 232.491C201.806 232.485 198.291 232.474 194.775 232.456C192.914 232.447 191.053 232.44 189.192 232.441C187.439 232.441 185.686 232.433 183.933 232.42C183.291 232.416 182.649 232.416 182.007 232.418C178.216 232.43 175.324 232.326 172.262 229.853C169.902 227.033 169.087 224.195 169.341 220.526C169.605 218.988 169.979 217.482 170.357 215.969C170.468 215.507 170.58 215.046 170.695 214.571C171.007 213.28 171.323 211.99 171.639 210.7C172.204 208.394 172.758 206.086 173.313 203.778C173.467 203.139 173.621 202.499 173.776 201.86C175.266 195.68 176.716 189.49 178.156 183.299C178.267 182.823 178.377 182.347 178.491 181.857C179.499 177.524 180.505 173.191 181.511 168.857C182.044 166.559 182.578 164.262 183.112 161.965C183.403 160.711 183.694 159.456 183.984 158.202C184.511 155.93 185.046 153.659 185.584 151.389C185.676 151.002 185.767 150.615 185.861 150.216C186.133 149.071 186.409 147.927 186.687 146.784C186.767 146.441 186.848 146.098 186.932 145.745C187.547 143.244 188.374 141.213 190.166 139.31C190.389 139.07 190.611 138.829 190.841 138.581C193.928 135.616 197.615 135.378 201.711 135.403ZM192.769 141.601C190.373 144.67 189.541 148.565 188.68 152.3C188.584 152.707 188.488 153.115 188.389 153.535C188.067 154.901 187.75 156.269 187.433 157.636C187.201 158.623 186.97 159.611 186.738 160.598C184.297 171.037 181.913 181.49 179.533 191.943C179.212 193.356 178.889 194.77 178.567 196.183C178.409 196.878 178.251 197.573 178.093 198.268C177.204 202.183 176.292 206.09 175.333 209.988C175.155 210.717 174.977 211.446 174.799 212.175C174.463 213.55 174.121 214.923 173.773 216.296C173.621 216.918 173.469 217.541 173.317 218.163C173.245 218.439 173.173 218.714 173.099 218.998C172.493 221.535 172.578 223.704 173.793 226.044C175.167 227.679 176.448 228.732 178.596 229.06C179.325 229.058 179.325 229.058 180.069 229.056C180.478 229.058 180.478 229.058 180.895 229.06C181.803 229.063 182.71 229.054 183.617 229.044C184.27 229.044 184.923 229.044 185.576 229.045C187.344 229.046 189.112 229.036 190.88 229.024C192.729 229.014 194.579 229.013 196.428 229.011C199.928 229.006 203.428 228.992 206.929 228.975C210.914 228.957 214.9 228.948 218.885 228.939C227.082 228.922 235.279 228.893 243.476 228.855C243.527 228.379 243.577 227.903 243.628 227.413C243.699 226.776 243.769 226.14 243.839 225.504C243.872 225.192 243.904 224.879 243.938 224.557C244.678 217.974 247.778 212.125 252.935 207.907C259.131 203.297 265.82 201.733 273.464 202.617C280.168 203.812 286.013 207.479 290.045 212.977C293.29 217.899 294.397 222.613 294.704 228.439C297.009 228.488 298.492 228.325 300.535 227.189C303.224 224.562 303.982 221.183 304.776 217.615C304.858 217.253 304.941 216.892 305.026 216.52C305.298 215.324 305.567 214.127 305.836 212.93C306.029 212.076 306.223 211.222 306.417 210.368C306.938 208.077 307.455 205.785 307.971 203.493C308.507 201.117 309.046 198.74 309.583 196.364C310.237 193.477 310.89 190.59 311.542 187.702C312.815 182.071 314.098 176.441 315.395 170.815C315.894 168.649 316.391 166.482 316.888 164.315C317.272 162.639 317.658 160.964 318.047 159.29C318.408 157.738 318.765 156.185 319.119 154.632C319.307 153.811 319.499 152.99 319.692 152.17C320.758 147.726 320.758 147.726 320.174 143.272C318.686 141.038 317.213 139.722 314.525 139.065C313.46 138.896 312.469 138.841 311.391 138.839C310.986 138.838 310.58 138.836 310.163 138.834C309.721 138.835 309.278 138.835 308.823 138.835C308.351 138.834 307.878 138.833 307.392 138.832C305.806 138.828 304.22 138.827 302.634 138.827C301.499 138.825 300.363 138.823 299.227 138.82C296.14 138.815 293.052 138.812 289.965 138.81C288.037 138.809 286.108 138.808 284.18 138.806C278.84 138.801 273.499 138.796 268.159 138.795C267.647 138.795 267.647 138.795 267.124 138.795C266.781 138.795 266.439 138.794 266.086 138.794C265.392 138.794 264.698 138.794 264.004 138.794C263.66 138.794 263.316 138.794 262.961 138.794C257.383 138.792 251.805 138.785 246.227 138.775C240.498 138.765 234.77 138.76 229.041 138.759C225.825 138.759 222.61 138.757 219.394 138.749C216.656 138.743 213.918 138.74 211.18 138.744C209.783 138.746 208.387 138.744 206.991 138.739C205.475 138.734 203.96 138.736 202.445 138.741C202.006 138.737 201.566 138.734 201.113 138.731C197.978 138.752 194.938 139.066 192.769 141.601Z" fill="#040405"/>
<path d="M119.361 213.029C119.401 213.543 119.44 214.057 119.481 214.586C119.633 216.533 119.794 218.478 119.958 220.424C120.028 221.259 120.094 222.093 120.158 222.928C120.682 229.732 121.482 236.266 124.647 242.393C126.457 245.933 126.627 249.487 126.832 253.403C126.878 254.088 126.925 254.774 126.973 255.46C127.095 257.281 127.203 259.101 127.274 260.925C127.292 261.227 127.31 261.528 127.329 261.838C127.415 264.06 127.415 264.06 126.77 264.968C125.796 265.672 125.211 265.663 124.014 265.664C123.389 265.669 123.389 265.669 122.752 265.674C122.063 265.67 122.063 265.67 121.361 265.666C120.631 265.668 120.631 265.668 119.886 265.671C118.533 265.676 117.181 265.674 115.828 265.67C114.37 265.667 112.912 265.672 111.453 265.675C108.596 265.681 105.739 265.68 102.881 265.676C100.559 265.673 98.2378 265.673 95.9162 265.674C95.4211 265.674 95.4211 265.674 94.916 265.675C94.2456 265.675 93.5751 265.675 92.9047 265.676C86.6135 265.679 80.3224 265.675 74.0312 265.669C68.6296 265.663 63.2281 265.664 57.8265 265.67C51.5584 265.676 45.2902 265.679 39.022 265.675C38.354 265.675 37.686 265.674 37.0179 265.674C36.5249 265.674 36.5249 265.674 36.0219 265.673C33.7022 265.672 31.3825 265.674 29.0629 265.677C26.2371 265.681 23.4114 265.68 20.5856 265.673C19.143 265.67 17.7005 265.668 16.258 265.673C14.6963 265.676 13.1348 265.672 11.5731 265.666C11.1142 265.668 10.6552 265.671 10.1823 265.674C9.76564 265.671 9.349 265.667 8.91973 265.664C8.55903 265.664 8.19833 265.664 7.82671 265.663C6.70058 265.471 6.32908 265.172 5.65973 264.257C5.39265 261.687 5.99082 259.202 6.47969 256.684C6.56289 256.245 6.64609 255.805 6.73181 255.352C6.9967 253.956 7.26526 252.56 7.53393 251.164C7.71476 250.214 7.89535 249.264 8.07569 248.314C8.51705 245.993 8.96142 243.671 9.40813 241.351C10.2411 241.767 10.2411 241.767 10.8919 242.99C13.9776 248.515 19.3114 251.96 25.2347 253.845C46.4492 259.345 69.0287 247.536 86.8083 237.136C93.0865 233.399 99.0926 229.409 104.828 224.885C106.115 223.889 107.439 222.949 108.767 222.01C109.005 221.839 109.244 221.668 109.49 221.492C110.491 220.776 111.497 220.078 112.535 219.415C114.175 218.372 114.175 218.372 115.071 216.719C115.23 215.696 115.23 215.696 115.196 214.279C115.734 214.069 116.272 213.861 116.81 213.654C117.259 213.48 117.259 213.48 117.718 213.303C118.528 213.029 118.528 213.029 119.361 213.029Z" fill="#006BD5"/>
<path d="M155.601 191.372C156.341 192.703 156.701 193.973 157.033 195.456C157.192 196.164 157.192 196.164 157.354 196.887C157.463 197.386 157.571 197.886 157.684 198.4C157.795 198.91 157.907 199.419 158.022 199.944C160.755 212.594 163.188 229.565 156.171 241.232C152.953 246.029 148.694 249.685 142.981 251.166C139.6 251.709 135.31 251.996 132.278 250.097C131.994 249.545 131.717 248.989 131.445 248.431C131.124 247.961 130.791 247.499 130.449 247.045C125.963 240.931 124.034 235.088 123.115 227.607C123.051 227.097 123.051 227.097 122.985 226.577C122.395 221.77 122.169 217.037 122.282 212.196C122.716 212.055 123.15 211.913 123.597 211.767C130.119 209.583 135.982 206.834 141.369 202.503C141.796 202.163 142.224 201.823 142.664 201.472C142.883 201.297 143.103 201.122 143.329 200.942C145.651 199.149 148.192 197.755 150.797 196.414C153.166 195.132 154.4 193.785 155.601 191.372Z" fill="#006BD5"/>
<path d="M140.604 159.303C140.81 159.715 140.81 159.715 141.021 160.136C140.573 161.146 140.573 161.146 139.901 162.348C139.672 162.76 139.442 163.172 139.205 163.596C138.522 164.717 138.522 164.717 137.506 165.914C136.723 166.775 136.723 166.775 136.96 167.971C137.063 168.272 137.166 168.572 137.272 168.882C138.496 168.611 139.567 168.218 140.703 167.693C141.212 167.46 141.212 167.46 141.73 167.223C142.089 167.057 142.447 166.892 142.817 166.721C155.145 161.1 155.145 161.1 158.097 161.802C159.76 163.165 160.872 164.758 161.246 166.878C160.955 168.852 160.462 169.43 158.93 170.646C154.807 173.072 149.815 174.453 145.185 175.546C145.598 176.783 145.598 176.783 146.018 178.045C148.911 177.496 151.584 176.591 154.332 175.556C155.598 175.129 155.598 175.129 156.847 175.129C157.578 179.583 157.578 179.583 156.014 181.793C154.816 182.825 153.692 183.343 152.196 183.835C151.79 183.974 151.384 184.112 150.965 184.255C150.11 184.541 149.255 184.825 148.398 185.105C147.993 185.244 147.589 185.383 147.172 185.527C146.801 185.65 146.43 185.773 146.047 185.899C145.115 186.294 145.115 186.294 144.853 187.208C144.755 188.039 144.755 188.039 144.769 188.873C147.109 188.665 149.097 187.989 151.285 187.141C152.266 186.791 152.266 186.791 153.099 186.791C153.274 189.331 153.136 190.596 151.433 192.622C149.909 193.965 148.297 194.858 146.487 195.745C144.095 196.963 142.058 198.368 140.005 200.093C133.317 205.67 123.267 210.947 114.365 210.947C114.228 210.468 114.092 209.988 113.95 209.494C112.009 202.911 109.463 196.715 105.465 191.101C104.866 190.238 104.41 189.399 103.953 188.457C105.136 187.263 106.321 186.071 107.507 184.88C107.909 184.476 108.31 184.072 108.711 183.667C110.845 181.514 112.989 179.405 115.292 177.433C116.204 176.646 117.078 175.823 117.953 174.995C124.431 168.88 132.18 162.43 140.604 159.303Z" fill="#FAFAFA"/>
<path d="M197.309 85.2735C200.259 87.2893 201.956 90.0333 202.864 93.4698C204.271 101.902 201.871 110.309 197.176 117.34C192.308 124.051 185.625 129.504 177.254 130.981C173.566 131.381 170.078 130.628 167.106 128.333C163.691 124.902 162.929 120.6 162.938 115.962C162.947 112.103 163.46 108.816 164.76 105.159C164.911 104.724 165.061 104.289 165.217 103.841C167.11 98.8731 170.226 94.7716 173.922 90.9985C174.198 90.7076 174.474 90.4166 174.759 90.1168C180.449 84.5566 189.977 81.002 197.309 85.2735Z" fill="#FBFBFB"/>
<path d="M121.393 118.42C125.973 118.283 130.042 119.011 133.507 122.137C137.495 126.133 138.606 131.51 138.601 136.968C138.6 137.35 138.6 137.731 138.6 138.124C138.568 141.815 138.297 145.467 137.904 149.136C137.754 150.548 137.672 151.923 137.683 153.343C137.664 155.044 137.519 156.46 136.857 158.053C135.491 159.368 133.771 160.098 132.069 160.887C130.123 161.789 128.477 162.943 126.783 164.248C126.509 164.458 126.235 164.668 125.952 164.884C122.66 167.436 119.356 170.057 116.449 173.047C114.138 172.048 112.903 170.191 111.846 167.956C109.993 162.696 110.869 157.569 113.117 152.639C113.392 152.226 113.667 151.814 113.95 151.389C114.011 150.341 114.011 150.341 113.533 149.307C112.423 148.266 112.423 148.266 111.034 147.641C109.87 147.692 109.87 147.692 108.952 148.057C109.182 149.757 109.332 150.104 110.618 151.389C110.068 152.626 109.518 153.863 108.952 155.138C106.295 155.071 104.882 153.617 103.121 151.806C101.849 150.295 101.576 148.89 101.647 146.951C102.15 144.766 103.8 143.293 105.62 142.095C106.439 141.661 107.253 141.307 108.119 140.977C108.557 140.805 108.995 140.633 109.446 140.456C112.995 139.758 116.635 140.077 120.197 140.56C120.335 139.873 120.472 139.186 120.614 138.478C116.109 136.491 111.416 136.874 106.843 138.413C105.348 139.002 104.05 139.684 102.705 140.56C102.528 138.007 102.646 136.749 104.371 134.73C108.611 130.286 113.535 128.513 119.572 128.326C121.925 128.352 123.623 128.643 125.691 129.75C126.611 130.236 127.499 130.432 128.527 130.565C128.664 129.878 128.802 129.19 128.943 128.482C128.285 128.142 127.625 127.804 126.965 127.467C126.598 127.279 126.231 127.09 125.852 126.896C121.411 124.844 114.975 125.542 110.525 127.14C109.078 127.777 107.712 128.495 106.372 129.335C105.62 129.732 105.62 129.732 104.371 129.732C105.219 126.098 106.507 123.231 109.655 121.064C113.272 119.017 117.326 118.647 121.393 118.42Z" fill="#F9F9FA"/>
<path d="M226.819 163.883C229.512 165.807 231.589 168.037 232.233 171.38C232.639 175.654 232.292 179.041 229.734 182.625C227.222 185.491 224.462 187.406 220.636 187.78C216.777 187.951 214.035 187.547 211.096 184.942C210.787 184.59 210.478 184.238 210.159 183.875C209.867 183.557 209.575 183.239 209.274 182.912C207.052 179.726 206.749 176.433 207.244 172.63C208.496 168.635 210.886 165.852 214.452 163.727C218.124 161.991 223.262 161.705 226.819 163.883Z" fill="#FAFAFA"/>
<path d="M233.899 25.6089C237.165 28.0054 239.889 30.7967 240.98 34.7717C241.428 39.7077 240.97 43.8574 238.012 47.9692C235.586 50.8585 232.648 52.8787 229.422 54.7892C225.963 56.8825 224.347 58.7336 223.094 62.5788C222.568 63.6931 222.035 64.1271 220.988 64.7589C219.646 64.9938 219.103 64.8815 217.943 64.1601C216.868 62.5288 216.874 61.2412 217.24 59.3445C219.288 53.6549 222.851 51.0774 227.851 48.1314C230.62 46.4721 232.596 44.8367 234.082 41.9301C234.559 39.2257 234.874 36.6484 233.431 34.199C231.815 31.9773 229.992 30.3459 227.236 29.7738C223.857 29.3788 221.298 29.8983 218.489 31.8563C216.733 33.4429 215.521 35.4169 214.316 37.4366C213.908 38.1036 213.908 38.1036 213.492 38.5201C210.896 38.7123 210.896 38.7123 209.795 38.0515C209.134 36.9498 209.019 36.0514 208.91 34.7717C210.143 30.9016 212.514 27.7502 216.007 25.6984C221.712 22.7626 228.177 22.3333 233.899 25.6089Z" fill="#006BD5"/>
<path d="M228.899 160.552C232.342 163.077 234.854 165.976 235.979 170.131C236.504 174.691 236.275 179.017 233.897 183.042C233.659 183.326 233.421 183.61 233.176 183.903C232.558 184.658 232.558 184.658 232.733 185.489C233.142 186.582 233.692 187.175 234.504 188.012C234.796 188.317 235.087 188.622 235.388 188.936C235.695 189.25 236.002 189.564 236.318 189.888C240.455 194.173 240.455 194.173 241.394 195.537C241.29 196.708 241.29 196.708 240.977 197.619C240.037 197.905 240.037 197.905 238.895 198.036C238.065 197.541 238.065 197.541 237.281 196.786C236.995 196.515 236.709 196.244 236.414 195.965C235.993 195.547 235.993 195.547 235.563 195.12C235.312 194.88 235.061 194.64 234.803 194.393C233.221 192.854 231.803 191.227 230.43 189.499C229.682 188.687 229.682 188.687 228.066 188.873C227.355 189.283 226.645 189.694 225.94 190.113C222.394 192.028 217.554 191.896 213.749 190.903C209.436 189.385 206.173 185.824 204.212 181.775C202.909 178.264 202.863 173.373 204.222 169.871C204.518 169.255 204.829 168.646 205.159 168.048C205.391 167.628 205.623 167.207 205.862 166.773C211.254 159.923 220.625 155.653 228.899 160.552ZM210.595 166.64C207.884 169.79 206.858 172.933 207.05 177.07C207.493 180.281 208.702 183.176 211.254 185.264C214.62 187.785 218.11 188.188 222.235 187.623C226.49 186.35 229.51 183.523 231.606 179.658C232.81 176.613 232.773 172.645 231.788 169.532C230.401 166.543 228.089 164.437 225.151 163.051C219.844 161.34 214.503 162.877 210.595 166.64Z" fill="#050506"/>
<path d="M259.895 216.454C261.05 216.802 261.598 217.164 262.479 217.975C262.759 218.232 263.039 218.49 263.328 218.755C265.207 220.567 267.051 222.413 268.882 224.275C271.185 222.381 273.274 220.319 275.357 218.19C276.379 217.194 276.379 217.194 277.628 216.361C279.896 216.546 279.896 216.546 280.96 217.611C281.166 219.132 281.15 219.847 280.24 221.107C279.912 221.42 279.583 221.733 279.244 222.056C278.889 222.401 278.534 222.746 278.168 223.102C277.792 223.454 277.417 223.807 277.03 224.17C276.292 224.879 275.555 225.588 274.819 226.298C274.489 226.61 274.16 226.921 273.821 227.242C273.02 227.969 273.02 227.969 272.63 228.856C272.905 228.856 273.18 228.856 273.463 228.856C274.031 229.54 274.584 230.237 275.129 230.938C276.089 231.925 277.061 232.885 278.085 233.805C280.475 236.022 280.475 236.022 280.83 237.732C280.544 238.852 280.544 238.852 280.075 239.659C278.88 240.336 278.097 240.019 276.795 239.685C275.888 238.981 275.888 238.981 275.061 238.081C274.757 237.761 274.453 237.441 274.14 237.111C273.831 236.775 273.522 236.439 273.203 236.092C272.587 235.423 271.965 234.758 271.339 234.098C271.067 233.802 270.795 233.506 270.514 233.2C269.77 232.518 269.77 232.518 268.883 232.62C267.827 233.128 267.21 233.753 266.411 234.61C266.106 234.928 265.801 235.247 265.487 235.574C264.852 236.25 264.219 236.926 263.587 237.605C263.129 238.081 263.129 238.081 262.662 238.567C262.387 238.861 262.112 239.155 261.829 239.458C260.762 240.256 260.19 240.267 258.886 240.101C258.131 239.633 258.131 239.633 257.637 238.852C257.469 237.364 257.447 236.62 258.325 235.381C258.639 235.08 258.953 234.779 259.277 234.469C259.615 234.139 259.953 233.808 260.302 233.468C260.659 233.132 261.017 232.795 261.385 232.448C261.922 231.929 261.922 231.929 262.469 231.399C263.352 230.545 264.24 229.698 265.134 228.856C264.546 227.507 263.847 226.659 262.776 225.657C262.48 225.373 262.184 225.089 261.879 224.797C261.256 224.206 260.63 223.619 260.002 223.033C257.745 220.857 257.745 220.857 257.18 219.129C257.22 218.027 257.22 218.027 257.897 217.012C258.886 216.361 258.886 216.361 259.895 216.454Z" fill="#FAFAFA"/>
<path d="M252.339 170.022C252.714 170.019 253.088 170.016 253.473 170.013C253.885 170.014 254.297 170.015 254.721 170.016C255.154 170.014 255.587 170.012 256.033 170.01C257.469 170.004 258.905 170.004 260.341 170.005C261.336 170.004 262.331 170.002 263.326 170C265.414 169.997 267.502 169.997 269.59 169.999C272.27 170.001 274.949 169.994 277.629 169.985C279.685 169.979 281.74 169.978 283.795 169.98C284.784 169.979 285.772 169.977 286.76 169.973C288.14 169.968 289.52 169.971 290.9 169.975C291.517 169.971 291.517 169.971 292.146 169.966C292.521 169.969 292.897 169.972 293.283 169.975C293.773 169.975 293.773 169.975 294.272 169.974C295.345 170.172 295.727 170.51 296.369 171.38C296.291 172.473 296.291 172.473 295.953 173.462C294.981 173.948 294.416 173.932 293.333 173.935C292.959 173.936 292.584 173.938 292.197 173.94C291.785 173.94 291.373 173.94 290.948 173.939C290.514 173.941 290.081 173.942 289.634 173.944C288.196 173.948 286.758 173.948 285.319 173.949C284.323 173.95 283.327 173.952 282.332 173.953C280.242 173.956 278.152 173.956 276.063 173.956C273.379 173.956 270.696 173.962 268.012 173.969C265.955 173.974 263.898 173.974 261.841 173.974C260.851 173.975 259.861 173.977 258.871 173.98C257.49 173.984 256.109 173.983 254.728 173.98C254.109 173.984 254.109 173.984 253.478 173.987C253.103 173.985 252.728 173.984 252.342 173.982C251.852 173.982 251.852 173.982 251.352 173.983C250.556 173.879 250.556 173.879 249.723 173.046C249.619 172.005 249.619 172.005 249.723 170.964C250.729 169.957 250.963 170.026 252.339 170.022Z" fill="#030304"/>
<path d="M128.524 69.7568C129.211 70.0317 129.899 70.3066 130.607 70.5898C130.638 70.9839 130.669 71.378 130.701 71.784C131.047 75.4455 131.791 78.7199 133.092 82.1659C133.899 84.3588 134.42 86.3437 133.585 88.6355C132.572 90.2384 131.694 91.451 129.808 92.0796C126.431 92.7322 123.957 92.3503 121.027 90.5813C121.165 89.8941 121.302 89.2068 121.444 88.4988C122.813 88.1658 123.406 88.0421 124.776 88.4988C126.566 88.7 128.029 88.7818 129.617 87.8741C130.476 86.3133 130.209 85.1512 129.774 83.501C129.267 81.8787 128.733 80.27 128.173 78.6658C127.563 76.878 127.205 75.396 127.171 73.5052C127.16 73.153 127.149 72.8008 127.138 72.438C127.301 71.2259 127.726 70.6639 128.524 69.7568Z" fill="#070708"/>
<path d="M123.527 102.244C124.594 102.973 124.594 102.973 125.193 103.493C125.055 104.18 124.918 104.868 124.776 105.576C123.799 105.921 123.308 106.074 122.333 105.668C122.057 105.509 121.781 105.349 121.496 105.185C118.625 103.828 115.328 103.773 112.304 104.704C111.619 104.99 110.94 105.296 110.276 105.628C109.223 106.049 108.407 106.055 107.284 105.992C107.146 105.305 107.009 104.618 106.867 103.91C111.045 99.7321 118.611 99.2294 123.527 102.244Z" fill="#070708"/>
<path d="M122.589 51.7178C123.527 51.8479 123.527 51.8479 123.943 52.2644C124.125 53.2015 124.125 53.2015 123.943 54.3469C120.62 57.9321 115.461 58.7943 110.775 58.9917C109.466 59.0046 108.173 59.0153 106.867 58.9282C106.45 58.5117 106.45 58.5117 106.398 57.4705C106.45 56.4293 106.45 56.4293 106.867 56.0128C107.471 55.9042 108.08 55.8183 108.689 55.7427C109.065 55.6934 109.442 55.644 109.83 55.5931C110.618 55.4928 111.406 55.394 112.195 55.297C115.953 54.7987 119.332 52.088 122.589 51.7178Z" fill="#050506"/>
<path d="M136.437 53.9307C137.426 53.9307 137.426 53.9307 138.519 54.3472C138.893 54.9141 138.893 54.9141 139.274 55.4925C140.772 57.7177 142.837 58.7333 145.339 59.5793C146.849 60.178 146.849 60.178 147.474 61.0891C147.577 61.4627 147.577 61.4627 147.682 61.8439C147.407 62.2563 147.132 62.6686 146.849 63.0934C142.994 62.9069 139.929 61.8212 137.244 58.9546C136.162 57.6052 135.561 56.5475 135.604 54.7636C135.879 54.4888 136.153 54.2139 136.437 53.9307Z" fill="#080809"/>
<path d="M112.698 65.5928C114.728 66.3216 114.728 66.3216 115.197 67.2587C115.418 69.2768 115.556 71.17 114.39 72.9074C113.531 73.9225 113.531 73.9225 113.114 74.339C111.683 74.4432 111.683 74.4432 110.199 74.339C109.164 72.7869 109.148 71.555 109.366 69.7577C110.083 67.7938 110.996 66.7884 112.698 65.5928Z" fill="#060607"/>
<path d="M139.617 68.9768C140.607 69.3412 140.607 69.3412 141.439 70.5907C141.746 72.6582 141.632 74.334 140.763 76.2393C139.774 77.2545 139.774 77.2545 138.498 77.697C137.275 77.671 137.275 77.671 136.596 77.1569C135.566 75.8308 135.561 74.309 135.609 72.6731C136.326 70.633 137.256 68.8643 139.617 68.9768Z" fill="#070809"/>
<path d="M67.7212 67.675C69.2714 67.4489 70.1637 67.3928 71.5281 68.207C73.5093 69.8249 74.7467 71.3839 75.218 73.9223C75.3415 75.1863 75.4189 76.4132 75.218 77.6707C74.9431 77.9456 74.6682 78.2205 74.385 78.5037C73.1628 78.3509 72.7755 78.1437 71.8861 77.2542C71.6811 76.335 71.6811 76.335 71.5216 75.2499C71.1809 73.4169 70.7783 72.3185 69.3871 71.0069C68.2965 70.2615 68.2965 70.2615 67.3047 69.7574C67.4421 69.0702 67.5796 68.383 67.7212 67.675Z" fill="#080809"/>
<path d="M219.322 71.0069C220.599 71.8578 220.914 72.4399 221.379 73.8963C221.41 75.4427 221.119 76.0581 220.155 77.2542C219.096 78.0575 218.579 78.091 217.24 78.0351C215.752 77.6012 215.186 77.2974 214.324 76.0048C213.988 74.3339 214.068 73.1003 214.949 71.6316C216.418 70.7504 217.651 70.6707 219.322 71.0069Z" fill="#006BD5"/>
<path d="M140.603 145.142C144.684 153.21 144.684 153.21 143.986 155.502C142.671 156.817 141.601 156.713 139.77 156.803C140.002 152.912 140.257 149.025 140.603 145.142Z" fill="#006BD5"/>
<path d="M143.101 151.39C144.245 153.105 144.245 153.105 144.351 154.305C143.96 155.424 143.96 155.424 143.101 156.388C141.964 156.696 140.959 156.745 139.77 156.804C139.77 156.529 139.77 156.254 139.77 155.971C140.319 155.834 140.869 155.696 141.435 155.555C141.161 155.417 140.886 155.28 140.603 155.138C140.74 154.726 140.877 154.313 141.019 153.889C141.878 153.602 141.878 153.602 142.685 153.472C142.822 152.785 142.96 152.098 143.101 151.39Z" fill="#006BD5"/>
<path d="M128.109 246.765C128.384 246.765 128.659 246.765 128.942 246.765C129.217 247.04 129.492 247.314 129.775 247.598C130.325 247.598 130.875 247.598 131.441 247.598C132.691 249.293 132.691 249.293 132.691 250.513C130.619 249.983 129.495 249.228 128.109 247.598C128.109 247.323 128.109 247.048 128.109 246.765Z" fill="#090A0E"/>
<path d="M9.41016 241.351C10.2431 241.767 10.2431 241.767 10.8939 242.991C12.1116 245.23 13.9212 247.004 15.6575 248.847C14.408 248.847 14.408 248.847 13.4953 247.936C13.1694 247.55 12.8436 247.163 12.5078 246.765C11.9084 246.056 11.2957 245.358 10.6596 244.682C10.3847 244.682 10.1099 244.682 9.82664 244.682C9.6892 243.583 9.55176 242.483 9.41016 241.351Z" fill="#006BD5"/>
<path d="M45.6445 181.792C46.263 182.204 46.263 182.204 46.894 182.625C47.016 183.708 47.016 183.708 46.9721 184.968C46.9608 185.385 46.9495 185.803 46.9379 186.233C46.9234 186.555 46.9089 186.876 46.894 187.206C46.4817 187.206 46.0693 187.206 45.6445 187.206C45.6445 185.42 45.6445 183.633 45.6445 181.792Z" fill="#006BD5"/>
<path d="M170.173 213.029C170.448 213.167 170.723 213.304 171.006 213.446C170.868 214.683 170.731 215.92 170.589 217.194C170.177 217.332 169.765 217.469 169.34 217.611C169.615 216.099 169.89 214.587 170.173 213.029Z" fill="#F5F4F5"/>
<path d="M4.41501 166.382C4.55245 166.382 4.68989 166.382 4.8315 166.382C4.84279 166.98 4.85084 167.579 4.85753 168.178C4.86236 168.511 4.86719 168.845 4.87217 169.188C4.8315 170.13 4.8315 170.13 4.41501 171.38C4.14013 171.38 3.86524 171.38 3.58203 171.38C3.64074 170.703 3.70195 170.026 3.76424 169.349C3.79807 168.972 3.83189 168.596 3.86674 168.207C3.99852 167.215 3.99852 167.215 4.41501 166.382Z" fill="#006BD5"/>
<path d="M122.696 215.945C122.971 216.083 123.246 216.22 123.529 216.362C123.529 217.736 123.529 219.111 123.529 220.527C122.28 219.277 122.28 219.277 122.176 217.767C122.28 216.362 122.28 216.362 122.696 215.945Z" fill="#006BD5"/>
<path d="M141.436 139.728C141.711 139.728 141.986 139.728 142.269 139.728C142.347 141.133 142.347 141.133 142.269 142.643C141.857 142.918 141.444 143.193 141.02 143.476C141.157 142.239 141.294 141.002 141.436 139.728Z" fill="#F5F5F4"/>
<path d="M202.663 173.879C202.937 173.879 203.212 173.879 203.496 173.879C203.496 175.116 203.496 176.353 203.496 177.627C203.083 177.49 202.671 177.352 202.246 177.211C202.384 176.111 202.521 175.012 202.663 173.879Z" fill="#DDDEDE"/>
<path d="M104.788 127.649C105.595 127.806 105.595 127.806 106.454 128.066C106.591 128.341 106.728 128.616 106.87 128.899C106.32 129.311 105.77 129.724 105.204 130.148C104.929 130.011 104.654 129.873 104.371 129.732C104.509 129.045 104.646 128.357 104.788 127.649Z" fill="#F2F3F3"/>
<path d="M113.949 208.031C114.362 208.237 114.362 208.237 114.782 208.448C114.782 208.86 114.782 209.272 114.782 209.697C115.195 209.835 115.607 209.972 116.032 210.114C116.032 210.389 116.032 210.663 116.032 210.947C115.482 210.947 114.932 210.947 114.366 210.947C114.228 209.985 114.091 209.022 113.949 208.031Z" fill="#F3F4F5"/>
<path d="M28.1513 128.482C28.4262 128.62 28.701 128.757 28.9843 128.899C28.2736 130.058 27.9529 130.504 26.6155 130.877C26.1387 130.929 26.1387 130.929 25.6523 130.981C26.4853 130.148 27.3183 129.315 28.1513 128.482Z" fill="#006BD5"/>
</svg>
