<svg width="18" height="20" viewBox="0 0 18 20" fill="none" xmlns="http://www.w3.org/2000/svg">
<path fill-rule="evenodd" clip-rule="evenodd" d="M4.79233 4.28571V5H2.93441C2.03677 5 1.285 5.68952 1.19056 6.59905L0.00960526 18.0276C-0.01608 18.2765 0.00988817 18.5281 0.0858254 18.7662C0.161763 19.0042 0.285973 19.2233 0.4504 19.4093C0.614827 19.5952 0.815799 19.7439 1.04028 19.8457C1.26476 19.9475 1.50774 20 1.75345 20H16.2465C16.4923 20 16.7352 19.9475 16.9597 19.8457C17.1842 19.7439 17.3852 19.5952 17.5496 19.4093C17.714 19.2233 17.8382 19.0042 17.9142 18.7662C17.9901 18.5281 18.0161 18.2765 17.9904 18.0276L16.8094 6.59905C16.7641 6.16014 16.5609 5.75386 16.2389 5.45858C15.9168 5.1633 15.4989 4.99994 15.0656 5H13.2077V4.28571C13.2077 3.14907 12.7644 2.05898 11.9753 1.25526C11.1862 0.451529 10.1159 0 9 0C7.88406 0 6.81382 0.451529 6.02473 1.25526C5.23563 2.05898 4.79233 3.14907 4.79233 4.28571ZM9 1.42857C8.25604 1.42857 7.54254 1.72959 7.01648 2.26541C6.49042 2.80123 6.19488 3.52795 6.19488 4.28571V5H11.8051V4.28571C11.8051 3.52795 11.5096 2.80123 10.9835 2.26541C10.4575 1.72959 9.74396 1.42857 9 1.42857ZM6.19488 9.28571C6.19488 10.0435 6.49042 10.7702 7.01648 11.306C7.54254 11.8418 8.25604 12.1429 9 12.1429C9.74396 12.1429 10.4575 11.8418 10.9835 11.306C11.5096 10.7702 11.8051 10.0435 11.8051 9.28571V8.57143C11.8051 8.38199 11.879 8.20031 12.0105 8.06635C12.142 7.9324 12.3204 7.85714 12.5064 7.85714C12.6924 7.85714 12.8708 7.9324 13.0023 8.06635C13.1338 8.20031 13.2077 8.38199 13.2077 8.57143V9.28571C13.2077 10.4224 12.7644 11.5124 11.9753 12.3162C11.1862 13.1199 10.1159 13.5714 9 13.5714C7.88406 13.5714 6.81382 13.1199 6.02473 12.3162C5.23563 11.5124 4.79233 10.4224 4.79233 9.28571V8.57143C4.79233 8.38199 4.86621 8.20031 4.99773 8.06635C5.12924 7.9324 5.30762 7.85714 5.49361 7.85714C5.6796 7.85714 5.85797 7.9324 5.98948 8.06635C6.121 8.20031 6.19488 8.38199 6.19488 8.57143V9.28571Z" fill="black"/>
</svg>
