<svg width="20" height="22" viewBox="0 0 20 22" fill="none" xmlns="http://www.w3.org/2000/svg">
<path d="M13.5529 9.21154V4.59615C13.5529 3.57609 13.1523 2.59781 12.4392 1.87651C11.7261 1.15522 10.7589 0.75 9.75045 0.75C8.74196 0.75 7.77479 1.15522 7.06168 1.87651C6.34858 2.59781 5.94796 3.57609 5.94796 4.59615V9.21154M17.4629 7.16744L18.7436 19.4751C18.8146 20.1572 18.2873 20.75 17.6089 20.75H1.89197C1.73197 20.7502 1.57372 20.7163 1.42751 20.6506C1.28129 20.5849 1.15038 20.4888 1.04328 20.3685C0.936174 20.2483 0.855273 20.1066 0.805831 19.9527C0.756388 19.7988 0.73951 19.6361 0.756293 19.4751L2.03798 7.16744C2.06755 6.88391 2.19984 6.62149 2.40936 6.43078C2.61888 6.24006 2.89078 6.13456 3.17265 6.13462H16.3282C16.9123 6.13462 17.4021 6.58077 17.4629 7.16744ZM6.32821 9.21154C6.32821 9.31355 6.28814 9.41137 6.21683 9.4835C6.14552 9.55563 6.04881 9.59615 5.94796 9.59615C5.84711 9.59615 5.75039 9.55563 5.67908 9.4835C5.60777 9.41137 5.56771 9.31355 5.56771 9.21154C5.56771 9.10953 5.60777 9.0117 5.67908 8.93957C5.75039 8.86745 5.84711 8.82692 5.94796 8.82692C6.04881 8.82692 6.14552 8.86745 6.21683 8.93957C6.28814 9.0117 6.32821 9.10953 6.32821 9.21154ZM13.9332 9.21154C13.9332 9.31355 13.8931 9.41137 13.8218 9.4835C13.7505 9.55563 13.6538 9.59615 13.5529 9.59615C13.4521 9.59615 13.3554 9.55563 13.2841 9.4835C13.2127 9.41137 13.1727 9.31355 13.1727 9.21154C13.1727 9.10953 13.2127 9.0117 13.2841 8.93957C13.3554 8.86745 13.4521 8.82692 13.5529 8.82692C13.6538 8.82692 13.7505 8.86745 13.8218 8.93957C13.8931 9.0117 13.9332 9.10953 13.9332 9.21154Z" stroke="#4D4D4D" stroke-width="1.5" stroke-linecap="round" stroke-linejoin="round"/>
</svg>
