<svg width="18" height="18" viewBox="0 0 18 18" fill="none" xmlns="http://www.w3.org/2000/svg">
<path d="M11.4167 4.30556C11.8882 4.30556 12.3403 4.49286 12.6737 4.82625C13.0071 5.15965 13.1944 5.61184 13.1944 6.08333M11.4167 0.75C12.8312 0.75 14.1877 1.3119 15.1879 2.3121C16.1881 3.31229 16.75 4.66885 16.75 6.08333M2.52778 1.63889H6.08333L7.86111 6.08333L5.63889 7.41667C6.59085 9.34692 8.15308 10.9091 10.0833 11.8611L11.4167 9.63889L15.8611 11.4167V14.9722C15.8611 15.4437 15.6738 15.8959 15.3404 16.2293C15.007 16.5627 14.5548 16.75 14.0833 16.75C10.616 16.5393 7.34569 15.0669 4.8894 12.6106C2.43311 10.1543 0.960711 6.88399 0.75 3.41667C0.75 2.94517 0.937301 2.49299 1.2707 2.15959C1.6041 1.82619 2.05628 1.63889 2.52778 1.63889Z" stroke="#606060" stroke-width="1.5" stroke-linecap="round" stroke-linejoin="round"/>
</svg>
