<svg width="15" height="14" viewBox="0 0 15 14" fill="none" xmlns="http://www.w3.org/2000/svg">
<path d="M0.0176923 2.04167C0.649502 1.47664 1.46421 1.16534 2.30769 1.16667H12.6923C13.57 1.16667 14.3715 1.49722 14.9823 2.04167C14.912 1.47773 14.6406 0.959118 14.219 0.583197C13.7973 0.207276 13.2545 -0.000100336 12.6923 3.64192e-08H2.30769C1.74554 -0.000100336 1.20269 0.207276 0.781043 0.583197C0.359398 0.959118 0.087961 1.47773 0.0176923 2.04167ZM0.0176923 4.375C0.649502 3.80997 1.46421 3.49868 2.30769 3.5H12.6923C13.57 3.5 14.3715 3.83056 14.9823 4.375C14.912 3.81106 14.6406 3.29245 14.219 2.91653C13.7973 2.54061 13.2545 2.33323 12.6923 2.33333H2.30769C1.74554 2.33323 1.20269 2.54061 0.781043 2.91653C0.359398 3.29245 0.087961 3.81106 0.0176923 4.375ZM2.30769 4.66667C1.69565 4.66667 1.10868 4.9125 0.675907 5.35008C0.243131 5.78767 0 6.38116 0 7V11.6667C0 12.2855 0.243131 12.879 0.675907 13.3166C1.10868 13.7542 1.69565 14 2.30769 14H12.6923C13.3043 14 13.8913 13.7542 14.3241 13.3166C14.7569 12.879 15 12.2855 15 11.6667V7C15 6.38116 14.7569 5.78767 14.3241 5.35008C13.8913 4.9125 13.3043 4.66667 12.6923 4.66667H9.80769C9.65468 4.66667 9.50794 4.72813 9.39975 4.83752C9.29155 4.94692 9.23077 5.09529 9.23077 5.25C9.23077 5.71413 9.04842 6.15925 8.72384 6.48744C8.39926 6.81563 7.95903 7 7.5 7C7.04097 7 6.60074 6.81563 6.27616 6.48744C5.95158 6.15925 5.76923 5.71413 5.76923 5.25C5.76923 5.09529 5.70845 4.94692 5.60025 4.83752C5.49206 4.72813 5.34532 4.66667 5.19231 4.66667H2.30769Z" fill="#0077EF"/>
</svg>
