<svg width="317" height="289" viewBox="0 0 317 289" fill="none" xmlns="http://www.w3.org/2000/svg">
<path d="M199.017 1.39106C201.331 2.93911 203.219 4.81685 203.949 7.55534C204.432 11.1454 203.974 14.0137 201.894 17.0072C201.521 17.3717 201.148 17.7362 200.764 18.1117C199.533 19.1903 199.533 19.1903 199.428 21.9386C215.159 21.9386 230.891 21.9386 247.098 21.9386C246.882 18.8672 246.882 18.8672 245.275 16.9302C243.313 14.9844 242.862 13.3106 242.809 10.5604C242.866 7.38246 243.513 4.92711 245.84 2.67529C248.327 0.715752 250.542 -0.064195 253.709 0.00410298C256.381 0.347884 258.602 1.61261 260.429 3.57425C262.171 5.86001 262.972 8.25431 262.858 11.1335C262.438 13.9011 261.103 15.9842 259.087 17.8709C258.352 19.0614 258.534 20.1641 258.605 21.5277C259.028 21.5399 259.028 21.5399 259.46 21.5524C260.733 21.5914 262.006 21.6365 263.28 21.6818C263.946 21.7009 263.946 21.7009 264.625 21.7203C265.261 21.7442 265.261 21.7442 265.909 21.7685C266.301 21.7814 266.693 21.7943 267.096 21.8076C268.057 21.9386 268.057 21.9386 268.879 22.7606C269.056 23.5026 269.056 23.5026 269.161 24.4108C269.202 24.7512 269.243 25.0917 269.285 25.4425C269.326 25.8119 269.367 26.1813 269.409 26.5619C269.453 26.9432 269.498 27.3245 269.543 27.7174C269.637 28.5269 269.729 29.3367 269.819 30.1466C269.956 31.3746 270.099 32.6018 270.243 33.829C270.334 34.6171 270.424 35.4053 270.513 36.1935C270.555 36.5563 270.598 36.919 270.642 37.2928C271.191 42.2976 271.191 42.2976 270.934 44.541C270.112 45.3629 270.112 45.3629 269.151 45.4562C268.563 45.4497 268.563 45.4497 267.964 45.4432C267.54 45.4405 267.116 45.4379 266.68 45.4351C266.236 45.4282 265.792 45.4214 265.334 45.4143C264.887 45.4106 264.44 45.4068 263.98 45.403C262.873 45.3933 261.766 45.3798 260.66 45.3629C260.727 45.7072 260.794 46.0516 260.864 46.4063C261.083 47.9129 261.111 49.3378 261.097 50.8594C261.093 51.3711 261.089 51.8828 261.085 52.4101C261.078 52.9901 261.078 52.9901 261.071 53.5819C261.456 53.5733 261.841 53.5647 262.237 53.5558C263.69 53.5275 265.142 53.5071 266.594 53.4916C267.218 53.4834 267.842 53.4723 268.466 53.4579C273.865 53.3368 278.724 53.8221 282.851 57.6914C286.05 60.8074 288.048 64.0195 288.259 68.5512C288.271 72.2151 288.05 75.7901 287.585 79.4272C287.47 80.326 287.361 81.2254 287.253 82.125C286.947 84.6779 286.63 87.2296 286.311 89.7809C286.076 91.66 285.848 93.5398 285.625 95.4203C285.589 95.7262 285.552 96.032 285.515 96.3471C285.003 100.72 284.834 104.984 284.935 109.391C284.978 112.346 284.539 114.682 283.706 117.524C282.615 121.571 282.486 125.906 282.087 130.063C281.851 132.489 281.603 134.913 281.357 137.338C281.256 138.339 281.155 139.339 281.054 140.339C280.496 145.868 279.901 151.392 279.296 156.915C279.248 157.348 279.201 157.781 279.152 158.227C278.909 160.444 278.665 162.661 278.421 164.878C276.985 177.936 275.576 190.996 274.273 204.067C273.487 211.947 272.658 219.817 271.692 227.677C270.958 233.661 270.313 239.655 269.675 245.65C269.569 246.641 269.463 247.632 269.357 248.623C268.936 252.573 268.515 256.524 268.113 260.476C267.975 261.829 267.833 263.181 267.69 264.533C267.628 265.131 267.568 265.729 267.51 266.327C266.977 271.785 266.259 277.283 262.715 281.66C262.461 282.001 262.207 282.342 261.946 282.694C261.032 283.76 260.168 284.445 258.99 285.205C258.638 285.439 258.286 285.673 257.923 285.914C254.44 287.633 250.972 288.006 247.136 287.984C246.664 287.986 246.192 287.988 245.705 287.99C244.135 287.996 242.565 287.993 240.995 287.99C239.864 287.992 238.734 287.996 237.603 287.999C234.858 288.006 232.114 288.006 229.369 288.004C227.136 288.003 224.904 288.003 222.672 288.005C222.353 288.006 222.035 288.006 221.707 288.006C221.06 288.007 220.413 288.008 219.766 288.008C213.706 288.014 207.647 288.012 201.588 288.007C196.052 288.003 190.516 288.008 184.98 288.018C179.287 288.028 173.593 288.032 167.9 288.029C164.707 288.028 161.514 288.029 158.322 288.036C155.604 288.042 152.886 288.042 150.169 288.035C148.784 288.032 147.399 288.031 146.015 288.037C144.509 288.042 143.004 288.038 141.499 288.03C141.067 288.034 140.635 288.038 140.19 288.042C135.193 287.993 130.276 286.292 126.584 282.85C122.606 278.586 121.565 274.258 121.675 268.542C121.757 266.303 122.116 264.124 122.58 261.934C121.511 262.9 120.885 263.914 120.192 265.171C119.127 266.986 118.153 268.147 116.416 269.332C116.145 269.332 115.873 269.332 115.594 269.332C115.619 269.723 115.644 270.114 115.669 270.518C115.763 271.986 115.854 273.454 115.945 274.922C115.985 275.555 116.024 276.187 116.065 276.82C116.663 286.221 116.663 286.221 115.594 287.824C114.816 287.978 114.816 287.978 113.846 287.978C113.292 287.983 113.292 287.983 112.727 287.987C112.319 287.984 111.911 287.981 111.491 287.978C111.06 287.98 110.628 287.981 110.184 287.983C108.729 287.987 107.274 287.982 105.819 287.977C104.779 287.978 103.74 287.98 102.701 287.982C100.165 287.985 97.6296 287.983 95.094 287.978C92.1435 287.973 89.1931 287.973 86.2427 287.974C80.9797 287.975 75.7167 287.971 70.4537 287.963C65.3424 287.955 60.231 287.952 55.1197 287.954C49.5588 287.957 43.998 287.957 38.4371 287.952C37.8446 287.951 37.252 287.951 36.6595 287.95C36.3679 287.95 36.0763 287.95 35.7759 287.95C33.7175 287.948 31.659 287.948 29.6006 287.949C26.832 287.95 24.0634 287.946 21.2949 287.94C20.276 287.938 19.2572 287.938 18.2383 287.939C16.8529 287.94 15.4676 287.937 14.0823 287.932C13.6743 287.933 13.2663 287.935 12.8459 287.936C12.4769 287.934 12.1079 287.931 11.7277 287.929C11.4076 287.929 11.0875 287.928 10.7577 287.928C9.9794 287.824 9.97941 287.824 9.1575 287.003C8.83932 283.923 9.25211 280.721 9.51709 277.647C9.55357 277.204 9.59006 276.761 9.62765 276.305C9.74316 274.905 9.86108 273.505 9.97941 272.105C10.0975 270.7 10.215 269.294 10.3312 267.888C10.4031 267.018 10.4763 266.148 10.5507 265.277C11.1093 261.217 11.1093 261.217 10.0179 257.433C9.84934 257.149 9.68075 256.865 9.50705 256.572C9.23232 256.124 9.23232 256.124 8.95203 255.667C4.08916 247.301 0.632993 237.964 0.116568 228.236C0.100742 227.939 0.0849156 227.642 0.0686099 227.336C-0.756085 208.491 5.88278 190.621 18.4236 176.693C24.7248 169.86 33.592 164.788 42.4446 162.073C42.987 162.073 43.5295 162.073 44.0884 162.073C44.3596 154.75 44.6309 147.427 44.9103 139.882C43.0117 139.882 41.1131 139.882 39.157 139.882C34.73 138.509 31.0984 136.246 28.8832 132.048C27.1671 128.082 26.3269 123.549 27.623 119.313C27.9146 118.632 28.2257 117.959 28.5637 117.3C28.9604 116.254 28.8866 115.844 28.4722 114.814C27.9021 113.921 27.2809 113.08 26.6518 112.228C24.8627 109.143 24.5461 106.133 24.5682 102.614C24.5705 102.179 24.5729 101.744 24.5753 101.296C24.6965 95.9653 26.2886 91.8294 29.7051 87.6909C29.9101 87.4303 30.1151 87.1696 30.3263 86.9011C32.4776 84.4518 35.4296 83.2788 38.3351 81.9376C38.8842 81.6661 39.4329 81.3934 39.9789 81.1157C36.7887 79.3932 33.8414 77.9702 30.2509 77.255C29.2941 77.0062 29.2941 77.0062 28.4722 76.1843C28.6263 75.1055 28.6263 75.1055 28.8832 74.1295C34.1135 72.9274 39.3083 76.0966 43.6774 78.65C43.5719 78.4328 43.4663 78.2157 43.3575 77.9919C42.8711 76.9881 42.3881 75.9826 41.9052 74.9771C41.7391 74.6357 41.5731 74.2943 41.402 73.9425C38.5406 67.9639 38.5406 67.9639 38.6433 65.0886C38.6496 64.7834 38.656 64.4783 38.6625 64.1639C38.746 63.4448 38.746 63.4448 39.157 63.0338C39.8417 63.0171 40.527 63.0163 41.2117 63.0338C42.0781 64.6668 42.6859 66.2079 43.1638 67.9909C44.0444 70.977 45.4041 73.5053 46.9651 76.1843C47.3465 75.8452 47.7279 75.5062 48.1209 75.1569C56.0284 68.4355 64.8316 64.7536 75.3031 65.5974C77.8609 65.9293 80.2851 66.5488 82.7577 67.262C88.7053 68.9751 93.6013 69.6759 99.3357 66.8608C101.361 66.1145 103.186 66.0349 105.32 66.3214C106.876 67.0436 107.572 67.6757 108.582 69.044C109.299 71.3198 108.944 73.5325 108.197 75.7733C108.429 75.7647 108.66 75.7561 108.899 75.7472C109.966 75.7127 111.033 75.6916 112.101 75.6706C112.465 75.6568 112.83 75.643 113.205 75.6288C116.221 75.5845 118.218 76.2894 120.61 78.1058C122.773 80.31 123.854 82.2626 123.993 85.405C123.885 88.6864 122.556 90.9205 120.192 93.1424C116.774 95.8522 113.397 97.6086 109.019 97.5538C109.087 97.8198 109.155 98.0858 109.226 98.3599C110.751 104.36 112.044 110.299 112.717 116.458C112.771 116.948 112.825 117.439 112.881 117.944C113.014 119.504 113.087 121.058 113.128 122.622C113.145 123.258 113.145 123.258 113.162 123.906C113.432 136.09 112.906 150.163 104.561 159.917C101.643 162.962 98.618 164.814 94.6354 166.183C94.2191 166.327 94.2191 166.327 93.7943 166.475C91.1463 167.256 88.3343 167.269 85.5945 167.416C85.4589 168.229 85.3233 169.043 85.1836 169.881C85.9011 170.047 85.9011 170.047 86.6331 170.215C101.414 173.931 111.868 186.856 119.483 199.236C127.101 211.972 127.101 211.972 127.101 214.264C127.372 214.264 127.643 214.264 127.923 214.264C127.917 213.968 127.911 213.673 127.905 213.368C127.871 210.254 128.075 207.225 128.419 204.132C128.496 203.403 128.496 203.403 128.576 202.66C128.741 201.117 128.909 199.574 129.078 198.031C129.187 197.023 129.295 196.014 129.403 195.005C129.622 192.967 129.843 190.929 130.064 188.89C130.36 186.175 130.652 183.459 130.942 180.743C131.334 177.08 131.727 173.417 132.12 169.754C135.254 140.609 135.254 140.609 138.327 111.457C138.554 109.287 138.781 107.117 139.008 104.947C139.153 103.561 139.299 102.175 139.444 100.788C139.478 100.455 139.513 100.123 139.549 99.7795C139.942 96.0279 140.33 92.276 140.709 88.5232C140.956 86.0756 141.208 83.6284 141.461 81.1813C141.56 80.2184 141.656 79.2553 141.751 78.292C143.3 62.5627 143.3 62.5627 149.215 57.5117C152.617 54.9849 156.141 53.974 160.352 53.9085C160.821 53.9003 161.29 53.8921 161.773 53.8837C162.522 53.8734 162.522 53.8734 163.287 53.8629C163.803 53.8543 164.32 53.8458 164.852 53.837C166.218 53.8147 167.584 53.794 168.95 53.7742C170.347 53.7534 171.743 53.7306 173.14 53.7079C175.875 53.664 178.611 53.6224 181.346 53.5819C181.753 50.8696 182.16 48.1574 182.579 45.3629C180.163 45.3792 180.163 45.3792 177.747 45.3999C177.448 45.4009 177.149 45.402 176.84 45.403C176.532 45.4052 176.225 45.4073 175.908 45.4095C175.182 45.3629 175.182 45.3629 174.771 44.9519C174.826 40.6793 175.542 36.448 176.209 32.2381C176.303 31.6354 176.397 31.0326 176.49 30.4298C176.661 29.3254 176.834 28.2213 177.008 27.1174C177.165 26.1011 177.301 25.0814 177.421 24.0599C177.648 22.7606 177.648 22.7606 178.47 21.9386C179.431 21.8453 179.431 21.8453 180.617 21.8584C181.253 21.8624 181.253 21.8624 181.902 21.8664C182.346 21.8733 182.79 21.8802 183.247 21.8873C183.918 21.8928 183.918 21.8928 184.602 21.8985C185.708 21.9082 186.815 21.9218 187.921 21.9386C187.822 19.0427 187.822 19.0427 186.303 16.699C184.507 14.9517 184.094 13.2434 184.043 10.7659C184.099 7.69483 184.9 5.40166 186.953 3.09908C190.522 -0.187227 194.713 -0.72737 199.017 1.39106Z" fill="#030304"/>
<path d="M161.405 62.1646C161.865 62.1647 162.326 62.1647 162.801 62.1647C163.298 62.1668 163.795 62.169 164.307 62.1712C164.816 62.1717 165.325 62.1723 165.849 62.1729C167.201 62.1748 168.553 62.1785 169.905 62.1831C171.285 62.1873 172.665 62.1892 174.045 62.1912C176.752 62.1958 179.459 62.2026 182.166 62.2113C182.234 62.892 182.234 62.892 182.304 63.5864C182.37 64.1865 182.436 64.7865 182.503 65.3865C182.532 65.6851 182.561 65.9836 182.591 66.2912C182.832 68.396 183.273 69.7069 184.782 71.1848C186.26 72.2386 187.374 72.588 189.194 72.5922C189.618 72.5951 190.041 72.598 190.477 72.601C190.94 72.6 191.402 72.599 191.878 72.598C192.367 72.6001 192.855 72.6022 193.359 72.6043C194.698 72.609 196.037 72.6101 197.376 72.609C198.495 72.6086 199.614 72.6106 200.733 72.6126C203.375 72.6171 206.017 72.6173 208.659 72.6148C211.38 72.6123 214.102 72.6174 216.823 72.6261C219.163 72.6334 221.502 72.6358 223.841 72.6345C225.237 72.6338 226.633 72.6348 228.029 72.6406C229.587 72.6456 231.145 72.6428 232.703 72.6381C233.393 72.6428 233.393 72.6428 234.097 72.6476C236.886 72.6288 239.063 72.4415 241.298 70.6181C243.485 67.9717 244.162 65.5868 244.63 62.2113C247.255 62.1903 249.879 62.176 252.504 62.1661C253.395 62.162 254.287 62.1564 255.178 62.1493C256.465 62.1392 257.751 62.1346 259.038 62.131C259.432 62.1268 259.826 62.1225 260.233 62.1182C263.324 62.1177 266.66 62.1485 269.03 64.3688C269.288 64.5998 269.545 64.8307 269.811 65.0687C272.861 68.6852 271.915 73.5133 271.553 77.911C271.239 81.5846 270.886 85.2544 270.52 88.9231C270.18 88.8656 269.84 88.8081 269.49 88.7488C261.8 87.4978 255.482 87.5968 248.667 91.7838C245.281 94.2285 243.059 97.4897 241.343 101.252C241.173 101.612 241.002 101.973 240.827 102.345C238.83 107.294 238.979 113.547 240.797 118.528C243.77 125.156 247.979 129.157 254.785 131.774C256.439 132.299 258.05 132.536 259.779 132.614C260.143 132.631 260.508 132.648 260.883 132.666C261.258 132.682 261.632 132.699 262.019 132.715C262.593 132.742 262.593 132.742 263.178 132.769C264.119 132.812 265.059 132.854 266 132.895C266.065 135.908 265.809 138.823 265.472 141.816C265.416 142.327 265.36 142.838 265.302 143.364C265.18 144.472 265.058 145.58 264.935 146.688C264.634 149.395 264.339 152.104 264.044 154.812C263.976 155.441 263.907 156.07 263.838 156.698C263.129 163.193 262.46 169.691 261.798 176.19C260.745 186.522 259.649 196.849 258.525 207.174C257.278 218.613 257.278 218.613 256.111 230.059C255.463 236.644 254.799 243.228 254.119 249.809C253.957 251.383 253.795 252.956 253.635 254.53C253.484 256.015 253.331 257.501 253.177 258.986C253.092 259.802 253.01 260.619 252.928 261.435C252.043 269.877 252.043 269.877 249.151 273.03C246.327 275.185 243.947 275.96 240.414 275.953C239.904 275.953 239.394 275.953 238.869 275.953C238.317 275.951 237.764 275.948 237.212 275.946C236.644 275.946 236.076 275.945 235.507 275.945C234.016 275.943 232.525 275.939 231.034 275.934C229.511 275.93 227.987 275.928 226.464 275.926C223.478 275.922 220.493 275.915 217.507 275.906C218.093 274.679 218.583 273.943 219.639 273.081C227.69 266.625 227.69 266.625 231.48 257.413C231.455 256.862 231.42 256.31 231.375 255.76C231.006 251.054 231.006 251.054 232.278 249.371C233.329 248.578 233.329 248.578 234.462 247.857C237.726 245.779 239.655 242.605 240.755 238.967C241.618 234.723 240.787 231.415 238.466 227.825C236.445 224.889 233.418 222.299 229.929 221.351C229.627 221.317 229.325 221.284 229.014 221.25C228.518 221.651 228.518 221.651 228.583 222.403C228.601 222.881 228.601 222.881 228.621 223.369C228.634 223.898 228.634 223.898 228.647 224.438C228.669 225.176 228.695 225.915 228.727 226.653C228.796 230.077 227.877 232.85 225.495 235.376C225.257 235.633 225.02 235.891 224.774 236.156C224.546 236.39 224.318 236.624 224.083 236.866C223.785 237.23 223.785 237.23 223.481 237.601C222.85 238.099 222.85 238.099 222.065 238.022C221.153 237.667 220.268 237.283 219.382 236.866C217.002 235.796 214.796 235.339 212.165 235.633C210.653 236.232 209.508 236.849 208.466 238.099C208.144 239.029 208.144 239.029 207.978 240.025C207.913 240.357 207.848 240.689 207.781 241.031C207.736 241.284 207.691 241.537 207.645 241.797C207.161 241.843 207.161 241.843 206.667 241.89C203.744 242.256 201.73 242.737 199.836 245.085C198.962 246.605 198.934 247.869 199.015 249.605C198.786 249.611 198.557 249.617 198.321 249.623C195.83 249.779 193.913 250.383 192.028 252.071C190.751 253.731 190.732 254.845 190.821 256.9C190.738 258.802 190.663 259.591 189.322 260.975C188.441 261.595 187.549 262.199 186.646 262.786C184.95 263.911 184.455 264.518 183.809 266.454C183.433 269.291 183.535 271.386 184.853 273.943C185.041 274.311 185.23 274.68 185.424 275.059C185.569 275.338 185.714 275.618 185.864 275.906C179.155 275.945 172.447 275.974 165.738 275.991C162.623 276 159.508 276.011 156.393 276.03C153.678 276.047 150.962 276.057 148.247 276.061C146.809 276.063 145.372 276.068 143.934 276.08C142.329 276.093 140.723 276.094 139.117 276.093C138.642 276.099 138.167 276.105 137.677 276.111C135.12 276.098 133.543 276.012 131.618 274.262C129.988 272.103 129.485 270.765 129.718 268.093C129.858 266.386 129.987 264.686 130.052 262.975C130.496 251.368 130.496 251.368 132.254 248.607C133.804 247.202 135.61 246.673 137.61 246.182C139.327 245.707 140.868 244.875 142.457 244.083C143.118 243.773 143.779 243.463 144.44 243.155C146.708 242.08 148.92 240.906 151.135 239.726C153.908 238.253 156.705 236.833 159.512 235.427C159.935 235.215 160.357 235.003 160.793 234.784C161.391 234.486 161.391 234.486 162 234.182C162.353 234.006 162.705 233.829 163.069 233.648C166.283 232.125 166.283 232.125 168.193 232.756C169.267 233.368 169.267 233.368 170.376 234.118C173.364 236.073 176.261 237.529 179.7 238.51C179.993 238.595 180.286 238.68 180.588 238.768C187.976 240.58 195.583 239.163 202.199 235.622C209.517 231.18 213.758 224.591 215.976 216.423C216.431 214.384 216.744 212.347 216.788 210.257C216.804 209.802 216.804 209.802 216.82 209.338C216.738 208.479 216.738 208.479 216.191 207.759C215.473 207.181 215.473 207.181 214.556 207.367C213.13 207.763 211.874 208.384 210.569 209.066C210.3 209.204 210.031 209.343 209.754 209.485C209.185 209.779 208.616 210.074 208.048 210.37C207.195 210.815 206.34 211.254 205.484 211.693C204.927 211.981 204.371 212.27 203.814 212.559C203.542 212.7 203.269 212.842 202.989 212.988C201.306 213.878 199.74 214.862 198.17 215.943C196.795 216.835 196.284 217.132 194.611 217.224C192.995 216.632 191.605 215.9 190.153 214.983C189.893 214.825 189.633 214.668 189.364 214.506C188.847 214.187 188.336 213.859 187.832 213.52C187.11 213.023 187.11 213.023 186.359 212.63C185.676 212.201 185.676 212.201 184.631 210.976C184.346 209.254 184.456 207.6 184.58 205.865C184.597 205.404 184.614 204.944 184.631 204.47C184.772 201.884 184.996 200.301 186.686 198.236C187.805 197.525 187.805 197.525 189.089 196.957C189.801 196.635 189.801 196.635 190.527 196.307C191.036 196.085 191.545 195.864 192.054 195.642C192.573 195.41 193.092 195.177 193.61 194.943C194.647 194.475 195.685 194.011 196.724 193.55C198.749 192.645 200.759 191.71 202.764 190.762C203.245 190.539 203.245 190.539 203.736 190.311C205.405 189.53 205.405 189.53 206.823 188.373C206.76 187.064 206.503 186.432 205.675 185.41C201.582 181.711 197.029 179.528 191.617 178.511C190.905 178.371 190.905 178.371 190.179 178.228C181.702 177.471 174.43 179.872 167.782 185.086C162.462 189.696 158.06 196.5 157.097 203.579C156.922 206.453 156.99 209.332 157.097 212.209C151.271 215.045 145.441 217.871 139.555 220.582C139.138 220.775 138.722 220.968 138.292 221.167C137.911 221.341 137.529 221.516 137.136 221.696C136.803 221.849 136.47 222.001 136.127 222.159C135.317 222.482 135.317 222.482 134.495 222.482C134.744 218.703 135.068 214.939 135.474 211.173C135.53 210.653 135.585 210.133 135.642 209.597C135.792 208.185 135.944 206.774 136.095 205.363C136.258 203.849 136.419 202.334 136.581 200.82C137.486 192.34 138.4 183.86 139.315 175.382C140.673 162.807 142.009 150.231 143.346 137.654C143.472 136.46 143.599 135.266 143.726 134.072C143.809 133.29 143.892 132.509 143.975 131.727C144.483 126.947 144.992 122.167 145.506 117.388C145.841 114.275 146.171 111.162 146.5 108.049C146.932 103.956 147.368 99.8634 147.807 95.7711C148.062 93.3918 148.316 91.0123 148.566 88.6325C148.811 86.2953 149.061 83.9586 149.313 81.6222C149.408 80.7411 149.501 79.8598 149.592 78.9783C149.72 77.7517 149.853 76.5256 149.987 75.2996C150.023 74.9429 150.059 74.5862 150.096 74.2186C150.545 70.216 151.533 66.9786 154.632 64.266C156.801 62.8889 158.826 62.1588 161.405 62.1646Z" fill="#FBFBFC"/>
<path d="M40.21 63.0078C40.7059 63.0205 40.7059 63.0205 41.2117 63.0335C42.0781 64.6665 42.6859 66.2076 43.1638 67.9906C44.0444 70.9766 45.4041 73.505 46.9651 76.184C47.3465 75.8449 47.7279 75.5059 48.1209 75.1566C56.0284 68.4352 64.8316 64.7533 75.3031 65.5971C77.8609 65.929 80.2851 66.5485 82.7577 67.2617C88.7053 68.9748 93.6013 69.6755 99.3357 66.8605C101.361 66.1142 103.186 66.0346 105.32 66.3211C106.876 67.0433 107.572 67.6754 108.582 69.0437C109.299 71.3195 108.944 73.5322 108.197 75.773C108.429 75.7644 108.66 75.7558 108.899 75.7469C109.966 75.7124 111.033 75.6913 112.101 75.6703C112.465 75.6565 112.83 75.6427 113.205 75.6285C116.221 75.5842 118.218 76.2891 120.61 78.1055C122.773 80.3097 123.854 82.2623 123.993 85.4047C123.885 88.6861 122.556 90.9202 120.192 93.1421C116.774 95.8519 113.397 97.6083 109.019 97.5534C109.087 97.8195 109.155 98.0855 109.226 98.3596C110.751 104.36 112.044 110.299 112.717 116.457C112.771 116.948 112.825 117.438 112.881 117.944C113.014 119.503 113.087 121.057 113.128 122.621C113.139 123.045 113.151 123.469 113.162 123.906C113.432 136.09 112.906 150.162 104.561 159.917C101.643 162.962 98.6181 164.814 94.6355 166.182C94.3579 166.279 94.0803 166.375 93.7943 166.475C91.1463 167.255 88.3343 167.269 85.5945 167.415C85.4589 168.229 85.3233 169.043 85.1836 169.881C85.9011 170.046 85.9011 170.046 86.6331 170.215C101.807 174.029 112.456 187.516 120.114 200.291C121.149 202.063 122.165 203.846 123.171 205.634C123.414 206.065 123.657 206.497 123.908 206.942C126.523 211.65 127.83 214.568 127.192 220.009C127.105 220.797 127.051 221.588 127 222.378C126.689 225.754 126.689 225.754 125.552 226.939C124.713 227.474 123.913 227.866 122.991 228.236C122.736 228.396 122.48 228.555 122.217 228.719C120.209 229.501 118.143 228.413 116.262 227.645C114.272 226.835 112.338 226.259 110.252 225.77C110.184 225.413 110.184 225.413 110.115 225.048C108.77 218.031 106.956 211.241 104.909 204.401C104.231 204.401 103.553 204.401 102.854 204.401C103.11 207.272 103.844 209.91 104.652 212.671C107.375 222.169 107.375 222.169 107.375 224.948C106.888 224.964 106.4 224.979 105.898 224.995C98.6483 225.269 91.719 226.183 85.3505 229.901C84.9847 230.107 84.9847 230.107 84.6115 230.318C83.9448 230.701 83.2906 231.106 82.6376 231.512C80.9135 231.978 80.338 231.82 78.658 231.358C75.7713 230.651 73.048 230.508 70.0859 230.492C69.5735 230.484 69.0612 230.477 68.5333 230.469C66.9174 230.447 65.3016 230.433 63.6856 230.419C62.5815 230.406 61.4773 230.392 60.3732 230.377C57.6846 230.342 54.9961 230.314 52.3074 230.291C50.0218 225.463 48.5577 220.468 47.0935 215.342C46.7428 214.125 46.3911 212.908 46.038 211.691C45.8205 210.94 45.6045 210.189 45.3903 209.437C44.7755 207.304 44.0727 205.237 43.2665 203.168C42.724 203.168 42.1816 203.168 41.6227 203.168C41.852 205.719 42.2794 208.06 42.9904 210.517C43.0853 210.853 43.1801 211.189 43.2779 211.535C43.4783 212.242 43.68 212.948 43.8831 213.655C44.1876 214.714 44.4875 215.774 44.7867 216.835C45.8354 220.53 46.9514 224.179 48.2425 227.796C48.5865 228.981 48.6872 229.889 48.6089 231.113C47.9613 231.218 47.9613 231.218 47.3006 231.325C42.561 231.967 42.561 231.967 38.3351 233.989C38.019 234.835 38.019 234.835 37.9241 235.633C39.4863 236.058 40.2386 236.056 41.6741 235.325C48.4831 232.437 56.3731 232.998 63.6003 233.059C64.7209 233.067 65.8414 233.068 66.962 233.07C68.3056 233.072 69.6493 233.078 70.9929 233.084C71.4924 233.086 71.9919 233.088 72.5065 233.089C72.9666 233.093 73.4268 233.097 73.9008 233.101C74.5075 233.105 74.5075 233.105 75.1264 233.11C76.1426 233.167 76.1426 233.167 77.3755 233.578C76.8356 234.824 76.3493 235.452 75.2437 236.224C72.3744 238.577 70.8466 242.384 69.9783 245.907C69.764 248.961 70.3263 251.935 70.8003 254.948C70.537 255.097 70.2737 255.247 70.0024 255.401C65.742 257.877 63.0202 259.993 61.3484 264.811C60.8866 266.98 60.689 269.177 60.5265 271.386C55.9579 273.247 51.6248 273.594 46.7293 273.593C45.7454 273.595 44.7623 273.61 43.7786 273.625C32.4956 273.708 22.7453 269.59 14.4999 261.934C14.279 261.617 14.0581 261.301 13.8305 260.974C13.5516 260.636 13.5516 260.636 13.267 260.29C12.7246 260.29 12.1821 260.29 11.6232 260.29C11.4876 260.562 11.352 260.833 11.2123 261.112C11.1116 260.699 11.011 260.286 10.9073 259.86C10.4248 258.175 9.59631 256.748 8.69518 255.256C3.93881 247.044 0.622206 237.76 0.116568 228.236C0.100742 227.939 0.0849156 227.642 0.0686099 227.336C-0.756085 208.491 5.88278 190.621 18.4236 176.692C24.7248 169.859 33.592 164.787 42.4446 162.073C42.987 162.073 43.5295 162.073 44.0884 162.073C44.3596 154.75 44.6309 147.427 44.9103 139.881C43.0117 139.881 41.1131 139.881 39.157 139.881C34.73 138.509 31.0984 136.246 28.8832 132.048C27.1671 128.082 26.3269 123.548 27.623 119.313C27.9146 118.632 28.2257 117.959 28.5637 117.3C28.9604 116.253 28.8866 115.844 28.4722 114.813C27.9021 113.921 27.2809 113.079 26.6518 112.227C24.8627 109.143 24.5461 106.133 24.5682 102.613C24.5705 102.179 24.5729 101.744 24.5753 101.296C24.6965 95.965 26.2886 91.8291 29.7051 87.6906C29.9101 87.43 30.1151 87.1693 30.3263 86.9008C32.4776 84.4515 35.4296 83.2785 38.3351 81.9373C38.8842 81.6658 39.4329 81.3931 39.9789 81.1154C36.7887 79.3928 33.8414 77.9699 30.2509 77.2547C29.2941 77.0059 29.2941 77.0059 28.4722 76.184C28.6263 75.1052 28.6263 75.1052 28.8832 74.1292C34.1135 72.9271 39.3083 76.0963 43.6774 78.6497C43.5191 78.3239 43.5191 78.3239 43.3575 77.9916C42.8711 76.9878 42.3881 75.9823 41.9052 74.9768C41.7391 74.6354 41.5731 74.2939 41.402 73.9422C38.5406 67.9636 38.5406 67.9636 38.6433 65.0883C38.6496 64.7831 38.656 64.478 38.6626 64.1636C38.799 62.988 39.0159 63.0369 40.21 63.0078Z" fill="#006BD5"/>
<path d="M63.4057 93.0332C64.0677 93.2135 64.7296 93.3938 65.3915 93.5742C65.8061 93.6871 66.2207 93.8 66.6478 93.9163C67.4411 94.1334 68.2341 94.3518 69.0264 94.5725C75.0407 96.2462 81.0535 97.5284 87.2409 98.3756C87.5504 98.4194 87.8599 98.4633 88.1788 98.5085C91.7024 98.9375 95.256 98.8312 98.799 98.8122C99.4732 98.8101 100.147 98.8083 100.822 98.8066C102.459 98.8021 104.096 98.795 105.734 98.7865C107 101.674 107.841 104.507 108.456 107.596C108.543 108.03 108.63 108.465 108.72 108.912C110.735 119.28 111.299 130.673 109.432 141.115C109.382 141.402 109.331 141.69 109.278 141.987C107.906 149.379 105.125 156.772 98.7476 161.251C92.5961 164.687 85.0464 165.17 78.2514 163.486C74.6067 162.353 70.7024 160.91 67.5153 158.785C66.6306 158.912 66.6306 158.912 65.8715 159.196C65.8715 159.739 65.8715 160.281 65.8715 160.84C71.3992 163.582 76.6481 165.769 82.7205 167.005C82.0547 171.385 81.3261 175.646 77.5836 178.511C74.1525 180.799 69.3437 180.736 65.4107 179.989C58.1452 178.15 51.6662 173.89 47.7896 167.415C47.0531 165.39 46.8664 163.63 46.8906 161.482C46.8933 161.194 46.8959 160.907 46.8987 160.61C46.9254 158.745 47.0332 156.895 47.1732 155.036C47.339 152.773 47.3903 150.529 47.377 148.261C47.3756 147.984 47.3741 147.706 47.3726 147.42C47.3639 146.007 47.349 144.595 47.3273 143.182C47.3225 142.662 47.3177 142.142 47.3128 141.606C47.3059 141.135 47.299 140.665 47.2918 140.18C47.3786 139.06 47.3786 139.06 48.2005 138.238C48.2005 137.695 48.2005 137.153 48.2005 136.594C47.8445 136.662 47.4886 136.73 47.1218 136.8C42.4128 137.418 38.6454 137.319 34.6391 134.539C31.7389 132.132 30.3646 129.003 29.9629 125.293C29.8135 120.818 30.8694 117.963 33.8975 114.701C36.58 112.135 39.0297 111.789 42.6703 111.823C45.1511 112.022 46.2867 112.9 48.0464 114.66C49.3377 116.324 50.194 118.254 51.0772 120.156C52.5307 120.156 53.4854 120.091 54.6698 119.217C60.1459 113.476 62.804 103.932 63.226 96.1924C63.2526 95.7359 63.2526 95.7359 63.2797 95.2702C63.323 94.5246 63.3646 93.7789 63.4057 93.0332Z" fill="#FBFBFC"/>
<path d="M207.133 90.8503C207.478 90.8349 207.824 90.8195 208.179 90.8037C209.746 91.0505 210.541 91.6022 211.756 92.6225C212.489 93.6513 213.029 94.7495 213.58 95.8844C213.934 96.5865 214.289 97.2886 214.644 97.9906C214.837 98.3773 215.029 98.764 215.228 99.1624C215.926 100.55 216.639 101.93 217.357 103.307C219.846 108.088 222.311 112.88 224.706 117.709C225.802 119.912 226.936 122.093 228.091 124.266C229.824 127.526 231.481 130.823 233.125 134.129C234.88 137.655 236.654 141.168 238.502 144.647C240.157 147.765 241.779 150.899 243.399 154.034C243.536 154.299 243.674 154.565 243.815 154.838C245.488 158.074 245.488 158.074 246.276 159.608C246.435 159.908 246.594 160.209 246.758 160.519C247.514 162.148 247.345 164.032 247.098 165.772C246.429 167.173 245.503 168.009 244.102 168.705C237.918 170.673 228.981 169.06 222.507 168.896C215.334 168.715 208.161 168.6 200.987 168.519C197.893 168.483 194.8 168.441 191.707 168.4C189.061 168.365 186.414 168.334 183.767 168.31C181.151 168.287 178.535 168.253 175.919 168.213C174.935 168.2 173.951 168.19 172.968 168.184C171.606 168.175 170.245 168.153 168.883 168.129C168.485 168.129 168.088 168.13 167.678 168.13C165.057 168.066 163.221 167.5 161.209 165.772C159.95 163.962 159.836 162.6 159.976 160.43C161.508 156.216 164.23 152.444 166.69 148.73C168.007 146.726 169.293 144.702 170.584 142.682C170.865 142.242 171.146 141.803 171.435 141.35C173.471 138.167 175.501 134.979 177.528 131.79C179.619 128.502 181.721 125.219 183.823 121.937C185.648 119.087 187.467 116.232 189.282 113.376C191.116 110.489 192.959 107.61 194.827 104.745C195.915 103.071 196.983 101.386 198.037 99.6905C198.421 99.0763 198.421 99.0763 198.813 98.4497C199.315 97.6473 199.813 96.8431 200.308 96.0369C202.061 93.2391 203.618 90.9514 207.133 90.8503Z" fill="#010102"/>
<path d="M40.2093 63.0078C40.7051 63.0205 40.7051 63.0205 41.211 63.0335C42.0774 64.6665 42.6852 66.2076 43.163 67.9906C44.0437 70.9766 45.4034 73.505 46.9643 76.184C47.5364 75.6754 47.5364 75.6754 48.1201 75.1566C56.0276 68.4352 64.8308 64.7533 75.3023 65.5971C77.8601 65.929 80.2844 66.5485 82.7569 67.2617C88.7046 68.9748 93.6006 69.6755 99.335 66.8605C101.361 66.1142 103.185 66.0346 105.319 66.3211C106.875 67.0433 107.571 67.6754 108.581 69.0437C109.298 71.3195 108.943 73.5322 108.196 75.773C108.428 75.7644 108.66 75.7558 108.898 75.7469C109.966 75.7124 111.033 75.6913 112.1 75.6703C112.465 75.6565 112.829 75.6427 113.205 75.6285C116.22 75.5842 118.218 76.2891 120.61 78.1055C122.772 80.3097 123.853 82.2623 123.992 85.4047C123.884 88.6861 122.555 90.9202 120.191 93.1421C116.773 95.8519 113.396 97.6083 109.018 97.5534C109.086 97.8195 109.154 98.0855 109.225 98.3596C110.75 104.36 112.043 110.299 112.717 116.457C112.771 116.948 112.825 117.438 112.88 117.944C113.014 119.503 113.087 121.057 113.128 122.621C113.139 123.045 113.15 123.469 113.161 123.906C113.431 136.09 112.905 150.162 104.56 159.917C101.642 162.962 98.6173 164.814 94.6347 166.182C94.3571 166.279 94.0795 166.375 93.7935 166.475C91.1456 167.255 88.3336 167.269 85.5938 167.415C85.5334 167.803 85.473 168.191 85.4108 168.59C84.6382 173.013 83.5955 177.643 79.8116 180.493C74.9733 183.441 69.2495 183.8 63.762 182.62C56.5108 180.478 49.8111 176.119 45.8824 169.587C44.0832 166.169 44.0553 163.27 44.2418 159.479C44.2835 158.531 44.3247 157.583 44.3654 156.636C44.3874 156.127 44.4095 155.618 44.4322 155.094C44.5581 152.062 44.6408 149.028 44.7298 145.994C44.7479 145.384 44.766 144.773 44.7841 144.162C44.8264 142.735 44.8682 141.308 44.9096 139.881C44.524 139.891 44.1385 139.9 43.7413 139.909C42.9751 139.92 42.9751 139.92 42.1934 139.931C41.6892 139.94 41.1851 139.95 40.6656 139.959C36.7776 139.759 33.7313 137.788 30.9902 135.139C27.7129 131.351 27.0554 126.943 27.099 122.09C27.2647 120.283 27.7398 118.905 28.563 117.3C28.9597 116.253 28.8858 115.844 28.4715 114.813C27.9014 113.921 27.2802 113.079 26.6511 112.227C24.862 109.143 24.5454 106.133 24.5675 102.613C24.5698 102.179 24.5722 101.744 24.5746 101.296C24.6958 95.965 26.2879 91.8291 29.7043 87.6906C29.9094 87.43 30.1144 87.1693 30.3256 86.9008C32.4769 84.4515 35.4289 83.2785 38.3343 81.9373C38.8835 81.6658 39.4321 81.3931 39.9781 81.1154C36.7879 79.3928 33.8407 77.9699 30.2501 77.2547C29.2934 77.0059 29.2934 77.0059 28.4715 76.184C28.6256 75.1052 28.6256 75.1052 28.8824 74.1292C34.1127 72.9271 39.3075 76.0963 43.6767 78.6497C43.5183 78.3239 43.5183 78.3239 43.3568 77.9916C42.8703 76.9878 42.3874 75.9823 41.9045 74.9768C41.7384 74.6354 41.5723 74.2939 41.4012 73.9422C38.5399 67.9636 38.5399 67.9636 38.6425 65.0883C38.6489 64.7831 38.6553 64.478 38.6618 64.1636C38.7983 62.988 39.0152 63.0369 40.2093 63.0078ZM63.4024 93.033C63.3966 93.417 63.3907 93.8011 63.3847 94.1968C63.0813 102.553 60.6439 112.473 54.9361 118.835C53.9735 119.721 53.3489 120.146 52.0274 120.202C51.7127 120.187 51.398 120.172 51.0738 120.156C50.8995 119.799 50.7253 119.442 50.5457 119.074C48.2819 114.549 48.2819 114.549 44.0877 111.937C40.1918 111.635 37.3301 111.721 34.2682 114.215C31.9825 116.317 30.2702 119.048 30.0174 122.198C29.9307 126.32 30.4198 129.697 32.992 133.024C35.2098 135.307 37.8816 136.819 41.0633 137.17C43.4644 137.193 45.8372 137.043 48.1972 136.594C47.8376 138.597 47.8376 138.597 47.3753 139.06C47.3441 139.894 47.3412 140.73 47.3496 141.565C47.353 142.087 47.3565 142.608 47.36 143.146C47.3626 143.422 47.3651 143.699 47.3677 143.984C47.4046 148.174 47.3704 152.327 47.0606 156.509C46.6265 163.064 47.0688 167.173 51.4848 172.347C54.5073 175.391 58.293 177.206 62.1695 178.922C62.7019 179.159 62.7019 179.159 63.2451 179.402C66.9008 180.749 72.2411 180.972 75.8594 179.436C76.6724 178.991 76.6725 178.991 77.3747 178.511C77.7477 178.282 78.1206 178.053 78.5049 177.817C81.478 174.762 82.0609 171.054 82.7171 167.004C82.2107 166.88 81.7042 166.755 81.1825 166.627C75.7451 165.262 70.8499 163.43 65.8681 160.84C66.0037 160.162 66.1393 159.484 66.279 158.785C68.074 159.036 69.4141 159.705 71.005 160.557C77.9545 164.171 86.7567 165.681 94.3891 163.32C100.371 160.936 103.869 157.152 106.552 151.388C112.705 136.842 111.773 116.539 106.963 101.663C106.568 100.696 106.151 99.7422 105.73 98.7863C105.151 98.796 105.151 98.796 104.56 98.8059C96.9156 98.9221 89.4448 98.9345 81.8952 97.5534C81.5613 97.494 81.2275 97.4346 80.8835 97.3734C76.2622 96.5318 71.7719 95.3004 67.2711 93.9656C65.9894 93.5881 64.7214 93.2582 63.4024 93.033Z" fill="#010202"/>
<path d="M201.071 185.086C201.771 185.756 202.459 186.438 203.126 187.141C192.206 192.991 192.206 192.991 186.817 195.026C184.656 195.868 183.513 196.932 182.579 199.059C182.279 200.549 182.238 202.062 182.168 203.579C182.151 203.916 182.135 204.253 182.119 204.6C182.07 205.749 182.04 206.898 182.014 208.048C181.998 208.424 181.982 208.801 181.966 209.189C181.943 211.029 181.939 211.91 183.084 213.408C183.46 213.69 183.835 213.973 184.222 214.264C184.695 214.632 184.695 214.632 185.178 215.007C186.223 215.728 187.274 216.439 188.332 217.14C188.678 217.377 189.025 217.614 189.382 217.858C189.892 218.189 189.892 218.189 190.412 218.527C190.714 218.725 191.015 218.924 191.326 219.128C193.442 220.035 195.122 220.407 197.333 219.56C198.686 218.875 199.994 218.137 201.303 217.372C202.249 216.84 203.195 216.309 204.142 215.779C204.6 215.52 205.057 215.26 205.528 214.993C207.241 214.03 208.974 213.118 210.729 212.235C210.994 212.097 211.259 211.959 211.532 211.817C212.142 211.511 212.77 211.239 213.4 210.976C213.671 211.112 213.942 211.247 214.222 211.387C212.994 219.08 210.109 226.032 203.948 231.113C197.487 235.74 190.375 237.383 182.523 236.338C177.32 235.384 172.67 233.049 169.017 229.225C168.229 228.534 168.229 228.534 167.231 228.76C166.152 229.055 165.292 229.429 164.308 229.957C163.953 230.146 163.597 230.335 163.231 230.53C162.652 230.841 162.652 230.841 162.062 231.159C161.208 231.612 160.354 232.063 159.5 232.514C159.045 232.754 158.59 232.994 158.121 233.241C155.63 234.542 153.121 235.804 150.609 237.064C150.222 237.258 150.222 237.258 149.827 237.456C148.513 238.115 147.198 238.773 145.882 239.431C144.528 240.108 143.175 240.787 141.822 241.467C140.766 241.997 139.709 242.526 138.652 243.055C137.911 243.425 137.171 243.798 136.431 244.17C135.761 244.504 135.761 244.504 135.078 244.845C134.687 245.041 134.296 245.236 133.892 245.438C132.991 245.845 132.175 246.121 131.21 246.318C130.441 244.358 129.801 242.413 129.232 240.385C128.186 236.94 126.459 234.348 123.812 231.935C124.223 230.702 124.223 230.702 125.295 230.043C125.77 229.808 126.246 229.573 126.736 229.331C126.996 229.201 127.256 229.072 127.524 228.938C128.382 228.511 129.243 228.091 130.105 227.671C130.705 227.375 131.305 227.079 131.904 226.783C136.602 224.47 141.343 222.255 146.1 220.068C148.983 218.742 151.849 217.382 154.711 216.01C155.153 215.799 155.596 215.588 156.051 215.37C156.454 215.177 156.857 214.983 157.271 214.784C157.626 214.613 157.981 214.443 158.347 214.267C159.134 213.915 159.134 213.915 159.565 213.442C159.576 212.881 159.56 212.32 159.533 211.76C159.236 203.17 161.191 196.232 166.911 189.632C175.816 180.374 190.142 177.533 201.071 185.086Z" fill="#006BD5"/>
<path d="M10.8037 261.935C11.7098 262.82 12.511 263.664 13.2694 264.683C18.8831 271.416 29.0628 274.98 37.5155 275.907C39.7566 276.037 41.9993 276.043 44.2435 276.037C45.2677 276.035 46.2915 276.045 47.3158 276.055C50.9126 276.069 54.1659 275.851 57.662 274.939C58.9466 274.661 60.0409 274.563 61.3507 274.674C62.224 275.591 62.224 275.591 62.9945 276.806C65.1153 279.939 67.4931 281.96 71.1445 283.136C75.3567 283.932 79.4652 283.388 83.1312 281.161C83.9913 280.543 84.7915 279.883 85.5969 279.195C85.9889 278.863 86.3809 278.531 86.7848 278.19C87.4556 277.621 88.1259 277.053 88.7952 276.482C90.515 275.021 92.2559 273.589 94.0214 272.183C94.2577 271.992 94.494 271.801 94.7375 271.604C96.0178 270.593 97.1948 269.844 98.7473 269.332C99.0525 269.586 99.3576 269.84 99.672 270.102C101.637 271.621 102.789 272.012 105.323 271.797C107.247 271.174 107.247 271.174 108.745 269.897C109.432 269.332 109.432 269.332 110.588 269.301C111.236 269.38 111.236 269.38 111.898 269.46C112.33 269.509 112.762 269.559 113.208 269.609C113.589 269.653 113.971 269.697 114.364 269.743C114.77 269.743 115.177 269.743 115.596 269.743C115.715 271.548 115.832 273.353 115.948 275.158C115.987 275.771 116.027 276.383 116.067 276.996C116.673 286.21 116.673 286.21 115.596 287.825C114.818 287.979 114.818 287.979 113.848 287.979C113.295 287.983 113.295 287.983 112.73 287.987C112.118 287.983 112.118 287.983 111.494 287.978C111.062 287.98 110.631 287.982 110.186 287.983C108.731 287.987 107.276 287.982 105.821 287.978C104.782 287.979 103.742 287.98 102.703 287.982C100.167 287.986 97.6319 287.983 95.0963 287.978C92.1459 287.973 89.1955 287.973 86.245 287.974C80.982 287.976 75.7191 287.971 70.4561 287.963C65.3447 287.955 60.2334 287.952 55.122 287.954C49.5612 287.957 44.0003 287.957 38.4395 287.952C37.8469 287.952 37.2544 287.951 36.6618 287.951C36.3703 287.95 36.0787 287.95 35.7783 287.95C33.7198 287.948 31.6614 287.948 29.6029 287.949C26.8344 287.95 24.0658 287.947 21.2972 287.94C20.2784 287.938 19.2595 287.938 18.2407 287.939C16.8553 287.94 15.47 287.937 14.0846 287.932C13.4726 287.934 13.4726 287.934 12.8483 287.936C12.4793 287.934 12.1102 287.932 11.73 287.929C11.2499 287.929 11.2499 287.929 10.7601 287.928C9.98177 287.825 9.98177 287.825 9.15986 287.003C8.83716 283.892 9.25738 280.652 9.51944 277.546C9.55593 277.096 9.59242 276.647 9.63001 276.183C9.74556 274.764 9.86362 273.345 9.98177 271.926C10.0611 270.957 10.1403 269.987 10.2193 269.018C10.4122 266.657 10.6071 264.296 10.8037 261.935Z" fill="#006BD5"/>
<path d="M121.358 233.239C125.365 236.632 127.543 240.785 128.054 246.004C128.206 250.192 127.199 253.311 124.456 256.478C123.709 257.089 123.112 257.25 122.17 257.414C122.135 257.031 122.099 256.648 122.063 256.254C121.267 249.033 118.625 243.385 113.129 238.51C111.803 237.626 111.369 237.606 109.842 237.689C109.956 239.121 110.177 239.666 111.195 240.713C111.588 241.037 111.98 241.361 112.385 241.695C116.632 245.393 118.774 249.924 119.464 255.502C119.577 259.502 118.76 262.886 115.972 265.84C114.749 266.795 113.839 266.866 112.307 266.866C110.835 265.366 110.847 263.745 110.715 261.755C110.095 254.972 107.004 250.005 102.748 244.81C101.797 244.083 101.146 244.16 99.9789 244.264C100.193 245.847 100.516 246.615 101.648 247.731C105.437 251.886 108.138 257.474 108.378 263.142C108.265 265.226 107.67 266.935 106.22 268.484C104.988 269.083 104.211 269.114 102.856 268.921C100.172 267.387 99.3669 264.544 98.3101 261.807C96.5419 257.245 94.1241 253.221 91.3489 249.195C89.764 249.466 88.3546 249.932 86.8542 250.505C84.18 251.475 81.4786 252.287 78.7379 253.048C78.3398 253.161 77.9417 253.274 77.5316 253.39C77.1568 253.492 76.7819 253.594 76.3958 253.7C76.0601 253.792 75.7244 253.884 75.3785 253.979C74.4999 254.127 74.4999 254.127 73.2671 253.716C72.1425 248.906 71.9602 245.405 74.4999 240.976C79.8021 233.813 90.4101 229.302 99.0144 227.946C107.071 226.94 114.722 228.472 121.358 233.239Z" fill="#FAFBFB"/>
<path d="M279.154 125.088C280.637 130.123 278.678 136.856 278.096 142.021C277.474 147.542 276.871 153.065 276.289 158.59C276.255 158.912 276.221 159.235 276.186 159.567C276.008 161.252 275.831 162.937 275.654 164.622C275.254 168.421 274.853 172.22 274.451 176.019C274.408 176.418 274.366 176.817 274.323 177.228C273.192 187.91 272.037 198.589 270.881 209.268C269.866 218.653 268.854 228.039 267.866 237.427C267.724 238.774 267.582 240.122 267.44 241.469C267.347 242.35 267.254 243.231 267.161 244.111C267.116 244.542 267.07 244.972 267.023 245.416C266.759 247.922 266.497 250.429 266.235 252.936C266.073 254.486 265.91 256.037 265.746 257.587C265.671 258.294 265.598 259.001 265.525 259.708C265.141 263.419 264.712 267.124 264.203 270.82C264.162 271.151 264.12 271.482 264.077 271.823C263.462 276.094 261.642 279.625 258.202 282.293C255.582 284.03 253.133 284.666 249.977 284.537C250.256 284.334 250.536 284.13 250.824 283.921C256.881 278.766 258.073 271.846 258.876 264.251C258.935 263.719 258.994 263.187 259.055 262.639C259.217 261.167 259.376 259.694 259.533 258.221C259.67 256.947 259.81 255.673 259.949 254.399C260.468 249.652 260.977 244.903 261.483 240.154C261.526 239.75 261.57 239.345 261.614 238.928C262.808 227.738 263.99 216.547 265.168 205.355C265.777 199.569 266.387 193.784 266.999 187.999C267.038 187.627 267.078 187.255 267.118 186.872C267.538 182.905 267.958 178.938 268.379 174.972C268.527 173.581 268.675 172.189 268.823 170.798C268.859 170.458 268.895 170.118 268.932 169.767C269.427 165.104 269.916 160.44 270.401 155.777C270.665 153.23 270.932 150.684 271.199 148.138C271.414 146.091 271.626 144.043 271.837 141.995C271.966 140.747 272.097 139.5 272.229 138.252C272.289 137.677 272.348 137.101 272.407 136.526C272.486 135.741 272.57 134.956 272.653 134.171C272.722 133.515 272.722 133.515 272.791 132.845C273.167 130.61 273.767 129.463 275.61 128.144C276.906 127.206 278.046 126.244 279.154 125.088Z" fill="#F9F9F9"/>
<path d="M216.277 238.51C220.889 239.978 224.731 243.744 226.962 247.962C228.779 251.624 229.221 255.355 228.363 259.37C227.045 263.239 223.889 266.031 220.835 268.601C219.855 269.434 218.917 270.307 217.972 271.181C212.586 275.985 207.639 277.843 200.424 277.688C199.017 277.55 199.017 277.55 198.195 276.728C200.84 274.491 200.84 274.491 203.538 272.208C203.088 269.957 202.437 269.334 200.79 267.944C200.337 267.545 199.885 267.144 199.435 266.742C199.111 266.455 199.111 266.455 198.781 266.161C196.049 263.693 193.93 260.542 193.238 256.874C193.264 255.359 193.264 255.359 194.009 254.152C195.324 252.912 196.241 252.719 198.057 252.758C201.951 253.305 204.827 256.159 207.236 259.057C208.931 261.388 210.524 263.847 211.757 266.455C212.435 266.455 213.113 266.455 213.812 266.455C213.628 264.195 213.011 262.63 211.757 260.778C211.592 260.53 211.427 260.281 211.257 260.025C208.959 256.637 206.349 253.805 203.024 251.403C201.934 250.547 201.898 250.05 201.714 248.655C201.91 247.006 202.282 246.494 203.539 245.433C205.271 244.698 206.862 244.96 208.602 245.541C214.334 248.337 218.34 252.498 221.209 258.236C221.887 258.1 222.565 257.964 223.263 257.825C222.907 253.996 219.823 250.39 217.083 247.804C215.702 246.666 214.241 245.643 212.765 244.631C211.791 243.878 211.144 243.268 210.524 242.208C210.575 240.719 210.575 240.719 210.935 239.332C212.71 238.148 214.194 238.231 216.277 238.51Z" fill="#FAFAFB"/>
<path d="M89.2933 252.482C91.6804 253.281 92.6682 255.751 93.8137 257.825C96.7323 263.818 96.7323 263.818 96.6904 266.455C95.8402 267.442 95.1408 268.099 94.122 268.869C93.8588 269.081 93.5957 269.292 93.3246 269.51C92.7884 269.94 92.2489 270.366 91.7062 270.788C90.6379 271.619 89.5939 272.479 88.5484 273.338C88.1861 273.631 87.8237 273.923 87.4504 274.224C86.4453 275.061 85.4956 275.937 84.5416 276.831C81.5133 279.565 78.1465 280.997 74.0816 280.954C71.0458 280.668 68.3817 279.337 66.28 277.14C63.8031 273.555 63.0127 270.823 63.4033 266.455C64.1909 263.53 65.8666 260.923 68.4413 259.291C72.3559 257.245 76.4667 256.164 80.7147 255.025C81.8166 254.725 82.9181 254.423 84.0195 254.12C84.6997 253.934 85.3802 253.749 86.0612 253.566C87.7165 253.133 87.7165 253.133 89.2933 252.482Z" fill="#006BD5"/>
<path d="M297.648 5.91185C298.055 6.18308 298.462 6.4543 298.881 6.73375C298.744 9.57893 297.019 11.2209 295.272 13.305C294.142 14.7188 293.574 15.4894 293.348 17.3254C293.64 19.3562 294.287 20.8228 295.894 22.0883C297.617 23.0891 299.249 23.5022 301.226 23.1686C303.279 22.2805 304.534 20.3791 305.867 18.6514C306.155 18.2901 306.443 17.9288 306.739 17.5565C307.418 16.696 308.086 15.8291 308.744 14.9528C310.336 15.672 310.336 15.672 310.799 16.5966C311.147 21.4841 310.845 25.2832 307.717 29.259C304.788 32.3001 301.37 33.0624 297.314 33.3942C294.526 33.616 294.526 33.616 292.255 35.1408C291.846 35.6606 291.453 36.192 291.073 36.7332C290.591 37.3031 290.102 37.8681 289.609 38.4284C289.37 38.7007 289.131 38.973 288.885 39.2535C286.489 41.9234 286.489 41.9234 284.827 42.257C283.222 42.3392 282.237 42.1823 280.799 41.4335C279.702 40.0961 279.566 39.28 279.566 37.5551C280.305 35.403 281.389 33.842 282.766 32.0452C285.043 29.1961 285.043 29.1961 285.61 25.7611C285.065 24.5186 284.435 23.4709 283.676 22.3499C282.747 19.7458 282.76 16.3345 283.7 13.7633C286.555 8.72638 291.733 5.25456 297.648 5.91185Z" fill="#020202"/>
<path d="M303.398 130.02C305.377 129.94 306.899 130.096 308.74 130.841C309.375 131.476 309.229 132.144 309.28 133.025C309.414 134.431 309.468 134.84 310.41 135.953C310.673 136.165 310.935 136.376 311.206 136.595C311.206 136.866 311.206 137.137 311.206 137.417C311.753 137.201 311.753 137.201 312.311 136.98C313.734 136.577 314.374 136.421 315.727 137.006C316.957 138.787 317.087 140.218 316.959 142.348C316.493 142.56 316.027 142.772 315.547 142.99C314.252 143.734 314.113 143.91 313.569 145.405C313.701 147.288 314.396 147.659 315.727 148.923C315.8 150.346 315.217 151.236 314.417 152.365C313.261 153.444 313.261 153.444 312.028 153.444C310.795 153.033 310.795 153.033 309.716 152.545C308.75 152.095 308.75 152.095 307.867 152.571C307.613 152.723 307.359 152.876 307.097 153.033C306.69 153.033 306.283 153.033 305.864 153.033C305.593 154.253 305.321 155.474 305.042 156.731C304.391 156.754 303.741 156.77 303.09 156.783C302.728 156.792 302.365 156.802 301.992 156.812C300.838 156.724 300.204 156.625 299.289 155.91C299.096 154.884 299.096 154.884 299.083 153.675C299.094 151.97 299.094 151.97 298.165 150.622C297.054 150.066 296.497 150.088 295.282 150.285C294.953 150.334 294.625 150.383 294.286 150.434C294.039 150.478 293.791 150.522 293.535 150.567C292.173 148.765 291.665 147.537 291.48 145.225C292.078 144.843 292.078 144.843 292.688 144.454C293.958 143.722 293.958 143.722 294.357 142.759C294.563 141.578 294.563 141.578 294.357 140.293C294.01 139.946 293.662 139.598 293.304 139.24C292.302 138.239 292.302 138.239 292.225 137.237C292.916 135.748 293.815 134.645 295.179 133.718C296.668 133.718 297.215 134.117 298.467 134.951C299.849 134.809 300.994 134.465 302.165 133.718C302.627 132.829 302.627 132.829 302.884 131.817C302.984 131.482 303.084 131.146 303.186 130.8C303.256 130.542 303.326 130.285 303.398 130.02Z" fill="#030303"/>
<path d="M195.32 45.3633C212.408 45.3633 229.495 45.3633 247.1 45.3633C246.689 49.4728 246.689 49.4728 245.867 53.5823C229.729 53.5823 213.591 53.5823 196.964 53.5823C195.32 47.0071 195.32 47.0071 195.32 45.3633Z" fill="#F9FAFA"/>
<path d="M309.281 178.87C310.991 179.586 311.626 181.009 312.441 182.62C313.269 185.106 313.27 188.425 312.599 190.976C311.609 192.909 309.771 194.296 307.92 195.36C307.535 195.414 307.15 195.468 306.754 195.524C304.647 196.59 304.277 198.504 303.488 200.641C303.314 201.088 303.14 201.535 302.96 201.996C302.405 203.428 301.861 204.864 301.319 206.301C300.774 207.729 300.225 209.155 299.673 210.58C299.331 211.467 298.992 212.355 298.658 213.245C296.274 219.47 296.274 219.47 294.359 220.428C292.594 220.627 291.761 220.618 290.275 219.606C289.219 218.07 289.231 216.877 289.427 215.085C289.872 213.629 289.872 213.629 290.495 212.162C290.606 211.896 290.717 211.629 290.831 211.355C291.067 210.789 291.306 210.225 291.547 209.662C292.048 208.491 292.535 207.315 293.023 206.138C293.265 205.554 293.508 204.971 293.752 204.387C294.73 202.043 295.674 199.689 296.568 197.312C296.687 197.004 296.807 196.697 296.93 196.38C297.341 195.275 297.669 194.371 297.56 193.184C297.034 192.047 296.295 191.051 295.592 190.017C294.585 186.997 295.452 184.929 296.625 182.074C297.263 180.927 297.74 180.382 298.879 179.743C300.009 179.872 300.009 179.872 300.934 180.154C301.292 181.587 301.307 182.445 300.934 183.853C300.694 185.274 300.694 185.274 300.934 186.73C301.995 187.976 302.641 188.647 304.252 188.938C305.812 188.985 306.611 188.835 307.92 187.962C308.022 186.61 307.987 185.413 307.715 184.084C307.424 182.597 307.435 181.26 307.509 179.743C308.331 178.921 308.331 178.921 309.281 178.87Z" fill="#020203"/>
<path d="M206.416 113.581C208.037 114.453 209.073 115.126 209.704 116.868C209.728 118.021 209.728 118.021 209.611 119.421C209.579 119.815 209.579 119.815 209.546 120.218C209.468 121.156 209.381 122.094 209.293 123.032C209.259 123.403 209.226 123.774 209.191 124.156C208.96 126.709 208.711 129.261 208.452 131.812C208.361 132.713 208.273 133.613 208.186 134.514C208.06 135.83 207.928 137.144 207.794 138.459C207.738 139.062 207.738 139.062 207.681 139.676C207.471 141.654 207.302 143.218 206.005 144.813C204.57 145.769 203.995 145.842 202.307 145.635C201.111 144.74 200.707 144.25 200.454 142.762C200.453 142.283 200.452 141.803 200.45 141.309C200.447 141.044 200.444 140.779 200.441 140.505C200.434 139.63 200.439 138.755 200.445 137.88C200.443 137.27 200.442 136.66 200.44 136.05C200.437 134.772 200.441 133.494 200.449 132.216C200.458 130.581 200.453 128.946 200.443 127.311C200.437 126.051 200.439 124.791 200.443 123.532C200.444 122.929 200.443 122.326 200.439 121.723C200.435 120.879 200.441 120.036 200.45 119.192C200.451 118.712 200.453 118.233 200.454 117.739C200.706 116.195 201.233 115.518 202.307 114.403C203.65 113.462 204.801 113.387 206.416 113.581Z" fill="#FBFBFC"/>
<path d="M236.766 24.6951C237.038 24.6969 237.31 24.6986 237.59 24.7004C238.457 24.7073 239.324 24.7228 240.19 24.7385C240.779 24.7447 241.367 24.7503 241.955 24.7553C243.396 24.7689 244.837 24.7902 246.278 24.8155C245.742 25.9886 245.164 26.8626 244.276 27.7949C244.042 28.0424 243.808 28.2899 243.568 28.5449C243.318 28.806 243.068 29.067 242.81 29.336C242.286 29.8907 241.761 30.4456 241.237 31.0007C240.977 31.2754 240.716 31.5501 240.448 31.8332C239.595 32.7373 238.751 33.6489 237.914 34.568C237.363 35.1683 236.8 35.7573 236.237 36.3463C235.14 37.5304 235.14 37.5304 234.345 38.9564C233.358 40.521 232.401 41.764 230.661 42.4865C226.458 43.103 222.143 42.7874 217.922 42.4865C219.253 40.6547 220.568 38.9174 222.211 37.3496C223.318 36.2679 224.389 35.1858 225.396 34.0106C226.866 32.2979 228.402 30.6507 229.942 29.0021C230.195 28.7313 230.448 28.4606 230.708 28.1816C232.065 26.7317 232.065 26.7317 232.716 26.0484C232.888 25.8195 233.059 25.5907 233.236 25.3549C234.361 24.5038 235.379 24.6776 236.766 24.6951Z" fill="#F9F9FA"/>
<path d="M272.988 56.8691C276.809 57.3406 280.122 58.6298 282.594 61.6978C286.158 67.0336 285.39 72.1207 284.716 78.2402C284.654 78.8215 284.591 79.4027 284.529 79.984C284.399 81.1919 284.266 82.3996 284.133 83.6072C283.962 85.1558 283.797 86.705 283.633 88.2543C283.506 89.4501 283.375 90.6454 283.244 91.8407C283.181 92.4122 283.12 92.9839 283.06 93.5557C282.976 94.3506 282.887 95.145 282.798 95.9393C282.748 96.3911 282.699 96.8429 282.648 97.3084C282.44 98.3753 282.44 98.3753 281.618 99.1972C281.395 98.8851 281.172 98.5731 280.942 98.2517C280.648 97.8432 280.354 97.4348 280.052 97.014C279.615 96.4061 279.615 96.4061 279.17 95.7859C278.414 94.7136 278.414 94.7136 277.67 94.0834C276.816 93.1289 276.961 92.1987 277.003 90.9697C277.194 88.5011 277.501 86.046 277.801 83.5888C279.725 71.5093 279.725 71.5093 275.865 60.3879C275.46 59.8952 275.049 59.4067 274.632 58.9239C274.149 58.3136 274.149 58.3136 273.656 57.691C273.326 57.2842 273.326 57.2842 272.988 56.8691Z" fill="#F8F9F9"/>
<path d="M206.742 24.7217C207.219 24.726 207.697 24.7303 208.189 24.7347C208.964 24.7387 208.964 24.7387 209.754 24.7427C210.567 24.7531 210.567 24.7531 211.397 24.7636C211.947 24.7677 212.498 24.7715 213.048 24.7749C214.399 24.7846 215.749 24.7981 217.099 24.815C217.099 26.295 216.874 26.434 215.88 27.4621C215.491 27.8695 215.491 27.8695 215.095 28.2851C214.675 28.716 214.675 28.716 214.248 29.1557C213.676 29.7536 213.104 30.3518 212.533 30.9504C212.256 31.2395 211.979 31.5286 211.693 31.8264C210.779 32.7862 209.89 33.7655 209.008 34.7549C207.545 36.3907 206.073 38.0169 204.59 39.6349C204.376 39.8705 204.162 40.1061 203.941 40.3488C202.399 42.0276 202.399 42.0276 201.482 42.4859C200.647 42.521 199.811 42.5299 198.975 42.526C198.228 42.5241 198.228 42.5241 197.466 42.522C196.944 42.5186 196.421 42.5151 195.883 42.5116C195.358 42.5097 194.832 42.5079 194.291 42.506C192.989 42.5011 191.688 42.4943 190.387 42.4859C190.934 41.0449 191.381 40.1189 192.519 39.0699C193.529 38.1027 194.484 37.126 195.395 36.0648C196.706 34.5434 198.061 33.0675 199.428 31.5957C201.059 29.8375 202.669 28.0664 204.234 26.2485C205.483 24.8238 205.483 24.8238 206.742 24.7217Z" fill="#F8F9F9"/>
<path d="M261.897 24.8152C263.133 24.6479 264.351 24.7619 265.595 24.8152C265.299 28.5807 264.617 32.2544 263.926 35.9623C263.527 38.1152 263.129 40.268 262.719 42.4862C257.43 42.4862 252.141 42.4862 246.691 42.4862C247.504 40.8613 248.309 39.8984 249.542 38.5821C249.953 38.1412 250.363 37.7003 250.774 37.2594C250.983 37.0353 251.193 36.8112 251.409 36.5803C252.378 35.542 253.336 34.4935 254.294 33.4452C255.465 32.1663 256.637 30.8892 257.814 29.6166C258.123 29.2817 258.123 29.2817 258.439 28.94C258.834 28.5124 259.229 28.0853 259.625 27.659C260.471 26.7413 261.202 25.8574 261.897 24.8152Z" fill="#FAFAFB"/>
<path d="M231.892 225.771C235.17 227.603 237.37 230.39 238.468 233.99C238.964 237.963 237.157 240.98 234.824 244.045C233.67 245.414 232.51 246.486 231.071 247.551C230.799 247.551 230.528 247.551 230.249 247.551C229.7 246.87 229.182 246.163 228.682 245.445C227.483 243.752 226.262 242.133 224.906 240.565C225.618 239.184 226.414 238.23 227.552 237.2C230.621 234.189 231.119 229.838 231.892 225.771Z" fill="#006BD5"/>
<path d="M197.887 4.49888C199.529 5.95399 200.94 7.45693 201.165 9.72246C201.006 11.949 200.345 13.5813 199.017 15.3634C196.967 16.995 195.287 17.2715 192.683 17.1645C190.587 16.8543 189.542 15.8139 188.204 14.259C187.2 12.2876 186.751 10.4813 187.344 8.30339C188.264 6.20031 189.614 4.94112 191.62 3.85677C193.803 3.12931 195.838 3.51361 197.887 4.49888Z" fill="#006BD5"/>
<path d="M254.977 3.74116C257.058 4.70785 258.387 5.87947 259.43 7.96626C259.744 10.7789 259.508 12.6862 257.786 14.9524C256.085 16.492 254.49 16.933 252.251 17.0746C249.989 16.928 248.454 15.9211 246.922 14.3103C245.783 12.5341 245.66 10.8489 245.868 8.78816C247.197 4.88106 250.922 2.39459 254.977 3.74116Z" fill="#006BD5"/>
<path d="M77.7873 262.345C79.5989 263.168 80.6949 264.229 81.6111 266.019C82.1691 267.671 82.1768 269.265 81.8969 270.975C80.8722 273.024 79.4338 274.467 77.3764 275.495C75.3402 275.719 73.7307 275.727 71.8799 274.802C68.8685 272.149 68.8685 272.149 68.6629 270.172C68.6199 268.063 68.7541 266.608 69.9793 264.811C72.4542 262.375 74.3845 262.008 77.7873 262.345Z" fill="#010306"/>
<path d="M198.294 62.9222C198.743 62.9247 198.743 62.9247 199.201 62.9272C199.516 62.9258 199.832 62.9243 200.157 62.9229C201.202 62.9192 202.248 62.9216 203.293 62.9244C204.018 62.9239 204.743 62.9231 205.467 62.922C206.988 62.9208 208.508 62.9226 210.028 62.9264C211.979 62.9311 213.93 62.9284 215.882 62.9235C217.378 62.9205 218.875 62.9215 220.372 62.9236C221.092 62.9241 221.811 62.9235 222.531 62.9216C223.536 62.9195 224.54 62.9226 225.545 62.9272C225.844 62.9256 226.144 62.9239 226.452 62.9222C228.511 62.9397 228.511 62.9397 229.427 63.8555C229.324 65.3195 229.324 65.3195 229.016 66.7321C227.797 67.3419 226.553 67.2072 225.216 67.2093C224.909 67.2113 224.602 67.2134 224.286 67.2155C223.269 67.2215 222.252 67.2243 221.235 67.2266C220.53 67.2289 219.825 67.2313 219.12 67.2337C217.64 67.238 216.16 67.2404 214.681 67.2418C212.783 67.2441 210.885 67.2539 208.987 67.2656C207.53 67.2733 206.073 67.2754 204.616 67.2761C203.916 67.2773 203.216 67.2806 202.517 67.286C201.539 67.293 200.561 67.2922 199.583 67.2896C199.293 67.2934 199.002 67.2971 198.703 67.301C197.522 67.2909 196.737 67.2733 195.753 66.5833C195.137 65.63 195.176 64.9658 195.318 63.8555C196.333 62.8409 196.909 62.9339 198.294 62.9222Z" fill="#FBFBFB"/>
<path d="M270.971 101.921C272.166 102.073 272.166 102.073 272.988 102.895C273.198 104.108 273.233 104.961 272.575 106.034C271.986 106.764 271.368 107.45 270.727 108.135C270.27 108.644 269.814 109.154 269.358 109.665C269.134 109.912 268.91 110.16 268.68 110.415C267.863 111.331 267.096 112.282 266.335 113.246C260.92 120.096 260.92 120.096 259.426 120.438C258.229 120.418 257.822 120.189 256.9 119.398C255.919 118.31 255.001 117.187 254.084 116.046C253.73 115.647 253.376 115.249 253.012 114.839C252.5 114.254 252.5 114.254 251.978 113.657C251.663 113.298 251.348 112.94 251.024 112.57C250.385 111.525 250.385 111.525 250.44 110.416C250.796 109.471 250.796 109.471 251.618 108.649C252.771 108.462 252.771 108.462 254.084 108.649C255.166 109.58 255.166 109.58 256.19 110.806C256.53 111.207 256.87 111.607 257.221 112.02C257.702 112.589 257.702 112.589 258.193 113.169C258.735 113.723 259.28 114.274 259.837 114.813C259.948 114.574 260.058 114.334 260.172 114.088C260.665 113.159 261.208 112.43 261.882 111.625C262.123 111.336 262.363 111.046 262.61 110.748C262.865 110.445 263.119 110.142 263.382 109.83C265.464 107.364 265.464 107.364 267.437 104.81C267.709 104.441 267.981 104.072 268.262 103.692C268.599 103.214 268.599 103.214 268.942 102.727C269.7 102.073 269.7 102.073 270.971 101.921Z" fill="#F9F9F9"/>
<path d="M192.444 263.167C193.194 263.976 193.194 263.976 193.96 265.016C195.621 267.187 197.459 269.086 199.43 270.975C198.874 272.244 198.276 273.033 197.222 273.929C196.981 274.138 196.741 274.347 196.493 274.563C194.826 275.706 192.765 275.765 190.8 275.495C188.443 274.317 187.111 272.645 186.28 270.153C186.011 268.192 186.252 267.106 187.384 265.53C188.798 263.817 190.131 262.234 192.444 263.167Z" fill="#006BD5"/>
<path d="M305.864 137.827C307.626 138.382 308.198 138.884 309.306 140.37C310.163 142.085 310.245 143.323 309.974 145.224C309.102 146.786 307.941 147.859 306.275 148.512C304.61 148.727 303.007 148.742 301.344 148.512C300.016 147.4 299.624 146.464 299.289 144.813C299.093 142.5 298.951 140.51 300.522 138.649C302.279 137.478 303.803 137.628 305.864 137.827Z" fill="#FAFBFB"/>
<path d="M297.645 245.907C297.781 246.585 297.916 247.263 298.056 247.962C293.125 250.428 293.125 250.428 291.765 251.078C290.643 251.57 290.643 251.57 290.068 252.431C289.693 253.849 290.092 254.904 290.556 256.258C291.29 257.322 291.874 257.519 293.125 257.825C295.247 257.745 296.699 257.104 298.522 256.121C299.495 255.676 300.288 255.638 301.344 255.77C301.547 256.38 301.547 256.38 301.755 257.003C300.512 259.252 298.346 260.286 296.001 261.112C293.368 261.615 291.244 261.146 288.983 259.719C287.649 258.602 286.959 257.458 286.55 255.77C286.361 253.477 286.962 251.443 288.251 249.548C290.668 247.131 294.266 245.813 297.645 245.907Z" fill="#060606"/>
<path d="M250.387 45.3633C252.828 45.3633 255.269 45.3633 257.784 45.3633C258.232 46.2585 258.31 46.8922 258.415 47.8836C258.447 48.1819 258.479 48.4802 258.513 48.7875C258.572 49.3556 258.572 49.3556 258.632 49.9351C258.822 51.7405 258.822 51.7405 259.017 53.5823C255.491 53.5823 251.965 53.5823 248.332 53.5823C248.519 52.5313 248.705 51.4803 248.897 50.3974C248.954 50.0691 249.011 49.7408 249.069 49.4026C249.348 47.8767 249.685 46.7665 250.387 45.3633Z" fill="#F8F8F9"/>
<path d="M185.866 45.3631C187.012 45.2722 188.064 45.2476 189.205 45.286C189.515 45.2916 189.825 45.2972 190.145 45.3029C190.91 45.3174 191.676 45.3396 192.442 45.3631C192.719 46.4154 192.992 47.4685 193.264 48.5223C193.381 48.9669 193.381 48.9669 193.501 49.4204C193.575 49.7105 193.65 50.0005 193.726 50.2993C193.795 50.564 193.864 50.8287 193.935 51.1015C194.085 51.9383 194.085 51.9383 194.085 53.9931C190.831 53.9931 187.576 53.9931 184.223 53.9931C184.401 52.2004 184.401 52.2004 184.582 50.3716C184.618 49.9966 184.653 49.6217 184.69 49.2353C184.721 48.938 184.752 48.6408 184.785 48.3345C184.815 48.031 184.845 47.7276 184.876 47.4149C185.045 46.596 185.045 46.596 185.866 45.3631Z" fill="#F1F1F2"/>
<path d="M180.524 24.8154C183.643 24.8154 186.762 24.8154 189.975 24.8154C189.527 26.6101 189.172 26.9783 187.869 28.2058C186.139 29.8785 184.558 31.623 182.989 33.4454C182.333 34.2014 181.674 34.9548 181.012 35.7056C180.55 36.2333 180.55 36.2333 180.079 36.7716C179.291 37.5549 179.291 37.5549 178.469 37.5549C178.884 33.2066 179.439 29.0548 180.524 24.8154Z" fill="#F8F8F9"/>
<path d="M93.4017 124.677C94.3935 124.799 94.9047 124.938 95.5963 125.674C95.7546 125.92 95.913 126.165 96.0761 126.418C96.3407 126.823 96.3407 126.823 96.6106 127.235C96.7892 127.518 96.9677 127.801 97.1516 128.093C97.3333 128.371 97.515 128.65 97.7022 128.936C99.4932 131.704 100.399 133.632 99.9769 137.005C99.1468 138.798 98.1065 139.889 96.3345 140.803C94.6098 141.415 92.7595 141.685 90.936 141.526C90.1847 140.911 90.1847 140.911 89.7031 140.293C89.9776 139.495 89.9776 139.495 90.525 138.649C91.5219 138.381 91.5219 138.381 92.7082 138.264C94.3202 138.02 95.0063 137.854 96.3811 136.903C97.2054 135.84 97.2054 135.84 97.0714 134.663C96.4905 132.601 95.2506 131.096 93.9844 129.394C92.568 127.399 92.568 127.399 92.6344 125.95C92.9907 125.088 92.9907 125.088 93.4017 124.677Z" fill="#060606"/>
<path d="M204.771 151.389C205.995 152.118 207.002 152.974 207.648 154.266C207.873 156.605 207.481 157.784 206.004 159.608C204.583 160.319 203.037 160.22 201.484 160.019C200.304 159.282 199.638 158.793 199.018 157.553C198.738 154.754 198.738 154.754 199.448 153.516C201.109 151.499 202.183 151.13 204.771 151.389Z" fill="#FAFAFA"/>
<path d="M85.4947 147.349C86.6603 148.263 87.6391 149.122 88.0584 150.566C87.9043 151.49 87.9043 151.49 87.6474 152.21C87.105 152.345 86.5625 152.481 86.0036 152.621C85.8495 152.422 85.6953 152.224 85.5365 152.02C84.0621 150.2 83.0689 149.118 80.6628 148.821C78.4096 148.692 76.9141 149.23 74.9159 150.227C73.8332 150.669 73.1122 150.573 72.0312 150.155C72.0312 149.477 72.0312 148.799 72.0312 148.1C72.6809 147.764 73.3318 147.431 73.9833 147.098C74.3456 146.912 74.708 146.727 75.0813 146.535C78.525 144.944 82.3356 145.247 85.4947 147.349Z" fill="#050505"/>
<path d="M77.3741 265.632C78.3758 266.274 78.3758 266.274 79.0179 267.276C79.3097 269.318 79.343 270.091 78.1703 271.796C76.6497 272.832 75.8934 272.909 74.0865 272.618C72.905 271.976 72.905 271.976 72.0317 270.975C71.5632 269.364 71.4527 268.496 72.1088 266.942C73.7004 265.021 74.9791 265.033 77.3741 265.632Z" fill="#006BD5"/>
<path d="M83.1301 108.649C83.2657 109.327 83.4014 110.005 83.5411 110.704C81.3502 112.475 79.1182 113.522 76.4522 114.351C76.0298 114.483 76.0298 114.483 75.599 114.618C74.1145 115.057 72.7612 115.411 71.2125 115.224C70.9413 114.953 70.6701 114.682 70.3906 114.402C70.4597 113.567 70.4597 113.567 70.8016 112.758C71.9072 112.258 72.9355 111.883 74.0892 111.526C74.9375 111.254 75.785 110.98 76.632 110.704C77.0361 110.577 77.4403 110.449 77.8568 110.318C79.044 109.913 79.044 109.913 80.125 109.219C81.2217 108.561 81.8738 108.541 83.1301 108.649Z" fill="#060606"/>
<path d="M312.44 95.4987C312.576 96.1768 312.711 96.8549 312.851 97.5535C311.816 98.0768 310.78 98.5988 309.743 99.1202C309.454 99.2667 309.164 99.4132 308.866 99.5641C303.787 102.115 303.787 102.115 302.192 101.946C301.912 101.852 301.633 101.759 301.345 101.663C301.209 101.121 301.073 100.578 300.934 100.019C310.384 95.2334 310.384 95.2334 312.44 95.4987Z" fill="#070707"/>
<path d="M97.1024 108.649C98.8168 108.516 99.6643 108.832 101.083 109.779C102.858 110.917 104.573 111.656 106.582 112.285C107.376 112.759 107.376 112.759 107.721 113.81C107.743 114.141 107.765 114.472 107.787 114.814C107.376 115.225 107.376 115.225 106.095 115.334C104.336 115.213 103.094 114.709 101.571 113.889C101.327 113.765 101.083 113.642 100.831 113.515C99.3085 112.725 97.9951 111.816 96.6914 110.704C96.827 110.026 96.9626 109.348 97.1024 108.649Z" fill="#070707"/>
<path d="M302.167 87.2793C302.845 87.4149 303.523 87.5505 304.221 87.6902C304.336 89.328 304.103 90.1853 303.2 91.5493C302.985 91.8746 302.77 92.1999 302.549 92.535C302.321 92.8687 302.093 93.2025 301.858 93.5463C301.637 93.8864 301.416 94.2265 301.187 94.5769C300.862 95.0616 300.862 95.0616 300.529 95.5561C300.232 95.9981 300.232 95.9981 299.929 96.4491C299.179 97.2619 298.745 97.4772 297.646 97.5531C297.375 97.2819 297.104 97.0106 296.824 96.7312C296.96 95.1704 297.48 94.137 298.354 92.8576C298.575 92.5305 298.796 92.2034 299.024 91.8664C299.256 91.5308 299.488 91.1952 299.727 90.8494C299.96 90.5059 300.193 90.1624 300.434 89.8084C301.008 88.9633 301.586 88.1204 302.167 87.2793Z" fill="#070707"/>
<path d="M103.036 121.029C104.089 121.388 104.089 121.388 104.859 122.21C105.499 123.914 105.348 125.388 104.911 127.142C104.504 127.752 104.504 127.752 104.089 128.374C102.805 128.452 102.805 128.452 101.623 128.374C100.53 126.506 100.19 125.194 100.39 123.032C100.944 121.531 101.358 120.943 103.036 121.029Z" fill="#090909"/>
<path d="M79.6349 120.772C80.6623 120.978 80.6623 120.978 81.3333 121.684C81.9876 122.776 82.0608 123.413 82.0493 124.677C82.0524 125.024 82.0556 125.372 82.0589 125.73C81.8628 126.929 81.4944 127.499 80.6623 128.375C79.6349 128.581 79.6349 128.581 78.6075 128.375C77.4645 127.172 77.2055 126.319 77.2206 124.677C77.2174 124.329 77.2142 123.981 77.2109 123.623C77.4693 122.043 78.0314 121.093 79.6349 120.772Z" fill="#040404"/>
<path d="M38.7477 122.621C41.4141 122.676 42.9642 123.732 44.912 125.498C45.9393 126.679 45.9393 126.679 46.5558 127.553C46.2845 128.095 46.0133 128.637 45.7339 129.196C43.7969 129.079 42.9241 128.182 41.5617 126.936C40.4351 126.021 39.2822 125.585 37.9258 125.087C38.2854 123.083 38.2854 123.083 38.7477 122.621Z" fill="#070707"/>
<path d="M256.141 19.4736C256.141 20.2873 256.141 21.101 256.141 21.9393C254.242 21.9393 252.344 21.9393 250.388 21.9393C250.252 21.2613 250.116 20.5832 249.977 19.8846C250.85 19.8157 251.723 19.7473 252.596 19.6791C253.083 19.641 253.569 19.6028 254.07 19.5635C254.759 19.5139 255.45 19.4736 256.141 19.4736Z" fill="#F4F4F5"/>
<path d="M266.413 35.9111C266.684 35.9111 266.955 35.9111 267.234 35.9111C267.724 38.1222 268.176 40.2068 268.056 42.4864C267.107 42.4864 266.158 42.4864 265.18 42.4864C265.587 40.3165 265.993 38.1467 266.413 35.9111Z" fill="#F2F3F3"/>
<path d="M231.894 225.771C233.339 226.569 234.393 227.367 235.464 228.621C235.703 228.896 235.942 229.171 236.188 229.455C236.809 230.269 237.286 230.977 237.648 231.935C237.512 232.342 237.376 232.748 237.237 233.168C237.078 232.885 236.919 232.603 236.755 232.312C236.541 231.942 236.327 231.571 236.107 231.19C235.792 230.639 235.792 230.639 235.471 230.077C234.777 229.067 234.146 228.492 233.127 227.825C232.992 228.232 232.856 228.639 232.716 229.058C232.445 229.058 232.174 229.058 231.894 229.058C231.843 229.558 231.793 230.058 231.74 230.574C231.57 231.961 231.259 233.126 230.661 234.4C230.268 233.149 230.253 232.336 230.57 231.068C230.645 230.758 230.721 230.448 230.799 230.129C230.922 229.65 230.922 229.65 231.047 229.161C231.127 228.835 231.207 228.509 231.29 228.174C231.488 227.372 231.691 226.571 231.894 225.771Z" fill="#006BD5"/>
<path d="M190.801 19.8838C192.835 19.8838 194.869 19.8838 196.965 19.8838C196.965 20.5619 196.965 21.2399 196.965 21.9385C195.066 21.9385 193.168 21.9385 191.212 21.9385C191.076 21.2605 190.941 20.5824 190.801 19.8838Z" fill="#FAFAFA"/>
<path d="M77.3753 256.592C75.7849 257.652 74.1429 258.083 72.3267 258.646C71.1693 258.984 71.1693 258.984 70.3891 259.879C69.9823 259.879 69.5754 259.879 69.1562 259.879C69.2919 259.472 69.4275 259.066 69.5672 258.646C70.7936 258.076 70.7936 258.076 72.3411 257.542C72.8476 257.362 73.354 257.183 73.8758 256.998C75.1416 256.642 76.0764 256.5 77.3753 256.592Z" fill="#006BD5"/>
<path d="M42.0352 139.882C42.9845 139.882 43.9338 139.882 44.9118 139.882C44.9118 141.374 44.9118 142.865 44.9118 144.402C43.679 143.169 43.679 143.169 43.4735 141.911C43.4057 141.513 43.3379 141.114 43.268 140.704C42.8612 140.433 42.4543 140.161 42.0352 139.882Z" fill="#D3D4D4"/>
<path d="M127.512 244.675C127.647 244.675 127.783 244.675 127.922 244.675C127.922 246.438 127.922 248.201 127.922 250.017C127.516 249.882 127.109 249.746 126.69 249.606C126.667 249.016 126.651 248.425 126.638 247.834C126.629 247.505 126.619 247.176 126.609 246.837C126.69 245.908 126.69 245.908 127.512 244.675Z" fill="#D9DADA"/>
<path d="M10.8044 261.935C12.1421 263.177 13.1132 264.506 14.092 266.044C12.9105 265.916 12.9105 265.916 11.6263 265.633C10.6852 264.221 10.7311 263.584 10.8044 261.935Z" fill="#006BD5"/>
<path d="M251.618 4.26727C250.94 4.40289 250.262 4.5385 249.563 4.67823C249.428 5.08507 249.292 5.49191 249.152 5.91108C248.099 6.39909 248.099 6.39909 247.098 6.73298C249.584 3.65718 249.584 3.65718 251.618 4.26727Z" fill="#006BD5"/>
<path d="M181.347 181.799C181.347 182.07 181.347 182.342 181.347 182.621C179.516 182.825 179.516 182.825 177.648 183.032C178.411 181.506 179.829 181.758 181.347 181.799Z" fill="#006BD5"/>
<path d="M28.4704 168.648C28.4704 169.055 28.4704 169.462 28.4704 169.881C27.4944 170.6 27.4944 170.6 26.4157 171.114C26.1444 170.979 25.8732 170.843 25.5938 170.703C26.543 170.025 27.4923 169.347 28.4704 168.648Z" fill="#006BD5"/>
</svg>
